<?xml version="1.0" encoding="UTF-8" standalone="no"?>
<svg
   xmlns:dc="http://purl.org/dc/elements/1.1/"
   xmlns:cc="http://creativecommons.org/ns#"
   xmlns:rdf="http://www.w3.org/1999/02/22-rdf-syntax-ns#"
   xmlns:svg="http://www.w3.org/2000/svg"
   xmlns="http://www.w3.org/2000/svg"
   xmlns:sodipodi="http://sodipodi.sourceforge.net/DTD/sodipodi-0.dtd"
   xmlns:inkscape="http://www.inkscape.org/namespaces/inkscape"
   width="2500"
   height="2500"
   viewBox="0 0 192.756 192.756"
   version="1.1"
   id="svg24"
   sodipodi:docname="logoua.svg"
   inkscape:version="0.92.3 (2405546, 2018-03-11)">
  <metadata
     id="metadata30">
    <rdf:RDF>
      <cc:Work
         rdf:about="">
        <dc:format>image/svg+xml</dc:format>
        <dc:type
           rdf:resource="http://purl.org/dc/dcmitype/StillImage" />
        <dc:title></dc:title>
      </cc:Work>
    </rdf:RDF>
  </metadata>
  <defs
     id="defs28" />
  <sodipodi:namedview
     pagecolor="#ffffff"
     bordercolor="#666666"
     borderopacity="1"
     objecttolerance="10"
     gridtolerance="10"
     guidetolerance="10"
     inkscape:pageopacity="0"
     inkscape:pageshadow="2"
     inkscape:window-width="1920"
     inkscape:window-height="1017"
     id="namedview26"
     showgrid="false"
     inkscape:zoom="0.0944"
     inkscape:cx="58.262712"
     inkscape:cy="1250"
     inkscape:window-x="0"
     inkscape:window-y="30"
     inkscape:window-maximized="1"
     inkscape:current-layer="svg24" />
  <path
     style="clip-rule:evenodd;fill:#ffffff;fill-rule:evenodd"
     inkscape:connector-curvature="0"
     id="path2"
     d="M 0,0 H 192.756 V 192.756 H 0 Z" />
  <path
     style="clip-rule:evenodd;fill:#d7ddd8;fill-rule:evenodd"
     inkscape:connector-curvature="0"
     id="path4"
     d="m 8.504,81.837 h 29.211 v 29.211 H 8.504 Z" />
  <path
     style="clip-rule:evenodd;fill:#ffffff;fill-rule:evenodd"
     inkscape:connector-curvature="0"
     id="path6"
     d="m 16.735,86.84 20.98,18.462 c 0,1.452 -0.033,3.356 0,5.745 H 8.504 v -4.164 z" />
  <path
     style="clip-rule:evenodd;fill:#f4cf53;fill-rule:evenodd"
     inkscape:connector-curvature="0"
     id="path8"
     d="m 21.963,97.04 0.097,0.161 c 0.097,0.032 0.226,0.032 0.355,0.032 v 0.097 h 0.226 l 0.064,0.226 0.129,0.098 c 0,0 0.033,-0.162 0.097,-0.129 l 0.097,0.322 c 0.129,-0.032 0.548,0.388 0.548,0.452 l 0.097,0.032 0.097,0.161 0.226,0.032 c 0.032,0.323 0.646,0.678 0.839,0.937 H 24.9 v 0.387 C 24.286,99.784 21.059,99.751 20.445,99.88 V 99.848 L 20.22,99.88 v -0.032 l -0.032,0.13 h -0.742 c 0.064,-0.13 -0.194,-0.098 -0.129,0 -0.129,-0.098 -0.355,-0.065 -0.517,0 l -0.032,-0.13 -0.194,0.097 -0.032,-0.097 -0.097,0.13 h -0.484 l -0.065,-0.13 c -0.032,0 -0.194,0.291 -0.161,0.032 a 3.678,3.678 0 0 1 -0.839,0 v -0.451 l 0.097,0.032 c 0.097,-0.162 0.162,-0.42 0.129,-0.613 h 0.097 c 0.097,-0.323 0.258,-0.646 0.226,-1.001 l 0.097,0.032 c 0.097,-0.097 0.161,-0.226 0.129,-0.354 h 0.097 v -0.162 c 0.161,-0.097 0.387,-0.161 0.548,-0.129 l 0.032,0.129 0.032,-0.161 c 0.194,0.032 0.355,0.226 0.484,0.161 0,-0.193 0.646,-0.161 0.742,-0.161 l 0.033,0.032 0.161,-0.097 c 0.032,-0.064 0.226,0.097 0.097,0.097 l 0.226,0.129 0.064,-0.129 c 0.258,-0.161 0.484,0 0.807,-0.097 l 0.032,0.193 0.387,0.032 0.064,-0.129 0.129,0.129 0.162,-0.129 -0.032,-0.064 0.097,-0.064 0.032,0.032 z" />
  <path
     style="clip-rule:evenodd;fill:#d9782d;fill-rule:evenodd"
     inkscape:connector-curvature="0"
     id="path10"
     d="m 28.806,102.785 c 0,0 -0.032,0.129 0.064,0.129 0.032,0 0.064,0.097 0.129,0.064 0.097,-0.032 0.065,0.064 0.065,0.064 0,0 0.097,0 0.032,0.065 l 0.097,0.097 h 0.162 l 0.032,0.064 c 0,0 0.097,0.097 0.129,0.193 0.064,0.129 0.194,0.226 0.194,0.226 0,0 0.032,0.032 0.064,-0.031 0.033,-0.065 0.064,-0.033 0.064,-0.033 0,0 0.065,0.064 0.226,0.194 0.032,0.032 0,0.129 0.129,0.161 0.065,0 0.162,0.097 0.162,0.097 l -0.064,0.097 c 0.032,0.032 0.161,0.032 0.161,0.097 0.033,0.259 0.226,0.161 0.226,0.161 0,0 0.064,0.033 0,0.162 -0.097,0.097 -0.032,0.129 -0.032,0.129 0,0 -0.064,0.193 -0.032,0.322 0,0.13 0.064,0.227 0.064,0.227 0,0 -0.226,0 -0.387,-0.129 -0.065,-0.064 -0.162,-0.064 -0.226,-0.129 -0.097,-0.13 -0.161,-0.065 -0.161,-0.065 l -0.097,0.097 c -0.065,-0.031 -0.097,-0.129 -0.452,0 -0.355,0.13 -0.226,0.033 -0.388,0.065 0,0 -0.129,0.032 -0.29,-0.032 -0.162,-0.064 -0.226,-0.13 -0.226,-0.13 l -0.194,0.097 -0.226,0.098 v 0.032 l -0.291,-0.097 -0.226,0.032 -0.064,-0.065 -0.194,-0.031 -0.194,0.031 -0.064,-0.064 c -0.258,0.064 -0.161,0.13 -0.355,0.064 0,0 -0.097,-0.031 -0.129,0 h -0.097 l -0.097,-0.097 -0.032,0.13 c -0.032,-0.098 -0.323,-0.033 -0.549,0.032 l -0.226,-0.032 -0.161,-0.064 c 0,0 -0.065,-0.065 -0.129,0 -0.097,0.064 -0.258,0.031 -0.258,0.031 l -0.226,0.065 -0.226,-0.097 c -0.064,0.031 0.129,0.129 -0.226,0 l -0.161,-0.065 c -0.129,0.194 -0.355,0.097 -0.355,0.097 H 22.19 v -0.031 l -0.097,0.031 c -0.388,0.098 -0.484,0.065 -1.292,-0.064 -0.129,0.098 -0.161,0.162 -0.291,0.064 l -0.161,-0.064 c 0.032,0.064 0.032,0.033 -0.032,0.064 0,0.033 -0.614,-0.031 -0.387,-0.031 l -0.064,-0.065 -0.065,0.065 -0.258,0.031 c -0.097,0 -0.193,0.033 -0.323,0.065 v -0.032 l -0.032,-0.064 -0.033,-0.033 -0.129,0.064 c 0,0 0,-0.031 -0.032,-0.031 -0.064,0 -0.064,-0.065 -0.064,-0.065 l -0.032,0.097 c 0,0 -0.484,0.033 -0.678,0 -0.194,-0.031 -0.291,0.033 -0.291,0.033 l -0.064,-0.098 -0.162,0.13 -0.226,-0.065 -0.129,-0.064 c -0.064,0 -0.258,0.162 -0.323,0.098 0,0 -0.226,-0.13 -0.355,-0.033 -0.194,0.13 -0.323,-0.031 -0.387,0.065 -0.097,0.032 -0.581,-0.097 -0.646,-0.097 -0.032,0 -0.097,0.064 -0.162,0.031 l -0.193,-0.064 c -0.097,0.064 -0.226,0.033 -0.226,0.033 -0.032,-0.065 -0.097,-0.033 -0.097,-0.033 h -0.291 c 0,0 0.097,-0.129 0.129,-0.29 0,-0.097 0.033,-0.259 0.033,-0.259 0.064,-0.064 0.032,-0.129 0.064,-0.193 l 0.065,-0.064 v -0.226 l 0.064,-0.388 0.291,-0.129 v -0.064 l -0.032,-0.064 v -0.096 l 0.032,-0.032 c 0.194,-0.259 0.387,-0.581 0.484,-0.872 l 0.226,-0.064 c 0.355,0.064 0.355,0.097 0.419,0 l 0.258,0.097 0.226,-0.097 c 0.032,-0.032 0.064,0 0.129,0.032 l 0.484,0.032 0.032,-0.064 c 0.194,0 0.323,-0.064 0.517,0.032 0.064,0 0.161,0.097 0.323,0.032 0.032,0 0.193,-0.032 0.323,0.032 a 0.758,0.758 0 0 0 0.258,0.064 c 0.032,-0.032 0.258,-0.032 0.355,-0.032 0.064,0 0.354,0.032 0.484,-0.064 a 0.35,0.35 0 0 0 0.129,-0.064 l 0.193,0.032 c 0,0 0.484,0.032 0.71,-0.032 0.161,-0.064 0.29,0 0.645,0 l 0.227,0.064 c 0,0 0.193,0.064 0.258,-0.032 a 0.41,0.41 0 0 1 0.291,0.032 c 0.064,0 0.097,-0.097 0.162,-0.097 0.161,0 0.323,0.064 0.419,0.097 l 0.162,-0.097 0.193,0.097 0.387,-0.097 0.129,0.064 c 0.193,0.064 0.419,0.064 0.548,-0.064 0,0.129 0.194,-0.097 0.194,0.032 0,0.097 0.162,0.064 0.194,0.032 l 0.581,-0.097 0.065,0.064 0.097,-0.064 h 0.678 l 0.162,-0.064 0.129,0.032 0.355,-0.032 c 0.033,0.064 0.968,-0.064 1.033,-0.032 0.064,0.032 -0.194,0.226 0.064,0.161 0.161,-0.032 0.064,0.097 0.194,0.064 0.032,-0.032 0.064,0 0.097,0.064 l 0.129,0.097 0.129,0.098 c 0,0 0.097,0.032 0.258,0.097 0.033,0 0.162,0.032 0.129,0.064 -0.064,0.062 0.033,0.062 0.033,0.062 z" />
  <path
     style="clip-rule:evenodd;fill:#d7ddd8;fill-rule:evenodd"
     inkscape:connector-curvature="0"
     id="path12"
     d="m 12.054,110.563 0.226,-0.161 c 0.032,-0.064 0,-0.064 0,-0.129 0.064,-0.097 0.258,-0.323 0.291,-0.484 0.097,-0.322 0.097,-0.613 0.387,-0.774 v -0.484 c 0,-0.161 0.097,-0.258 0.258,-0.258 h 0.904 c 0.064,0 0.064,0.064 0.129,0.064 0.387,0 0.613,-0.193 1,-0.193 0.064,0 0.097,0.064 0.161,0.064 0.743,0.097 1.162,0 1.904,0.064 0.064,0 0.064,0.064 0.129,0.064 0.226,0 0.323,-0.193 0.549,-0.193 0.097,0 0.161,0.064 0.258,0.064 0.129,0 0.194,-0.064 0.355,-0.064 0.162,0 0.226,0.064 0.387,0.064 0.129,0 0.194,-0.033 0.291,-0.033 0.064,0 0.064,-0.064 0.097,-0.064 0.097,0 0.097,0.098 0.161,0.098 a 0.338,0.338 0 0 0 0.291,-0.162 c 0.129,0.064 0.194,0.162 0.355,0.162 0.194,0 0.388,0 0.484,-0.162 l 0.097,0.098 h 0.387 c 0.065,0 0.097,-0.098 0.162,-0.098 0.065,0 0.064,0.064 0.129,0.064 0.065,0 0.064,-0.064 0.129,-0.064 v 0.098 h 1.323 c 0.064,0 0.097,0.064 0.162,0.064 0.097,0 0.097,-0.064 0.161,-0.064 0.064,0 0.064,0.064 0.129,0.064 0.065,0 0.065,-0.064 0.129,-0.064 h 0.904 c 0.129,0 0.193,0.064 0.291,0.064 0.097,0 0.161,-0.064 0.258,-0.064 0.064,0 0.097,0.064 0.161,0.064 0.064,0 0.097,-0.064 0.161,-0.064 0.097,0 0.129,0.129 0.258,0.129 0.162,0 0.194,-0.162 0.355,-0.162 0.162,0 0.226,0.098 0.388,0.098 0.097,0 0.097,-0.064 0.193,-0.064 0.032,0 0.064,0.064 0.097,0.064 0.097,0 0.161,-0.064 0.258,-0.064 0.161,0 0.258,0.064 0.452,0.064 a 0.45,0.45 0 0 0 0.291,-0.098 c 0.71,0 1.097,-0.032 1.775,0.033 0.064,0 0.097,0.064 0.161,0.064 0.064,0 0.097,-0.064 0.161,-0.064 0.065,0 0.097,0.064 0.162,0.064 0.032,0 0.064,-0.064 0.097,-0.098 0.064,0.033 0.129,0.098 0.226,0.098 0.032,0 0.032,-0.064 0.064,-0.064 0.129,0 0.194,0.064 0.291,0.064 0.129,0 0.193,-0.064 0.322,-0.064 0.064,0 0.064,0.064 0.129,0.064 0.064,0 0.064,-0.064 0.129,-0.064 0.065,0 0.065,0.064 0.129,0.064 h 0.322 c 0.065,0 0.129,-0.064 0.194,-0.064 0.064,0 0.064,0.064 0.097,0.064 0.097,0 0.161,-0.064 0.258,-0.064 0.065,0 0.065,0.064 0.129,0.064 0.064,0 0.064,-0.064 0.129,-0.064 h 2.389 c 0.226,0.29 0.419,0.612 0.775,0.549 0.032,0.161 0.226,0.193 0.354,0.322 0.129,0.161 0.194,0.322 0.42,0.355 0,0.258 0.129,0.354 0.322,0.516 0.194,0.227 0.13,0.291 0.452,0.581 l 0.323,0.355 0.323,0.226 H 12.054 Z" />
  <path
     style="clip-rule:evenodd;fill:#005981;fill-rule:evenodd"
     inkscape:connector-curvature="0"
     id="path14"
     d="M 37.392,104.851 Z M 14.54,90.746 Z m 0.71,-1.388 -0.033,0.032 z m 20.431,15.138 c -0.032,0.032 -0.064,0.032 -0.129,0 v -0.097 l -0.064,-0.064 c -0.065,0.031 -0.162,0.031 -0.162,0.031 v -0.161 l -0.032,-0.032 c -0.032,0.032 -0.065,0.064 -0.129,0.032 v -0.161 c -0.097,-0.064 -0.161,-0.097 -0.226,-0.161 h -0.033 c -0.097,-0.064 -0.129,-0.226 -0.193,-0.194 l -0.065,-0.193 c -0.032,0 -0.064,-0.032 -0.193,-0.032 l -0.032,0.032 -0.064,-0.064 h -0.032 l -0.032,-0.064 H 34.23 c -0.291,-0.452 -0.291,-0.161 -0.419,-0.323 l 0.032,-0.161 c -0.032,-0.032 -0.064,-0.032 -0.064,0 -0.129,-0.064 -0.194,-0.193 -0.258,-0.29 -0.097,0.032 -0.387,-0.291 -0.581,-0.484 l -0.065,0.032 v -0.064 l -0.032,-0.032 h -0.097 l -0.097,-0.13 0.032,-0.031 -0.193,-0.033 c 0.064,-0.097 -0.452,-0.354 -0.194,-0.354 l -0.161,-0.032 v -0.064 c -0.033,0 -0.162,0.032 -0.258,-0.032 v -0.097 l -0.032,-0.13 -0.097,0.13 c -0.064,-0.194 -0.161,-0.323 -0.258,-0.388 l -0.033,-0.032 c -0.129,-0.097 -0.258,-0.129 -0.355,-0.323 -0.064,0 -0.129,-0.097 -0.193,-0.161 -0.065,0 -0.129,0 -0.194,-0.032 -0.032,-0.032 -0.291,-0.388 -0.258,-0.452 l -0.032,-0.032 -0.064,0.064 c -0.226,-0.29 -0.452,-0.387 -0.71,-0.581 l -0.129,0.033 c -0.032,0 -0.064,-0.098 -0.064,-0.194 l -0.097,0.064 0.032,-0.193 c -0.064,-0.032 -0.097,-0.097 -0.161,-0.161 0,0.419 -0.13,-0.355 -0.42,-0.291 l -0.064,-0.193 -0.129,-0.129 c 0.032,0.032 0,-0.032 -0.064,-0.064 l -0.064,-0.064 -0.032,-0.033 v 0.162 H 28.392 C 28.36,98.144 28.36,97.982 28.199,98.046 l -0.129,-0.193 -0.032,0.064 -0.065,-0.161 h 0.032 c 0.065,-0.064 -0.032,-0.161 -0.097,-0.161 -0.226,-0.033 -0.291,-0.194 -0.484,-0.291 l -0.097,0.064 v -0.161 c -0.161,0 -0.71,-0.646 -0.774,-0.613 V 96.562 L 26.488,96.498 C 26.424,96.53 26.327,96.53 26.23,96.401 26.198,96.368 26.101,96.208 26.166,96.174 H 26.004 V 96.11 l -0.097,-0.193 -0.033,-0.032 c -0.129,0.032 -0.355,-0.194 -0.613,-0.452 v 0.065 C 25.132,95.401 24.939,94.981 24.777,95.014 L 24.713,94.95 24.61,94.91 24.578,94.781 24.514,94.749 C 24.482,94.781 24.45,94.717 24.45,94.62 l -0.032,-0.064 h -0.032 v 0.064 h -0.097 v -0.032 c 0,-0.032 0.065,0 0,-0.097 -0.097,-0.129 -0.226,-0.097 -0.29,0.032 -0.097,-0.097 -0.065,-0.388 -0.226,-0.452 0,0 -0.42,-0.032 -0.323,-0.226 L 23.385,93.748 23.353,93.716 23.224,93.684 23.192,93.49 23.063,93.361 c 0.032,0.032 -0.064,0.193 -0.129,0.064 -0.064,-0.064 0.032,-0.129 0.032,-0.129 L 22.902,93.231 22.87,93.36 h -0.033 l -0.129,-0.226 0.032,-0.033 -0.129,0.033 -0.097,-0.162 -0.064,0.033 -0.065,-0.194 0.033,0.032 0.032,-0.032 A 2.211,2.211 0 0 1 22.127,92.553 L 21.74,92.424 V 92.263 C 21.611,92.166 21.481,92.07 21.385,92.037 21.353,91.972 21.321,91.908 21.256,91.875 h -0.064 c -0.064,-0.032 -0.097,-0.129 -0.129,-0.129 -0.032,-0.064 -0.032,-0.097 -0.064,-0.161 l -0.032,0.097 -0.033,-0.097 c -0.064,-0.032 -0.097,0.064 -0.129,0.032 -0.064,-0.064 -0.161,-0.129 -0.226,-0.226 -0.226,-0.065 -0.258,-0.484 -0.484,-0.452 -0.064,-0.226 -0.388,-0.258 -0.419,-0.484 A 6.462,6.462 0 0 0 19.095,89.971 H 18.966 L 18.933,89.745 18.869,89.777 18.837,89.713 18.8,89.745 V 89.52 l -0.097,0.129 -0.064,-0.291 c 0.064,0.323 -0.517,-0.129 -0.517,-0.194 l 0.097,-0.032 c -0.064,-0.032 -0.097,0 -0.129,0 -0.032,0.032 -0.097,0 -0.129,-0.032 l -0.033,-0.161 h -0.032 l -0.032,0.129 C 17.767,89.1 17.767,88.874 17.767,88.777 l 0.032,-0.064 -0.064,-0.065 v 0.097 L 17.67,88.68 c -0.097,-0.065 -0.097,-0.194 -0.097,-0.291 -0.097,0.162 -0.323,-0.355 -0.484,-0.258 0,-0.032 -0.064,-0.097 -0.129,-0.162 -0.291,0.452 -0.517,1.292 -0.774,1.808 v 0.258 c -0.258,0.129 -0.065,0.291 -0.194,0.484 l -0.064,-0.064 -0.065,0.129 c 0.065,0.064 -0.322,0.581 -0.29,0.613 l -0.129,0.162 0.162,-0.033 c -0.194,0.517 -0.42,1 -0.613,1.517 0.064,0.226 -0.161,0.323 -0.161,0.549 a 6.77,6.77 0 0 1 -0.42,0.839 l -0.323,0.743 -0.097,0.129 0.065,0.033 c -0.258,0.193 -0.194,0.193 -0.194,0.484 l -0.129,0.129 0.064,0.29 c -0.291,0.032 -0.032,0.388 -0.258,0.484 l -0.032,-0.064 -0.097,0.064 c 0,0.064 -0.097,0.388 -0.097,0.484 l -0.097,0.226 c -0.387,0.742 -0.742,2.033 -0.904,2.162 -0.064,0.065 0,0.227 -0.032,0.323 l -0.097,0.193 c 0,0.065 0,0.097 0.032,0.162 l 0.064,-0.032 c -0.032,0.097 -0.194,0.129 -0.194,0.226 l 0.097,0.032 -0.129,0.064 c -0.032,0.161 -0.097,0.291 -0.161,0.452 0.129,0.129 -0.419,0.419 -0.226,0.452 -0.032,0.064 -0.161,0.387 -0.193,0.387 -0.129,0.227 -0.226,0.42 -0.162,0.646 -0.194,0.032 -0.226,0.452 -0.291,0.581 0,-0.032 -0.097,0.097 -0.194,0.129 v 0.032 h 0.064 l -0.064,0.032 c 0,0.162 -0.258,0.969 -0.354,0.969 l -0.033,0.161 c -0.064,-0.097 -0.129,0.064 0.033,0 l -0.129,0.13 0.032,0.064 -0.129,0.193 0.064,0.032 h -0.097 l -0.032,0.097 -0.064,0.161 h 0.032 l -0.032,0.13 c -0.032,0 -0.161,0.387 -0.161,0.193 0,0.064 -0.065,0.226 -0.097,0.29 l -0.032,0.032 H 9.763 v 0.162 l 0.033,-0.033 0.032,0.033 -0.097,0.258 -0.065,-0.032 v 0.097 c -0.064,0.193 -0.258,0.323 -0.29,0.517 0,0.097 0.064,0.193 -0.032,0.29 -0.226,0.259 -0.678,1.324 -0.839,1.711 v -2.614 c 0.097,-0.097 0.194,-0.323 0.323,-0.549 -0.064,0.064 -0.129,0.129 -0.161,0.032 -0.064,-0.193 0.129,-0.258 0.161,-0.258 l -0.032,-0.032 v -0.097 c 0.032,-0.065 0.064,-0.227 0.129,-0.259 0.226,-0.129 0.032,-0.193 0.129,-0.323 0.032,-0.064 0.097,0.065 0.064,0.033 -0.032,-0.098 0.226,-1.001 0.387,-1.227 l 0.032,0.032 v -0.13 l 0.064,0.033 0.032,-0.098 0.032,-0.097 0.033,-0.129 0.032,-0.032 0.032,-0.161 0.065,-0.032 v -0.032 c -0.032,-0.032 -0.129,-0.032 -0.032,-0.065 l 0.032,0.033 h 0.032 l 0.065,-0.098 H 9.892 v -0.064 l -0.032,-0.064 0.065,-0.193 0.064,0.064 0.032,-0.064 v -0.129 l 0.097,-0.064 0.032,-0.098 -0.032,-0.161 h 0.129 l 0.097,-0.29 c -0.033,-0.032 -0.129,-0.064 0,-0.097 v -0.194 l 0.097,-0.129 0.097,0.032 v -0.323 c 0.064,0.065 0.064,0.065 0.097,-0.031 v -0.033 c 0.161,0.033 -0.064,0.098 -0.032,0.162 h 0.032 l 0.064,-0.129 c 0,-0.033 0,-0.065 0.032,-0.13 -0.097,0.227 -0.032,-0.193 0,-0.322 l 0.032,-0.064 0.064,0.097 0.097,-0.064 c 0.032,-0.032 0,-0.097 0,-0.129 l -0.033,-0.033 v 0.098 H 10.86 v -0.064 h -0.032 v -0.064 h 0.064 c 0,-0.065 -0.032,-0.291 0.097,-0.227 l 0.032,-0.161 h 0.064 l -0.032,-0.097 h 0.064 C 11.15,99.43 11.085,99.396 11.085,99.332 l 0.097,-0.161 0.064,0.032 -0.032,-0.032 c 0.064,0.032 0.097,-0.032 0.097,-0.161 l 0.064,-0.549 0.064,-0.064 c 0.065,0.032 0.033,0.161 0.065,0.097 0.064,-0.129 0,-0.032 0.064,-0.129 0.033,-0.064 -0.032,-0.097 -0.032,-0.097 v -0.064 l 0.032,-0.032 -0.032,0.064 h 0.129 c 0,-0.097 -0.032,-0.032 -0.097,-0.097 h -0.032 l 0.065,-0.033 0.032,-0.031 0.032,0.097 c 0.033,0 -0.064,-0.291 0,-0.355 l 0.065,0.064 c 0,0 0.064,-0.032 0.161,-0.064 0.161,-0.29 0.064,-0.678 0.323,-0.71 l 0.032,-0.032 c -0.032,-0.064 -0.097,-0.064 -0.129,-0.129 l 0.065,-0.162 -0.032,-0.032 c 0.064,0 0.291,-0.452 0.419,-0.807 0.097,-0.291 0.161,-0.549 0.129,-0.581 0.064,-0.032 0.129,-0.129 0.193,-0.258 l 0.064,-0.226 0.032,0.033 c 0,-0.033 0.032,-0.097 0.032,-0.129 v -0.032 l 0.065,-0.161 -0.032,-0.162 c 0.129,0.032 0.193,-0.129 0.097,-0.226 0.032,-0.032 0.097,-0.097 0.161,-0.193 0.032,-0.161 0.097,-0.549 0.226,-0.646 0.162,-0.129 0,-0.194 0.097,-0.323 l 0.064,-0.065 V 92.94 l 0.064,-0.032 v -0.032 l -0.064,-0.064 0.064,-0.161 -0.032,-0.032 c 0.129,-0.032 0.581,-1.162 0.646,-1.324 l 0.064,-0.032 0.064,-0.226 v -0.064 h -0.032 l 0.064,-0.226 0.129,-0.129 0.065,-0.194 v -0.129 l 0.032,0.032 c 0.065,-0.129 0.097,-0.226 0.162,-0.322 -0.064,-0.033 -0.097,-0.065 0.032,-0.065 l -0.032,-0.226 0.129,-0.129 0.097,0.064 v -0.323 l 0.064,-0.064 0.033,0.097 0.032,-0.032 0.032,-0.194 c -0.097,0.291 -0.032,-0.322 0.032,-0.355 l 0.064,0.064 0.129,-0.064 c 0.032,-0.032 0,-0.064 -0.032,-0.129 L 15.47,88.617 v 0.097 h -0.032 l 0.032,-0.065 h -0.032 v -0.032 l 0.065,-0.032 c 0,-0.064 -0.065,-0.258 0.064,-0.226 l 0.032,-0.162 h 0.064 V 88.1 l 0.032,0.032 v -0.194 l 0.097,-0.161 0.033,0.032 v -0.032 c 0.032,0 0.129,-0.064 0.097,-0.162 l -0.033,0.033 c -0.097,-0.064 -0.064,-0.129 -0.064,-0.129 0.161,-0.064 -0.033,-0.226 0.161,-0.064 l -0.032,-0.032 v -0.064 c -0.032,-0.065 -0.065,-0.162 0,-0.226 0.355,-0.258 0.258,-0.646 0.323,-0.71 l 0.032,0.064 0.064,-0.194 0.162,0.162 v -0.097 l 0.064,0.097 0.032,-0.032 0.032,0.032 c 0.097,-0.064 0.323,0.258 0.452,0.193 l 0.097,0.129 0.065,0.064 0.129,0.032 c 0,0.032 0,0.064 0.064,0.129 h 0.097 v 0.097 c 0.129,0.129 0.258,0.193 0.162,0.226 l 0.129,0.032 v 0.097 l 0.097,-0.065 0.226,0.097 -0.032,0.097 0.032,0.032 0.064,0.065 0.064,-0.097 c -0.032,0.548 0.452,0.258 0.388,0.581 l 0.161,-0.032 0.032,0.194 0.065,-0.032 v 0.258 l 0.161,-0.097 0.032,0.258 c 0,-0.129 0.194,0.032 0.226,-0.097 l 0.097,0.129 h 0.097 a 0.78,0.78 0 0 1 0.065,0.291 l 0.161,0.032 0.097,0.162 0.226,0.129 v 0.129 h 0.129 c 0,0.064 -0.097,0.161 0,0.193 l 0.162,0.032 c -0.162,0.129 0.193,0.194 0.29,0.194 l 0.064,0.193 c 0.097,0.065 0.258,0.162 0.323,0.033 l 0.064,0.226 c 0.097,0.064 0.162,0.194 0.226,0.291 0.032,-0.097 0,-0.258 -0.064,-0.323 l 0.161,0.097 c 0,0.097 0.129,0.194 0.291,0.42 l 0.161,0.032 0.032,0.226 0.161,0.129 c -0.032,-0.032 0.032,-0.226 0.162,-0.064 l 0.033,0.064 0.032,0.032 0.065,-0.032 0.032,0.097 0.193,0.194 h 0.032 c 0.097,-0.032 0.194,0.129 0.226,0.193 v 0.129 c 0.129,0.065 0.258,0.194 0.387,0.226 l 0.064,0.064 c 0.097,0.064 0.258,0.097 0.355,0.226 v 0.193 h 0.129 l 0.032,0.033 c 0.097,0.097 0.162,0.193 0.258,0.29 0.064,0.032 0.129,0.064 0.226,0.129 0.129,0.064 0.129,0.226 0.226,0.355 l 0.065,-0.032 v -0.064 l 0.032,0.064 0.032,0.064 c 0.097,0 0.226,-0.032 0.355,0.129 0.032,0.065 -0.032,0.226 0.064,0.258 h 0.194 c -0.065,0.097 0.097,0.226 0.258,0.258 l 0.032,0.097 0.064,0.097 0.032,0.033 0.032,0.064 v -0.032 l 0.129,0.064 h -0.032 l 0.032,0.162 0.065,-0.097 c 0,0.032 0.419,0.419 0.872,0.839 l 0.097,0.032 h 0.129 l 0.032,0.226 0.065,0.032 h 0.032 l 0.032,0.065 0.033,-0.032 v 0.064 l 0.064,0.065 v -0.033 l 0.097,0.033 c 0.064,0.064 0.258,0.29 0.226,0.193 l 0.162,0.032 c 0,0.064 0.161,0.29 0.258,0.354 -0.033,0 -0.033,0.033 0,0.033 0.064,0.031 0.097,-0.098 0.161,-0.064 0.032,0.031 0.032,0.161 0.064,0.226 v -0.032 l 0.064,-0.064 c 0.064,0.032 0.129,0.161 0.097,0.226 l 0.097,0.161 0.097,0.032 h 0.097 l 0.032,0.227 c 0.032,0.032 0.097,0.064 0.161,0.097 0.032,-0.064 0.097,-0.097 0.162,0 0,0.032 0,0.064 -0.032,0.097 l 0.097,0.064 v -0.097 h 0.064 l 0.129,0.29 -0.032,0.033 0.161,-0.033 0.097,0.194 0.097,-0.032 0.065,0.193 h -0.032 l -0.033,0.064 0.065,0.064 0.064,0.064 0.129,-0.032 c 0.161,0.097 0.193,0.194 0.452,0.259 v 0.097 l 0.129,0.097 c 0,0.064 0.032,0.193 0.097,0.258 l 0.355,0.13 c -0.032,0.193 0.226,0.193 0.226,0.161 v 0.032 h 0.097 v 0.032 c 0.064,0 0.097,0.129 0.032,0.097 l 0.032,0.097 c 0.129,0.291 0.355,-0.193 0.581,0.517 h 0.226 v 0.161 h 0.097 l -0.097,0.194 h 0.032 l 0.194,-0.097 c 0.064,0.097 0.064,0.226 0.097,0.322 h 0.129 l 0.032,0.129 a 0.54,0.54 0 0 1 0.194,-0.097 v 0.161 l 0.064,0.032 0.032,0.065 0.064,0.064 0.032,-0.064 0.033,0.031 0.129,0.098 -0.032,0.032 v 0.032 h 0.129 l -0.032,-0.064 0.032,0.064 0.064,0.161 0.032,0.032 c 0.097,0.032 0.162,0.064 0.194,0.162 0.129,0 0.162,0.064 0.162,0.129 h 0.161 v 0.097 l 0.097,0.161 0.032,-0.032 v 0.064 l 0.065,-0.032 v 0.291 l 0.064,-0.194 0.129,0.064 h -0.065 l 0.065,0.291 c 0.032,-0.13 0.193,0 0.226,-0.097 l 0.097,0.129 h 0.097 c 0.291,0.451 0.291,0.161 0.42,0.322 l 0.032,0.194 c 0,-0.065 0.097,-0.097 0.162,-0.032 0.064,0.129 0.194,0.419 0.258,0.613 l 0.032,-0.033 0.097,-0.129 0.064,0.227 h 0.097 v -0.032 0.032 l 0.097,0.193 0.064,0.032 -0.032,-0.032 h 0.032 a 0.553,0.553 0 0 1 0.129,0.161 l -0.032,0.032 c 0.065,0.097 0.129,0.129 0.162,0.097 0.097,-0.032 0.129,0.162 0.161,0.065 v 0.097 h 0.161 l -0.064,0.064 0.032,0.064 0.032,0.032 h 0.065 l -0.032,0.064 v 0.064 c 0.032,0.064 0.162,0.064 0.193,0 l 0.033,0.097 0.032,0.032 h 0.097 c 0.032,0.098 0.032,0.227 0.064,0.323 l 0.032,0.064 0.064,0.032 0.129,-0.064 v 0.032 h 0.097 c 0,0.032 0,0.097 0.033,0.161 h 0.129 l -0.064,0.129 0.097,0.13 0.032,0.032 0.129,0.129 v 1.227 c -0.42,-0.42 -0.872,-0.807 -1.324,-1.162 l -0.064,-0.193 c 0.032,0.129 -0.097,0.064 -0.161,0 -0.065,-0.032 -0.291,-0.484 -0.355,-0.581 -0.021,0.006 -0.053,-0.027 -0.118,-0.059 z" />
  <path
     style="clip-rule:evenodd;fill:#005981;fill-rule:evenodd"
     inkscape:connector-curvature="0"
     id="path16"
     d="m 17.799,92.457 c -0.354,0.484 -0.226,1.323 -0.807,1.549 -0.064,-0.258 0.258,-0.388 0.162,-0.581 0.193,-0.194 0.032,-0.581 0.355,-0.646 -0.064,-0.226 0.129,-0.291 0.097,-0.484 0.162,-0.065 0.129,0.097 0.193,0.162 z m -0.806,1.839 v 0.226 c -0.064,0 -0.161,0.032 -0.161,-0.032 -0.065,-0.129 0.096,-0.614 0.161,-0.194 z m -0.194,0.388 c 0.064,0.097 -0.032,0.161 -0.097,0.226 0.033,0.032 0.065,0.032 0.065,0.097 -0.032,0.129 -0.129,0.064 -0.226,0.097 0.032,-0.227 0.064,-0.453 0.258,-0.42 z m -2.066,5.228 c -0.323,0.032 -0.032,0.388 -0.258,0.484 l -0.129,-0.193 c 0.322,-0.064 -0.097,-0.646 0.322,-0.581 z m -0.645,1.292 c -0.194,0.161 0,0.354 -0.162,0.483 -0.097,0.259 -0.322,0.484 -0.29,0.808 -0.323,-0.162 0.064,-0.388 0.032,-0.646 0.064,-0.226 0.226,-0.451 0.258,-0.645 z m -2.55,6.713 c -0.064,0.097 -0.226,0.064 -0.322,0.064 -0.129,-0.226 0.193,-0.322 0.161,-0.516 0.129,0.065 0.226,0.259 0.161,0.452 z m -0.42,0.484 c 0.065,0.613 -0.548,0.936 -0.419,1.581 -0.064,0.098 -0.161,0.13 -0.291,0.13 -0.032,-0.581 0.323,-1.033 0.419,-1.582 0.065,-0.096 0.162,-0.129 0.291,-0.129 z m -0.742,2.227 c 0,0.064 -0.032,0.098 -0.065,0.13 l -0.322,-0.065 c -0.13,-0.291 0.387,-0.323 0.387,-0.065 z m 1.453,-3.582 c -0.032,0.226 -0.129,0.322 -0.42,0.29 -0.097,-0.032 0.032,-0.161 0.065,-0.226 0.064,-0.032 0.096,0.032 0.096,0.064 0.097,-0.128 0.097,-0.29 0.259,-0.128 z m 6.1,-15.235 c 0,0.161 -0.032,0.291 -0.161,0.355 -0.032,0.032 -0.065,0 -0.097,-0.032 0.064,-0.13 -10e-4,-0.42 0.258,-0.323 z m -2.905,7.262 c 0,0.064 -0.032,0.097 -0.064,0.129 h -0.129 v -0.161 c 0.064,-0.032 0.161,-0.032 0.193,0.032 z m -0.129,0.291 c 0,0.064 0.033,0.161 -0.032,0.193 -0.129,0 -0.129,-0.162 -0.129,-0.227 0.064,0.001 0.129,-0.031 0.161,0.034 z m -3.809,8.617 c -0.064,0.032 -0.129,-0.032 -0.161,-0.064 -0.033,-0.064 0.064,-0.193 0.161,-0.161 z" />
  <path
     style="clip-rule:evenodd;fill:#005981;fill-rule:evenodd"
     inkscape:connector-curvature="0"
     id="path18"
     d="m 13.571,102.43 c 0.033,0.065 -0.032,0.097 -0.032,0.13 H 13.41 v -0.162 c 0.065,-10e-4 0.129,-0.033 0.161,0.032 z m -0.096,0.291 c 0,0.064 0.032,0.161 -0.064,0.193 -0.129,0.032 -0.097,-0.129 -0.097,-0.226 0.031,0 0.128,-0.032 0.161,0.033 z" />
  <path
     style="clip-rule:evenodd;fill:#005981;fill-rule:evenodd"
     inkscape:connector-curvature="0"
     id="path20"
     d="m 14.346,100.622 v 0.291 H 14.25 c -0.033,0.097 0.032,0.322 -0.129,0.322 0.033,0.098 -0.032,0.13 -0.097,0.194 v 0.354 H 13.83 c 0.097,0.259 -0.291,0.129 -0.032,0.388 -0.193,-0.032 -0.032,0.258 -0.193,0.226 v 0.064 h -0.129 c -0.064,-0.161 0.064,-0.129 0.097,-0.258 0,-0.032 0.162,0 0.097,-0.097 -0.097,0.032 -0.064,-0.097 -0.097,-0.129 0.065,0.032 0.033,-0.065 0.033,-0.097 0.097,0 0.097,-0.098 0.161,-0.098 l 0.032,-0.097 c -0.064,0 -0.161,0 -0.097,-0.097 0.064,0 -0.032,-0.129 0.064,-0.129 0.064,-0.097 -0.064,-0.42 0.129,-0.42 v -0.097 c 0.064,-0.032 0.064,-0.097 0.129,-0.129 v -0.064 l 0.097,-0.097 v -0.227 c 0.096,0.004 0.612,-0.029 0.225,0.197 z m 0.613,-1.355 v 0.098 c -0.097,-0.033 -0.065,0.097 -0.194,0.097 0,0.064 -0.032,0.064 -0.032,0.097 -0.097,0.032 -0.032,-0.097 -0.097,-0.064 -0.032,-0.194 0.194,-0.032 0.097,-0.227 0.161,0.098 0.064,-0.129 0.161,-0.097 l 0.033,0.032 z m -1.872,4.26 c -0.032,0.13 0.161,0.097 0.097,0.291 -0.064,-0.032 -0.064,0.064 -0.097,0.064 0,0.097 -0.032,0.193 0,0.258 l 0.032,0.161 c -0.097,-0.032 -0.064,0.033 -0.097,0.064 0.097,0.291 -0.226,0.259 -0.129,0.549 h -0.097 c -0.033,0.064 0,0.162 0,0.227 -0.162,-0.098 -0.065,0.129 -0.194,0.097 l -0.032,0.064 0.097,0.032 c 0.033,0.064 -0.032,0.064 -0.064,0.097 l -0.032,0.194 h -0.097 v 0.258 c -0.097,-0.032 -0.064,0.032 -0.129,0.097 v 0.129 H 12.28 v 0.259 c -0.129,-0.064 -0.226,0.226 -0.323,0.193 -0.032,0.097 0.032,0.29 -0.064,0.322 -0.097,-0.032 -0.032,-0.226 -0.064,-0.29 0.29,-0.064 -0.032,-0.258 0.032,-0.323 0.129,0.033 0.064,-0.129 0.193,-0.097 v -0.161 c 0.097,0.032 0.064,-0.097 0.097,-0.064 l 0.032,-0.322 c 0.194,-0.033 0,-0.42 0.161,-0.517 h 0.033 c 0,0.032 0,0.129 0.064,0.097 0.032,0.032 0.032,-0.064 0.032,-0.097 h 0.097 c 0.064,-0.13 -0.064,-0.42 0.129,-0.42 -0.033,-0.032 -0.033,-0.129 -0.097,-0.097 0,-0.032 0.032,-0.129 0.097,-0.064 -0.033,-0.227 0.097,-0.227 0.129,-0.388 h 0.032 c 0.032,-0.064 0.032,-0.129 0.032,-0.193 l 0.097,-0.032 c 0,-0.064 -0.097,-0.097 -0.097,-0.162 0.064,0 0.097,0.033 0.129,0.065 0.065,-0.032 0.097,-0.098 0.065,-0.161 H 12.99 c -0.032,-0.097 0.032,-0.13 0.097,-0.13 z m 3.357,-8.295 c 0,0.097 0.032,0.161 0.097,0.193 0,0.065 0,0.129 -0.065,0.097 L 16.444,95.425 C 16.38,95.393 16.412,95.49 16.347,95.49 l 0.032,0.097 h -0.032 c 0.097,0.258 -0.226,0.193 -0.097,0.452 h 0.032 c -0.032,0.064 -0.129,0.032 -0.129,0.097 -0.065,0.097 0,0.323 -0.097,0.355 v 0.097 h -0.033 c 0.064,0.032 0,0.161 0.033,0.193 l -0.033,0.032 c -0.162,0 -0.032,0.194 -0.129,0.259 -0.032,0.064 0.065,0.097 0.033,0.193 h -0.065 l -0.032,0.29 c -0.129,-0.031 -0.097,0.162 -0.291,0.098 -0.065,0.032 -0.032,0.161 -0.032,0.193 -0.194,-0.097 0,0.323 -0.194,0.388 0,0.129 0.032,0.29 -0.032,0.387 -0.162,-0.097 -0.097,0.064 -0.097,0.064 0,0 -0.032,0.162 -0.097,0.032 -0.064,-0.097 -0.097,0 -0.097,0 v -0.29 c 0.097,0.032 0.064,-0.064 0.097,-0.064 0.032,-0.097 -0.032,-0.29 0.129,-0.259 0,-0.129 -0.064,-0.451 0.097,-0.483 0.032,-0.097 -0.064,-0.388 0.097,-0.388 l 0.032,-0.097 h 0.162 c 0,-0.064 0,-0.193 0.097,-0.193 0,-0.065 0.064,-0.227 0,-0.259 V 96.62 c 0.032,-0.064 0.064,-0.064 0.097,-0.064 l 0.033,-0.29 h 0.097 v -0.355 c 0.097,0 0.097,-0.129 0.161,-0.097 0,-0.064 0.097,-0.162 0.032,-0.194 -0.032,-0.032 0,0.032 -0.032,-0.065 0.097,-0.032 0.065,0.033 0.162,0.033 0,-0.064 0,-0.097 0.032,-0.162 0.097,0.065 -0.032,-0.097 0.064,-0.097 v -0.097 z m -5.1,13.137 c -0.097,0.032 -0.129,-0.032 -0.161,-0.064 -0.065,-0.097 0.064,-0.194 0.161,-0.161 z m 2.098,-5.229 c -0.097,-0.064 -0.064,0.033 -0.129,0.065 v 0.322 c -0.129,0.032 -0.129,-0.097 -0.129,-0.193 H 13.12 v 0.064 h -0.097 v -0.097 h 0.097 c -0.032,-0.032 -0.032,-0.064 -0.032,-0.129 0.161,-0.033 0.097,-0.259 0.354,-0.162 z m 39.604,-2.388 c 0.161,-0.323 0.549,-0.484 1.162,-0.484 v -0.323 h -3.454 v 0.323 c 0.484,0 0.839,0.097 1,0.29 0.194,0.194 0.291,0.549 0.291,1.065 v 5.616 c 0,1.162 -0.161,1.969 -0.452,2.485 -0.355,0.613 -1.033,0.937 -2.034,0.937 -0.484,0 -0.871,-0.098 -1.162,-0.291 -0.774,-0.452 -1.162,-1.484 -1.162,-3.131 v -5.616 c 0,-0.517 0.129,-0.871 0.323,-1.098 0.161,-0.161 0.484,-0.258 1,-0.258 V 99.944 H 44.62 v 0.323 c 0.323,0 0.549,0.032 0.743,0.097 0.355,0.129 0.549,0.549 0.549,1.259 v 5.616 c 0,0.871 0.097,1.614 0.258,2.195 0.387,1.227 1.484,1.84 3.324,1.84 1.42,0 2.356,-0.388 2.84,-1.13 0.387,-0.581 0.549,-1.55 0.549,-2.905 v -5.616 c 0.002,-0.388 0.066,-0.678 0.163,-0.871 z m 4.293,10.36 v -0.29 c -0.226,0 -0.452,-0.032 -0.613,-0.064 -0.355,-0.13 -0.517,-0.517 -0.517,-1.162 v -2.065 c 0,-0.549 0.097,-1.065 0.291,-1.614 0.161,-0.42 0.387,-0.839 0.645,-1.194 0.355,-0.452 0.678,-0.678 1.001,-0.678 0.484,0 0.807,0.226 0.936,0.678 0.032,0.161 0.064,0.646 0.064,1.42 v 3.454 c 0,0.452 -0.097,0.774 -0.258,0.968 -0.161,0.162 -0.452,0.259 -0.872,0.259 v 0.29 h 3.421 v -0.29 c -0.226,0 -0.419,-0.032 -0.581,-0.064 -0.355,-0.13 -0.549,-0.517 -0.549,-1.162 v -3.841 c 0,-0.872 -0.097,-1.485 -0.258,-1.84 -0.258,-0.452 -0.71,-0.678 -1.453,-0.678 -1.065,0 -1.872,0.742 -2.356,2.227 h -0.032 v -2.227 l -2.324,0.42 v 0.258 c 0.388,0.032 0.678,0.129 0.839,0.226 0.193,0.194 0.291,0.452 0.291,0.872 v 4.583 c 0,0.452 -0.097,0.774 -0.258,0.968 -0.161,0.162 -0.452,0.259 -0.872,0.259 v 0.29 h 3.455 z m 8.263,0 v -0.29 c -0.226,0 -0.42,-0.032 -0.581,-0.064 -0.355,-0.13 -0.549,-0.517 -0.549,-1.162 v -6.358 l -2.292,0.42 v 0.258 c 0.387,0.032 0.645,0.129 0.807,0.226 0.193,0.194 0.322,0.452 0.322,0.872 v 4.583 c 0,0.452 -0.097,0.774 -0.258,0.968 -0.193,0.162 -0.484,0.259 -0.871,0.259 v 0.29 h 3.422 z m -1.162,-9.715 c 0.161,-0.193 0.258,-0.388 0.258,-0.646 0,-0.291 -0.097,-0.517 -0.258,-0.71 a 0.826,0.826 0 0 0 -0.613,-0.259 0.879,0.879 0 0 0 -0.613,0.259 c -0.162,0.193 -0.226,0.419 -0.226,0.71 0,0.258 0.097,0.452 0.258,0.646 0.161,0.194 0.355,0.29 0.581,0.29 a 0.746,0.746 0 0 0 0.613,-0.29 z m 5.293,9.877 2.13,-6.101 c 0.193,-0.581 0.354,-0.904 0.484,-1.098 0.194,-0.226 0.517,-0.355 0.968,-0.388 v -0.29 h -2.711 v 0.29 c 0.452,0.032 0.678,0.227 0.678,0.581 0,0.13 -0.032,0.355 -0.162,0.71 l -1.485,4.52 -1.743,-4.584 c -0.129,-0.354 -0.194,-0.613 -0.194,-0.839 0,-0.258 0.226,-0.388 0.678,-0.388 v -0.29 h -3.163 v 0.29 c 0.291,0 0.517,0.064 0.71,0.194 0.291,0.193 0.549,0.646 0.839,1.323 l 2.26,6.068 h 0.711 z m 4.455,-6.295 c 0.291,-0.774 0.775,-1.193 1.42,-1.193 0.355,0 0.646,0.097 0.871,0.29 0.355,0.388 0.549,0.968 0.549,1.743 h -3.001 c -0.001,-0.226 0.064,-0.484 0.161,-0.84 z m 2.937,5.682 c -1,0 -1.775,-0.452 -2.356,-1.324 -0.484,-0.807 -0.742,-1.807 -0.742,-2.969 h 4.325 v -0.355 c 0,-0.613 -0.097,-1.13 -0.323,-1.549 -0.452,-0.807 -1.194,-1.227 -2.227,-1.227 -2.001,0 -3.034,1.259 -3.034,3.809 0,0.903 0.129,1.678 0.42,2.324 0.549,1.291 1.646,1.904 3.195,1.904 0.71,0 1.323,-0.098 1.775,-0.291 v -0.549 c -0.226,0.163 -0.581,0.227 -1.033,0.227 z m 5.39,0.451 v -0.29 c -0.258,0 -0.452,-0.032 -0.613,-0.064 -0.355,-0.13 -0.549,-0.517 -0.549,-1.162 v -2.518 c 0,-0.904 0.162,-1.582 0.484,-2.065 0.258,-0.42 0.484,-0.613 0.678,-0.613 0.032,0 0.161,0.064 0.322,0.193 0.194,0.129 0.355,0.193 0.517,0.193 0.484,0 0.71,-0.258 0.71,-0.774 a 0.9,0.9 0 0 0 -0.193,-0.581 0.814,0.814 0 0 0 -0.549,-0.193 c -0.871,0 -1.517,0.581 -1.937,1.775 h -0.032 v -1.775 l -2.292,0.42 v 0.258 c 0.387,0.032 0.678,0.129 0.839,0.226 0.194,0.161 0.291,0.452 0.291,0.872 v 4.583 c 0,0.452 -0.097,0.774 -0.258,0.968 -0.161,0.162 -0.452,0.259 -0.871,0.259 v 0.29 h 3.453 z m 6.326,-7.617 a 5.616,5.616 0 0 0 -1.711,-0.258 c -0.71,0 -1.258,0.129 -1.71,0.451 -0.516,0.355 -0.774,0.904 -0.774,1.646 0,0.613 0.258,1.13 0.774,1.549 0.226,0.194 0.581,0.42 1.065,0.678 0.517,0.291 0.872,0.517 1.065,0.711 0.387,0.354 0.613,0.71 0.613,1.098 0,0.387 -0.162,0.742 -0.484,1 -0.291,0.258 -0.646,0.355 -1,0.355 -0.904,0 -1.485,-0.517 -1.743,-1.614 h -0.388 l 0.097,1.872 c 0.548,0.193 1.194,0.291 1.937,0.291 0.742,0 1.388,-0.162 1.839,-0.484 0.613,-0.388 0.904,-1.001 0.904,-1.775 0,-0.549 -0.097,-1.001 -0.355,-1.323 -0.193,-0.291 -0.516,-0.549 -1,-0.872 -0.678,-0.419 -1.162,-0.678 -1.453,-0.871 -0.452,-0.322 -0.678,-0.71 -0.678,-1.098 0,-0.258 0.065,-0.451 0.162,-0.613 0.258,-0.29 0.613,-0.451 1.065,-0.451 0.807,0 1.323,0.516 1.517,1.484 h 0.387 z m 4.616,7.617 v -0.29 c -0.226,0 -0.419,-0.032 -0.581,-0.064 -0.387,-0.13 -0.549,-0.517 -0.549,-1.162 v -6.358 l -2.292,0.42 v 0.258 c 0.387,0.032 0.646,0.129 0.807,0.226 0.194,0.194 0.291,0.452 0.291,0.872 v 4.583 c 0,0.452 -0.065,0.774 -0.259,0.968 -0.161,0.162 -0.452,0.259 -0.839,0.259 v 0.29 h 3.422 z m -1.194,-9.715 a 0.831,0.831 0 0 0 0.258,-0.646 c 0,-0.291 -0.065,-0.517 -0.226,-0.71 -0.161,-0.162 -0.387,-0.259 -0.613,-0.259 -0.226,0 -0.452,0.097 -0.613,0.259 -0.161,0.193 -0.226,0.419 -0.226,0.71 0,0.258 0.065,0.452 0.226,0.646 0.194,0.193 0.387,0.29 0.613,0.29 0.226,0 0.419,-0.096 0.581,-0.29 z m 3.163,3.745 c 0.291,-0.84 0.71,-1.291 1.324,-1.291 0.581,0 1,0.451 1.292,1.291 0.16,0.613 0.258,1.323 0.258,2.13 0,0.807 -0.098,1.517 -0.258,2.099 -0.291,0.871 -0.711,1.291 -1.292,1.291 -0.42,0 -0.743,-0.162 -1.001,-0.517 -0.387,-0.581 -0.613,-1.55 -0.613,-2.873 -10e-4,-0.839 0.096,-1.549 0.29,-2.13 z m 5.164,5.745 v -0.29 c -0.387,-0.033 -0.645,-0.098 -0.807,-0.259 -0.193,-0.129 -0.291,-0.42 -0.291,-0.839 V 99.461 l -2.324,0.387 v 0.291 c 0.389,0.064 0.646,0.129 0.809,0.258 0.225,0.161 0.322,0.452 0.322,0.839 v 3.293 h -0.033 c -0.354,-0.871 -0.936,-1.291 -1.71,-1.291 -0.968,0 -1.678,0.42 -2.162,1.259 -0.388,0.678 -0.581,1.613 -0.581,2.775 0,1.162 0.193,2.065 0.581,2.776 0.484,0.807 1.194,1.227 2.162,1.227 0.323,0 0.677,-0.129 1.033,-0.388 0.355,-0.226 0.582,-0.517 0.678,-0.839 H 98.3 v 1.227 z m 4.262,-1.033 c -0.291,0.484 -0.678,0.743 -1.195,0.743 -0.291,0 -0.549,-0.194 -0.742,-0.484 -0.162,-0.323 -0.258,-0.613 -0.258,-1.001 0,-1.098 0.871,-1.679 2.613,-1.711 v 0.969 c 0,0.58 -0.129,1.097 -0.418,1.484 z m 2.226,1 c -0.453,0 -0.646,-0.258 -0.646,-0.807 v -4.132 c 0,-0.581 -0.064,-1.065 -0.193,-1.452 -0.258,-0.807 -1,-1.227 -2.227,-1.227 -0.355,0 -0.742,0.064 -1.131,0.193 -0.902,0.29 -1.355,0.774 -1.355,1.452 0,0.517 0.26,0.743 0.711,0.743 0.484,0 0.711,-0.291 0.711,-0.872 0,-0.388 0.096,-0.646 0.289,-0.774 0.162,-0.129 0.389,-0.193 0.775,-0.193 0.355,0 0.645,0.129 0.84,0.322 0.289,0.355 0.418,1.033 0.418,2.098 v 0.613 l -1.129,0.13 a 5.833,5.833 0 0 0 -1.389,0.354 c -0.967,0.355 -1.42,1.065 -1.42,2.098 0,0.355 0.064,0.679 0.227,0.969 0.322,0.613 0.84,0.904 1.549,0.904 0.904,0 1.613,-0.42 2.098,-1.227 h 0.033 c 0,0.807 0.387,1.227 1.162,1.227 0.355,0 0.709,-0.033 1.064,-0.129 v -0.355 c -0.16,0.033 -0.291,0.065 -0.387,0.065 z m 2.42,-5.712 c 0.291,-0.84 0.711,-1.291 1.324,-1.291 0.58,0 1,0.451 1.258,1.291 0.195,0.613 0.291,1.323 0.291,2.13 0,0.807 -0.096,1.517 -0.291,2.099 -0.258,0.871 -0.678,1.291 -1.258,1.291 -0.42,0 -0.742,-0.162 -1,-0.517 -0.389,-0.581 -0.613,-1.55 -0.613,-2.873 0,-0.839 0.096,-1.549 0.289,-2.13 z m 5.164,5.745 v -0.29 c -0.387,-0.033 -0.678,-0.098 -0.807,-0.259 -0.193,-0.129 -0.322,-0.42 -0.322,-0.839 V 99.461 l -2.291,0.387 v 0.291 c 0.387,0.064 0.645,0.129 0.807,0.258 0.227,0.161 0.322,0.452 0.322,0.839 v 3.293 h -0.031 c -0.389,-0.871 -0.938,-1.291 -1.711,-1.291 -0.969,0 -1.711,0.42 -2.164,1.259 -0.387,0.678 -0.58,1.613 -0.58,2.775 0,1.162 0.193,2.065 0.58,2.776 0.453,0.807 1.195,1.227 2.164,1.227 0.322,0 0.645,-0.129 1.033,-0.388 0.354,-0.226 0.58,-0.517 0.678,-0.839 h 0.031 v 1.227 z m 6.004,-5.745 c 0.291,-0.84 0.711,-1.291 1.324,-1.291 0.58,0 1,0.451 1.291,1.291 0.16,0.613 0.258,1.323 0.258,2.13 0,0.807 -0.098,1.517 -0.258,2.099 -0.291,0.871 -0.711,1.291 -1.291,1.291 -0.42,0 -0.742,-0.162 -1.002,-0.517 -0.387,-0.581 -0.613,-1.55 -0.613,-2.873 0,-0.839 0.098,-1.549 0.291,-2.13 z m 5.164,5.745 v -0.29 c -0.387,-0.033 -0.645,-0.098 -0.807,-0.259 -0.193,-0.129 -0.291,-0.42 -0.291,-0.839 V 99.461 l -2.322,0.387 v 0.291 c 0.387,0.064 0.645,0.129 0.807,0.258 0.225,0.161 0.322,0.452 0.322,0.839 v 3.293 h -0.033 c -0.354,-0.871 -0.936,-1.291 -1.709,-1.291 -0.969,0 -1.68,0.42 -2.164,1.259 -0.387,0.678 -0.58,1.613 -0.58,2.775 0,1.162 0.193,2.065 0.58,2.776 0.484,0.807 1.195,1.227 2.164,1.227 0.322,0 0.678,-0.129 1.031,-0.388 0.355,-0.226 0.582,-0.517 0.678,-0.839 h 0.033 v 1.227 z m 1.744,-5.908 c 0.289,-0.774 0.773,-1.193 1.42,-1.193 0.355,0 0.645,0.097 0.871,0.29 0.355,0.388 0.549,0.968 0.549,1.743 h -3.002 c 0,-0.226 0.033,-0.484 0.162,-0.84 z m 2.938,5.682 c -1.002,0 -1.775,-0.452 -2.357,-1.324 -0.484,-0.807 -0.742,-1.807 -0.742,-2.969 h 4.326 v -0.355 c 0,-0.613 -0.098,-1.13 -0.324,-1.549 -0.451,-0.807 -1.193,-1.227 -2.227,-1.227 -2.002,0 -3.033,1.259 -3.033,3.809 0,0.903 0.129,1.678 0.418,2.324 0.549,1.291 1.646,1.904 3.195,1.904 0.711,0 1.324,-0.098 1.775,-0.291 v -0.549 c -0.258,0.163 -0.58,0.227 -1.031,0.227 z m 8.068,0.451 v -0.322 c -0.227,0 -0.42,-0.032 -0.549,-0.064 -0.322,-0.064 -0.484,-0.227 -0.484,-0.549 0,-0.129 0.033,-0.388 0.162,-0.775 l 0.645,-2.001 h 3.744 l 0.711,2.131 c 0.098,0.258 0.129,0.483 0.129,0.678 0,0.388 -0.355,0.581 -1.064,0.581 v 0.322 h 3.904 v -0.322 c -0.322,0 -0.58,-0.064 -0.807,-0.227 -0.355,-0.226 -0.678,-0.742 -0.936,-1.517 l -3.1,-9.264 h -0.838 l -3.1,9.135 c -0.16,0.517 -0.322,0.903 -0.451,1.162 -0.193,0.483 -0.646,0.71 -1.324,0.71 v 0.322 z m 3.324,-4.357 h -3.355 l 1.678,-5.132 z m 7.651,4.357 v -0.29 c -0.227,0 -0.42,-0.032 -0.582,-0.064 -0.354,-0.13 -0.549,-0.517 -0.549,-1.162 V 99.461 l -2.291,0.387 v 0.291 c 0.387,0.064 0.646,0.129 0.807,0.258 0.227,0.161 0.324,0.452 0.324,0.839 v 8.36 c 0,0.452 -0.098,0.774 -0.26,0.968 -0.16,0.162 -0.451,0.259 -0.871,0.259 v 0.29 h 3.422 z m 4.164,0 v -0.29 c -0.227,0 -0.42,-0.032 -0.582,-0.064 -0.387,-0.13 -0.549,-0.517 -0.549,-1.162 v -6.358 l -2.291,0.42 v 0.258 c 0.387,0.032 0.645,0.129 0.807,0.226 0.193,0.194 0.291,0.452 0.291,0.872 v 4.583 c 0,0.452 -0.098,0.774 -0.258,0.968 -0.162,0.162 -0.453,0.259 -0.84,0.259 v 0.29 h 3.422 z m -1.196,-9.715 a 0.831,0.831 0 0 0 0.258,-0.646 c 0,-0.291 -0.064,-0.517 -0.225,-0.71 a 0.884,0.884 0 0 0 -0.613,-0.259 0.875,0.875 0 0 0 -0.613,0.259 c -0.162,0.193 -0.227,0.419 -0.227,0.71 0,0.258 0.064,0.452 0.227,0.646 0.193,0.193 0.387,0.29 0.613,0.29 0.225,0.001 0.418,-0.096 0.58,-0.29 z m 6.069,9.264 a 2.828,2.828 0 0 1 -1.742,-0.581 c -1.066,-0.808 -1.582,-2.034 -1.582,-3.583 0,-0.613 0.096,-1.098 0.258,-1.518 0.291,-0.774 0.807,-1.193 1.549,-1.193 0.582,0 0.904,0.226 1.033,0.71 0.064,0.387 0.129,0.613 0.227,0.742 0.129,0.226 0.322,0.354 0.58,0.354 0.453,0 0.678,-0.258 0.678,-0.807 0,-0.581 -0.258,-1 -0.807,-1.259 -0.42,-0.193 -0.902,-0.29 -1.518,-0.29 -0.742,0 -1.355,0.129 -1.838,0.451 -0.938,0.613 -1.389,1.743 -1.389,3.325 0,1.355 0.291,2.388 0.904,3.131 0.645,0.742 1.613,1.13 2.871,1.13 0.646,0 1.162,-0.065 1.615,-0.259 v -0.484 a 2.929,2.929 0 0 1 -0.839,0.131 z m 5.133,-0.807 c -0.324,0.484 -0.711,0.743 -1.195,0.743 -0.322,0 -0.58,-0.194 -0.775,-0.484 -0.16,-0.323 -0.258,-0.613 -0.258,-1.001 0,-1.098 0.873,-1.679 2.615,-1.711 v 0.969 c -0.001,0.58 -0.13,1.097 -0.387,1.484 z m 2.193,1 c -0.418,0 -0.645,-0.258 -0.645,-0.807 v -4.132 c 0,-0.581 -0.033,-1.065 -0.193,-1.452 -0.258,-0.807 -1.002,-1.227 -2.229,-1.227 -0.354,0 -0.709,0.064 -1.098,0.193 -0.936,0.29 -1.355,0.774 -1.355,1.452 0,0.517 0.227,0.743 0.711,0.743 0.451,0 0.711,-0.291 0.711,-0.872 0,-0.388 0.064,-0.646 0.258,-0.774 0.16,-0.129 0.42,-0.193 0.773,-0.193 0.389,0 0.678,0.129 0.84,0.322 0.291,0.355 0.42,1.033 0.42,2.098 v 0.613 l -1.131,0.13 a 5.19,5.19 0 0 0 -1.355,0.354 c -0.967,0.355 -1.451,1.065 -1.451,2.098 0,0.355 0.064,0.679 0.225,0.969 0.355,0.613 0.84,0.904 1.551,0.904 0.936,0 1.646,-0.42 2.129,-1.227 h 0.033 c 0,0.807 0.355,1.227 1.129,1.227 0.389,0 0.742,-0.033 1.098,-0.129 v -0.355 c -0.194,0.033 -0.323,0.065 -0.421,0.065 z m 4.357,0.258 v -0.29 a 3,3 0 0 1 -0.613,-0.064 c -0.354,-0.13 -0.549,-0.517 -0.549,-1.162 v -2.065 c 0,-0.549 0.129,-1.065 0.324,-1.614 0.16,-0.42 0.354,-0.839 0.645,-1.194 0.324,-0.452 0.646,-0.678 1.002,-0.678 0.482,0 0.807,0.226 0.902,0.678 0.064,0.161 0.098,0.646 0.098,1.42 v 3.454 c 0,0.452 -0.098,0.774 -0.258,0.968 -0.195,0.162 -0.484,0.259 -0.904,0.259 v 0.29 h 3.453 v -0.29 c -0.227,0 -0.42,-0.032 -0.613,-0.064 -0.355,-0.13 -0.516,-0.517 -0.516,-1.162 v -3.841 c 0,-0.872 -0.098,-1.485 -0.291,-1.84 -0.227,-0.452 -0.711,-0.678 -1.42,-0.678 -1.066,0 -1.873,0.742 -2.389,2.227 h -0.033 v -2.227 l -2.291,0.42 v 0.258 c 0.387,0.032 0.646,0.129 0.84,0.226 0.193,0.194 0.291,0.452 0.291,0.872 v 4.583 c 0,0.452 -0.098,0.774 -0.26,0.968 -0.193,0.162 -0.451,0.259 -0.871,0.259 v 0.29 h 3.453 z m 7.682,-0.386 c -0.482,0 -0.838,-0.098 -1.031,-0.323 -0.195,-0.193 -0.291,-0.613 -0.291,-1.162 v -5.293 h 1.938 v -0.549 h -1.938 v -2.518 h -0.387 c 0,0.581 -0.064,1.065 -0.26,1.452 -0.289,0.71 -0.871,1.065 -1.742,1.065 v 0.549 h 1.227 v 4.841 c 0,1.001 0.098,1.679 0.355,1.97 0.291,0.354 0.936,0.517 2,0.517 0.162,0 0.42,0 0.744,-0.065 v -0.548 c -0.388,0.03 -0.582,0.064 -0.615,0.064 z m 2.1,-5.747 c 0.289,-0.774 0.773,-1.193 1.42,-1.193 0.355,0 0.645,0.097 0.871,0.29 0.355,0.388 0.549,0.968 0.549,1.743 h -3.002 c 0,-0.226 0.064,-0.484 0.162,-0.84 z m 2.937,5.682 c -0.969,0 -1.775,-0.452 -2.357,-1.324 -0.484,-0.807 -0.742,-1.807 -0.742,-2.969 h 4.357 v -0.355 c 0,-0.613 -0.129,-1.13 -0.355,-1.549 -0.451,-0.807 -1.193,-1.227 -2.227,-1.227 -2.002,0 -3.033,1.259 -3.033,3.809 0,0.903 0.16,1.678 0.418,2.324 0.549,1.291 1.646,1.904 3.195,1.904 0.711,0 1.324,-0.098 1.809,-0.291 v -0.549 c -0.258,0.163 -0.614,0.227 -1.065,0.227 z M 53.079,82.773 c 0.161,-0.323 0.549,-0.484 1.162,-0.484 v -0.322 h -3.454 v 0.322 c 0.484,0 0.839,0.129 1.033,0.291 0.193,0.194 0.258,0.549 0.258,1.098 v 5.584 c 0,1.162 -0.129,1.969 -0.419,2.485 -0.387,0.614 -1.065,0.937 -2.066,0.937 -0.452,0 -0.839,-0.097 -1.162,-0.291 -0.742,-0.452 -1.129,-1.485 -1.129,-3.099 v -5.616 c 0,-0.549 0.097,-0.904 0.291,-1.098 0.194,-0.194 0.517,-0.291 1,-0.291 v -0.322 h -3.938 v 0.322 c 0.323,0 0.549,0.033 0.742,0.097 0.387,0.129 0.581,0.549 0.581,1.292 v 5.584 c 0,0.904 0.064,1.614 0.258,2.195 0.355,1.227 1.484,1.872 3.292,1.872 1.42,0 2.356,-0.388 2.873,-1.13 0.354,-0.581 0.548,-1.582 0.548,-2.905 v -5.616 c 0,-0.42 0.032,-0.711 0.13,-0.905 z m 4.292,10.362 v -0.259 c -0.226,0 -0.419,-0.032 -0.581,-0.097 -0.355,-0.129 -0.548,-0.517 -0.548,-1.162 v -2.065 c 0,-0.517 0.097,-1.065 0.291,-1.614 0.161,-0.419 0.387,-0.807 0.646,-1.162 0.355,-0.484 0.678,-0.71 1,-0.71 0.517,0 0.807,0.226 0.936,0.678 0.032,0.162 0.065,0.646 0.065,1.42 v 3.454 c 0,0.452 -0.065,0.775 -0.259,0.969 -0.161,0.193 -0.452,0.29 -0.872,0.29 v 0.259 h 3.454 v -0.259 c -0.258,0 -0.452,-0.032 -0.613,-0.097 -0.354,-0.129 -0.548,-0.517 -0.548,-1.162 v -3.809 c 0,-0.904 -0.065,-1.517 -0.258,-1.84 -0.226,-0.484 -0.71,-0.71 -1.452,-0.71 -1.065,0 -1.84,0.742 -2.356,2.227 h -0.032 v -2.227 l -2.292,0.42 v 0.29 c 0.388,0.032 0.646,0.097 0.807,0.226 0.194,0.162 0.323,0.452 0.323,0.839 v 4.583 c 0,0.452 -0.097,0.775 -0.258,0.969 -0.194,0.193 -0.484,0.29 -0.872,0.29 v 0.259 z m 8.296,0 v -0.259 c -0.258,0 -0.452,-0.032 -0.613,-0.097 -0.355,-0.129 -0.517,-0.517 -0.517,-1.162 v -6.358 l -2.324,0.42 v 0.29 c 0.387,0.032 0.678,0.097 0.839,0.226 0.194,0.162 0.291,0.452 0.291,0.839 v 4.583 c 0,0.452 -0.097,0.775 -0.258,0.969 -0.162,0.193 -0.452,0.29 -0.872,0.29 v 0.259 z m -1.195,-9.716 c 0.161,-0.161 0.258,-0.387 0.258,-0.646 0,-0.259 -0.064,-0.517 -0.226,-0.678 a 0.793,0.793 0 0 0 -0.613,-0.291 0.748,0.748 0 0 0 -0.613,0.291 c -0.161,0.161 -0.258,0.419 -0.258,0.678 0,0.259 0.097,0.484 0.258,0.646 a 0.753,0.753 0 0 0 0.613,0.291 0.738,0.738 0 0 0 0.581,-0.291 z m 5.326,9.909 2.098,-6.133 c 0.193,-0.549 0.355,-0.904 0.484,-1.065 0.193,-0.226 0.516,-0.388 0.968,-0.42 v -0.29 h -2.711 v 0.29 c 0.452,0.032 0.678,0.226 0.678,0.581 0,0.129 -0.032,0.387 -0.161,0.71 L 69.669,91.52 67.958,86.937 A 1.802,1.802 0 0 1 67.764,86.13 c 0,-0.258 0.226,-0.42 0.646,-0.42 v -0.29 h -3.163 v 0.29 c 0.291,0 0.549,0.065 0.743,0.226 0.258,0.194 0.548,0.613 0.807,1.323 l 2.291,6.068 h 0.71 z m 4.454,-6.294 c 0.258,-0.807 0.743,-1.227 1.42,-1.227 0.355,0 0.613,0.129 0.839,0.323 0.387,0.355 0.581,0.936 0.581,1.743 h -3.034 c 10e-4,-0.226 0.065,-0.516 0.194,-0.839 z m 2.905,5.649 c -0.968,0 -1.775,-0.42 -2.324,-1.323 -0.516,-0.807 -0.774,-1.775 -0.774,-2.938 h 4.357 v -0.387 c 0,-0.613 -0.129,-1.13 -0.355,-1.549 -0.452,-0.807 -1.194,-1.227 -2.195,-1.227 -2.033,0 -3.034,1.291 -3.034,3.809 0,0.937 0.129,1.71 0.419,2.324 0.549,1.291 1.614,1.937 3.195,1.937 0.678,0 1.291,-0.129 1.775,-0.323 v -0.517 c -0.257,0.129 -0.612,0.194 -1.064,0.194 z m 5.39,0.452 v -0.259 c -0.226,0 -0.42,-0.032 -0.581,-0.097 -0.388,-0.129 -0.549,-0.517 -0.549,-1.162 V 89.1 c 0,-0.871 0.129,-1.582 0.452,-2.065 0.258,-0.42 0.484,-0.613 0.678,-0.613 0.032,0 0.161,0.064 0.355,0.193 0.194,0.129 0.355,0.194 0.484,0.194 0.484,0 0.743,-0.258 0.743,-0.775 a 0.781,0.781 0 0 0 -0.226,-0.549 0.644,0.644 0 0 0 -0.517,-0.226 c -0.903,0 -1.549,0.613 -1.937,1.808 h -0.032 v -1.808 l -2.292,0.42 v 0.29 c 0.387,0.032 0.646,0.097 0.807,0.226 0.194,0.129 0.291,0.452 0.291,0.839 v 4.583 c 0,0.452 -0.097,0.775 -0.258,0.969 -0.162,0.193 -0.452,0.29 -0.839,0.29 v 0.259 z m 6.359,-7.586 a 4.874,4.874 0 0 0 -1.711,-0.291 c -0.71,0 -1.291,0.162 -1.71,0.452 -0.517,0.355 -0.775,0.904 -0.775,1.646 0,0.613 0.258,1.129 0.775,1.582 0.194,0.161 0.549,0.387 1.065,0.678 0.484,0.291 0.839,0.517 1.033,0.678 0.419,0.355 0.613,0.742 0.613,1.098 0,0.419 -0.161,0.742 -0.484,1 -0.291,0.258 -0.613,0.387 -0.968,0.387 -0.936,0 -1.517,-0.549 -1.775,-1.614 h -0.387 l 0.129,1.84 a 5.474,5.474 0 0 0 1.905,0.323 c 0.774,0 1.388,-0.193 1.872,-0.484 0.581,-0.42 0.904,-1 0.904,-1.775 0,-0.549 -0.129,-1 -0.355,-1.355 -0.193,-0.258 -0.548,-0.549 -1.033,-0.872 A 686.92,686.92 0 0 1 86.552,87.97 c -0.452,-0.322 -0.678,-0.678 -0.678,-1.097 0,-0.258 0.064,-0.452 0.193,-0.613 0.226,-0.291 0.581,-0.452 1.065,-0.452 0.775,0 1.291,0.517 1.485,1.517 h 0.388 z m 4.583,7.586 v -0.259 c -0.226,0 -0.419,-0.032 -0.581,-0.097 -0.355,-0.129 -0.549,-0.517 -0.549,-1.162 v -6.358 l -2.292,0.42 v 0.29 c 0.387,0.032 0.646,0.097 0.807,0.226 0.194,0.162 0.323,0.452 0.323,0.839 v 4.583 c 0,0.452 -0.097,0.775 -0.258,0.969 -0.194,0.193 -0.484,0.29 -0.872,0.29 v 0.259 z m -1.162,-9.716 c 0.162,-0.161 0.258,-0.387 0.258,-0.646 0,-0.259 -0.097,-0.517 -0.258,-0.678 a 0.75,0.75 0 0 0 -0.613,-0.291 0.793,0.793 0 0 0 -0.613,0.291 c -0.161,0.161 -0.226,0.419 -0.226,0.678 0,0.259 0.097,0.484 0.259,0.646 0.161,0.193 0.354,0.291 0.581,0.291 a 0.753,0.753 0 0 0 0.612,-0.291 z m 5.036,9.36 c -0.485,0 -0.84,-0.129 -1.034,-0.323 -0.194,-0.226 -0.291,-0.613 -0.291,-1.162 v -5.293 h 1.938 V 85.42 h -1.938 v -2.518 h -0.387 c 0,0.581 -0.065,1.065 -0.226,1.453 -0.323,0.71 -0.904,1.065 -1.743,1.065 v 0.581 h 1.194 v 4.81 c 0,1.033 0.129,1.678 0.355,1.969 0.291,0.355 0.969,0.549 2.034,0.549 0.129,0 0.387,-0.032 0.711,-0.097 v -0.548 c -0.355,0.063 -0.548,0.095 -0.613,0.095 z m 4.809,-0.871 c -0.322,0.484 -0.711,0.71 -1.227,0.71 -0.291,0 -0.549,-0.162 -0.742,-0.484 a 1.966,1.966 0 0 1 -0.258,-0.968 c 0,-1.13 0.871,-1.678 2.613,-1.743 v 0.968 c 10e-4,0.581 -0.128,1.097 -0.386,1.517 z m 2.195,0.968 c -0.42,0 -0.646,-0.258 -0.646,-0.807 v -4.132 c 0,-0.581 -0.064,-1.065 -0.193,-1.42 -0.258,-0.839 -1,-1.259 -2.227,-1.259 -0.355,0 -0.742,0.064 -1.131,0.193 -0.902,0.291 -1.355,0.775 -1.355,1.453 0,0.517 0.258,0.775 0.711,0.775 0.484,0 0.709,-0.323 0.709,-0.904 0,-0.387 0.098,-0.613 0.291,-0.775 0.162,-0.097 0.42,-0.193 0.775,-0.193 0.354,0 0.645,0.129 0.838,0.355 0.291,0.323 0.42,1 0.42,2.066 v 0.645 l -1.129,0.129 c -0.518,0.064 -0.969,0.161 -1.389,0.323 -0.936,0.355 -1.42,1.065 -1.42,2.098 0,0.354 0.064,0.678 0.227,0.968 0.322,0.613 0.838,0.936 1.549,0.936 0.936,0 1.613,-0.42 2.131,-1.259 h 0.031 c 0,0.839 0.355,1.259 1.131,1.259 0.354,0 0.709,-0.064 1.098,-0.162 V 92.81 a 1.183,1.183 0 0 1 -0.421,0.066 z m 4.164,-0.097 c -0.484,0 -0.84,-0.129 -1.033,-0.323 -0.193,-0.226 -0.291,-0.613 -0.291,-1.162 v -5.293 h 1.936 V 85.42 h -1.936 v -2.518 h -0.387 c 0,0.581 -0.064,1.065 -0.227,1.453 -0.322,0.71 -0.904,1.065 -1.775,1.065 v 0.581 h 1.227 v 4.81 c 0,1.033 0.129,1.678 0.355,1.969 0.291,0.355 0.969,0.549 2.033,0.549 0.129,0 0.387,-0.032 0.709,-0.097 v -0.548 c -0.353,0.063 -0.546,0.095 -0.611,0.095 z m 6.649,-5.616 c 0.291,-0.839 0.709,-1.259 1.322,-1.259 0.582,0 1.002,0.42 1.291,1.291 0.162,0.581 0.26,1.291 0.26,2.098 0,0.807 -0.098,1.518 -0.26,2.099 -0.289,0.871 -0.709,1.291 -1.291,1.291 -0.418,0 -0.742,-0.162 -1,-0.484 -0.387,-0.581 -0.613,-1.549 -0.613,-2.905 0,-0.84 0.097,-1.518 0.291,-2.131 z m 5.164,5.745 v -0.29 c -0.387,-0.032 -0.646,-0.097 -0.807,-0.226 -0.193,-0.162 -0.291,-0.452 -0.291,-0.872 V 81.482 l -2.324,0.419 v 0.258 c 0.389,0.064 0.646,0.129 0.807,0.291 0.227,0.161 0.324,0.419 0.324,0.807 v 3.292 h -0.033 c -0.355,-0.871 -0.936,-1.291 -1.711,-1.291 -0.969,0 -1.678,0.42 -2.162,1.259 -0.387,0.71 -0.58,1.646 -0.58,2.775 0,1.163 0.193,2.066 0.58,2.776 0.484,0.839 1.193,1.259 2.162,1.259 0.322,0 0.678,-0.162 1.033,-0.388 0.355,-0.258 0.582,-0.548 0.678,-0.871 h 0.033 v 1.259 z m 2.195,-8.036 c 0.42,-0.614 0.613,-1.259 0.613,-1.904 0,-0.775 -0.324,-1.162 -0.938,-1.162 -0.258,0 -0.451,0.097 -0.645,0.258 -0.162,0.161 -0.227,0.387 -0.227,0.678 0,0.258 0.033,0.452 0.193,0.613 0.064,0.097 0.227,0.193 0.484,0.258 0.193,0.033 0.291,0.129 0.291,0.259 0,0.484 -0.258,1 -0.711,1.549 h 0.484 c 0.132,-0.098 0.294,-0.291 0.456,-0.549 z m 4.26,8.263 v -0.323 c -0.193,0 -0.387,0 -0.549,-0.032 -0.322,-0.097 -0.484,-0.258 -0.484,-0.549 0,-0.161 0.033,-0.419 0.162,-0.807 l 0.645,-1.969 h 3.744 l 0.711,2.098 c 0.098,0.258 0.129,0.484 0.129,0.71 0,0.355 -0.355,0.549 -1.064,0.549 v 0.323 h 3.904 v -0.323 c -0.322,0 -0.58,-0.064 -0.807,-0.226 -0.355,-0.226 -0.678,-0.71 -0.936,-1.485 l -3.098,-9.295 h -0.84 l -3.1,9.134 c -0.16,0.517 -0.322,0.904 -0.418,1.162 -0.227,0.484 -0.678,0.71 -1.357,0.71 v 0.323 z m 3.324,-4.358 h -3.355 l 1.678,-5.1 z m 7.522,4.358 v -0.259 c -0.258,0 -0.453,-0.032 -0.613,-0.097 -0.355,-0.129 -0.518,-0.517 -0.518,-1.162 V 81.482 l -2.322,0.419 v 0.258 c 0.387,0.064 0.678,0.129 0.838,0.258 0.193,0.161 0.291,0.452 0.291,0.839 v 8.359 c 0,0.452 -0.064,0.775 -0.227,0.969 -0.193,0.193 -0.484,0.29 -0.902,0.29 v 0.259 h 3.453 z m 3.937,-1.227 c -0.322,0.484 -0.711,0.71 -1.195,0.71 -0.322,0 -0.58,-0.162 -0.773,-0.484 a 1.966,1.966 0 0 1 -0.258,-0.968 c 0,-1.13 0.871,-1.678 2.613,-1.743 v 0.968 c 0,0.581 -0.129,1.097 -0.387,1.517 z m 2.195,0.968 c -0.42,0 -0.613,-0.258 -0.613,-0.807 v -4.132 c 0,-0.581 -0.064,-1.065 -0.195,-1.42 -0.289,-0.839 -1,-1.259 -2.227,-1.259 -0.387,0 -0.742,0.064 -1.129,0.193 -0.904,0.291 -1.355,0.775 -1.355,1.453 0,0.517 0.225,0.775 0.709,0.775 0.453,0 0.711,-0.323 0.711,-0.904 0,-0.387 0.064,-0.613 0.258,-0.775 0.162,-0.097 0.42,-0.193 0.775,-0.193 0.387,0 0.678,0.129 0.871,0.355 0.258,0.323 0.387,1 0.387,2.066 v 0.645 l -1.129,0.129 a 5.876,5.876 0 0 0 -1.355,0.323 c -0.969,0.355 -1.453,1.065 -1.453,2.098 0,0.354 0.098,0.678 0.258,0.968 0.324,0.613 0.84,0.936 1.518,0.936 0.936,0 1.646,-0.42 2.131,-1.259 h 0.031 c 0,0.839 0.389,1.259 1.131,1.259 0.387,0 0.742,-0.064 1.096,-0.162 V 92.81 c -0.195,0.066 -0.324,0.066 -0.42,0.066 z m 5.325,-0.193 a 2.83,2.83 0 0 1 -1.742,-0.581 c -1.033,-0.807 -1.549,-2.001 -1.549,-3.583 0,-0.613 0.064,-1.097 0.227,-1.517 0.289,-0.775 0.807,-1.194 1.549,-1.194 0.58,0 0.936,0.258 1.033,0.742 0.064,0.355 0.16,0.581 0.225,0.71 0.129,0.226 0.324,0.355 0.582,0.355 0.451,0 0.709,-0.258 0.709,-0.807 0,-0.581 -0.289,-1 -0.838,-1.259 -0.42,-0.194 -0.904,-0.291 -1.518,-0.291 -0.742,0 -1.355,0.162 -1.84,0.452 -0.936,0.614 -1.389,1.743 -1.389,3.357 0,1.323 0.324,2.356 0.938,3.099 0.645,0.774 1.58,1.162 2.871,1.162 0.613,0 1.162,-0.097 1.582,-0.291 v -0.484 a 2.96,2.96 0 0 1 -0.84,0.13 z m 5.423,-0.775 c -0.291,0.484 -0.678,0.71 -1.195,0.71 -0.289,0 -0.549,-0.162 -0.742,-0.484 a 1.987,1.987 0 0 1 -0.258,-0.968 c 0,-1.13 0.871,-1.678 2.615,-1.743 v 0.968 c 0,0.581 -0.131,1.097 -0.42,1.517 z m 2.227,0.968 c -0.42,0 -0.645,-0.258 -0.645,-0.807 v -4.132 c 0,-0.581 -0.066,-1.065 -0.195,-1.42 -0.258,-0.839 -1,-1.259 -2.227,-1.259 a 3.61,3.61 0 0 0 -1.129,0.193 c -0.904,0.291 -1.355,0.775 -1.355,1.453 0,0.517 0.258,0.775 0.709,0.775 0.484,0 0.711,-0.323 0.711,-0.904 0,-0.387 0.096,-0.613 0.289,-0.775 0.162,-0.097 0.389,-0.193 0.775,-0.193 0.355,0 0.646,0.129 0.84,0.355 0.289,0.323 0.42,1 0.42,2.066 v 0.645 l -1.131,0.129 c -0.516,0.064 -0.969,0.161 -1.387,0.323 -0.969,0.355 -1.422,1.065 -1.422,2.098 0,0.354 0.066,0.678 0.227,0.968 0.322,0.613 0.84,0.936 1.549,0.936 0.904,0 1.615,-0.42 2.131,-1.259 0,0.839 0.387,1.259 1.162,1.259 a 3.99,3.99 0 0 0 1.064,-0.162 V 92.81 c -0.159,0.066 -0.288,0.066 -0.386,0.066 z m 4.615,0.259 v -0.259 c -0.225,0 -0.42,-0.032 -0.58,-0.097 -0.355,-0.129 -0.549,-0.517 -0.549,-1.162 v -2.065 c 0,-0.517 0.129,-1.065 0.322,-1.614 0.162,-0.419 0.355,-0.807 0.613,-1.162 0.355,-0.484 0.678,-0.71 1,-0.71 0.518,0 0.807,0.226 0.938,0.678 0.064,0.162 0.064,0.646 0.064,1.42 v 3.454 c 0,0.452 -0.064,0.775 -0.227,0.969 -0.193,0.193 -0.484,0.29 -0.904,0.29 v 0.259 h 3.455 v -0.259 c -0.26,0 -0.453,-0.032 -0.615,-0.097 -0.354,-0.129 -0.516,-0.517 -0.516,-1.162 v -3.809 c 0,-0.904 -0.096,-1.517 -0.291,-1.84 -0.225,-0.484 -0.709,-0.71 -1.451,-0.71 -1.066,0 -1.84,0.742 -2.357,2.227 h -0.031 v -2.227 l -2.293,0.42 v 0.29 c 0.389,0.032 0.646,0.097 0.809,0.226 0.193,0.162 0.322,0.452 0.322,0.839 v 4.583 c 0,0.452 -0.098,0.775 -0.258,0.969 -0.195,0.193 -0.484,0.29 -0.873,0.29 v 0.259 z m 7.553,-0.356 c -0.484,0 -0.838,-0.129 -1.033,-0.323 -0.193,-0.226 -0.289,-0.613 -0.289,-1.162 v -5.293 h 1.936 V 85.42 h -1.936 v -2.518 h -0.389 c 0,0.581 -0.064,1.065 -0.225,1.453 -0.324,0.71 -0.904,1.065 -1.775,1.065 v 0.581 h 1.227 v 4.81 c 0,1.033 0.129,1.678 0.355,1.969 0.289,0.355 0.967,0.549 2.033,0.549 0.129,0 0.387,-0.032 0.709,-0.097 v -0.548 a 6.223,6.223 0 0 1 -0.613,0.095 z" />
</svg>
