<?xml version="1.0" encoding="UTF-8" standalone="no"?>
<svg
   xmlns:dc="http://purl.org/dc/elements/1.1/"
   xmlns:cc="http://creativecommons.org/ns#"
   xmlns:rdf="http://www.w3.org/1999/02/22-rdf-syntax-ns#"
   xmlns:svg="http://www.w3.org/2000/svg"
   xmlns="http://www.w3.org/2000/svg"
   xmlns:sodipodi="http://sodipodi.sourceforge.net/DTD/sodipodi-0.dtd"
   xmlns:inkscape="http://www.inkscape.org/namespaces/inkscape"
   width="2279.4363"
   height="655.88098"
   viewBox="0 0 175.75001 50.569998"
   version="1.1"
   id="svg24"
   sodipodi:docname="logoua.svg"
   inkscape:version="0.92.3 (2405546, 2018-03-11)">
  <metadata
     id="metadata30">
    <rdf:RDF>
      <cc:Work
         rdf:about="">
        <dc:format>image/svg+xml</dc:format>
        <dc:type
           rdf:resource="http://purl.org/dc/dcmitype/StillImage" />
        <dc:title></dc:title>
      </cc:Work>
    </rdf:RDF>
  </metadata>
  <defs
     id="defs28" />
  <sodipodi:namedview
     pagecolor="#ffffff"
     bordercolor="#666666"
     borderopacity="1"
     objecttolerance="10"
     gridtolerance="10"
     guidetolerance="10"
     inkscape:pageopacity="0"
     inkscape:pageshadow="2"
     inkscape:window-width="1656"
     inkscape:window-height="697"
     id="namedview26"
     showgrid="false"
     fit-margin-top="0"
     fit-margin-left="0"
     fit-margin-right="0"
     fit-margin-bottom="0"
     inkscape:zoom="0.46195632"
     inkscape:cx="1139.7181"
     inkscape:cy="327.94049"
     inkscape:window-x="0"
     inkscape:window-y="30"
     inkscape:window-maximized="0"
     inkscape:current-layer="svg24" />
  <g
     id="g859"
     transform="translate(-8.502,-71.093)">
    <path
       d="m 8.504,71.093 h 50.445 v 50.57 H 8.504 Z"
       id="path4"
       inkscape:connector-curvature="0"
       style="clip-rule:evenodd;fill:#d7ddd8;fill-rule:evenodd" />
    <path
       d="m 22.703,79.812 36.246,31.886 v 9.965 H 8.504 v -7.225 z"
       id="path6"
       inkscape:connector-curvature="0"
       style="clip-rule:evenodd;fill:#ffffff;fill-rule:evenodd" />
    <path
       d="m 31.796,97.374 0.125,0.374 h 0.623 v 0.249 l 0.374,-0.124 0.125,0.498 0.249,0.124 0.125,-0.249 0.25,0.623 c 0.124,-0.124 0.872,0.623 0.872,0.747 h 0.249 l 0.125,0.374 h 0.374 c 0,0.498 1.121,1.121 1.494,1.619 h 0.125 v 0.623 c -1.121,-0.125 -6.727,-0.125 -7.723,0.124 v -0.124 l -0.374,0.124 v -0.124 l -0.125,0.249 h -1.246 c 0.125,-0.249 -0.374,-0.125 -0.249,0 a 1.06,1.06 0 0 0 -0.872,0 v -0.249 l -0.374,0.249 -0.125,-0.249 -0.124,0.249 h -0.872 l -0.125,-0.249 c 0,0 -0.249,0.498 -0.249,0.124 h -1.495 v -0.871 l 0.249,0.124 c 0.125,-0.249 0.249,-0.747 0.125,-1.121 h 0.249 c 0.125,-0.498 0.374,-1.121 0.374,-1.619 h 0.125 c 0.249,-0.124 0.374,-0.374 0.249,-0.623 h 0.125 l 0.125,-0.249 c 0.249,-0.124 0.623,-0.249 0.872,-0.249 v 0.249 l 0.125,-0.249 c 0.374,0 0.623,0.374 0.872,0.249 0,-0.373 1.121,-0.249 1.246,-0.249 l 0.374,-0.124 c 0,-0.125 0.374,0.124 0.125,0.124 l 0.374,0.249 0.125,-0.249 c 0.498,-0.249 0.872,0 1.37,-0.124 l 0.124,0.249 0.623,0.124 0.125,-0.249 0.25,0.249 0.249,-0.249 v -0.124 l 0.125,-0.125 v 0.125 z"
       id="path8"
       inkscape:connector-curvature="0"
       style="clip-rule:evenodd;fill:#f4cf53;fill-rule:evenodd" />
    <path
       d="m 43.628,107.339 c 0,0 -0.124,0.249 0.125,0.249 l 0.124,0.125 c 0.25,-0.125 0.125,0 0.125,0 l 0.125,0.124 0.125,0.25 H 44.5 l 0.125,0.124 c 0,0 0.125,0.125 0.249,0.374 0,0.124 0.25,0.373 0.25,0.373 l 0.124,-0.124 h 0.125 c 0,0 0.124,0.124 0.374,0.249 0.125,0.125 0,0.249 0.249,0.249 l 0.374,0.249 -0.249,0.125 0.374,0.249 c 0,0.373 0.374,0.249 0.374,0.249 0,0 0.125,0.124 0,0.249 -0.125,0.124 -0.125,0.249 -0.125,0.249 0,0 -0.125,0.374 0,0.498 0,0.249 0.125,0.498 0.125,0.498 0,0 -0.374,0 -0.748,-0.249 L 45.747,111.2 c -0.125,-0.249 -0.25,-0.124 -0.25,-0.124 l -0.124,0.249 c -0.125,-0.125 -0.249,-0.249 -0.872,-0.125 -0.623,0.249 -0.374,0.125 -0.623,0.125 0,0 -0.249,0.124 -0.498,0 -0.249,-0.125 -0.374,-0.249 -0.374,-0.249 l -0.374,0.249 -0.374,0.124 -0.498,-0.124 -0.374,0.124 -0.125,-0.249 h -0.374 l -0.249,0.125 -0.125,-0.249 c -0.499,0.249 -0.249,0.249 -0.623,0.249 h -0.249 l -0.125,-0.125 -0.249,-0.124 v 0.249 c -0.124,-0.125 -0.623,-0.125 -0.996,0 H 37.897 L 37.65,111.2 h -0.249 c -0.125,0.125 -0.374,0 -0.374,0 l -0.374,0.125 -0.498,-0.125 c -0.125,0 0.25,0.249 -0.374,0 l -0.249,-0.124 c -0.249,0.373 -0.623,0.249 -0.623,0.249 H 32.168 V 111.2 l -0.125,0.125 c -0.748,0.124 -0.872,0 -2.242,-0.249 -0.249,0.249 -0.249,0.373 -0.498,0.249 l -0.249,-0.249 -0.125,0.249 c 0,0 -0.997,-0.125 -0.623,-0.125 l -0.125,-0.124 -0.125,0.124 -0.498,0.125 c -0.125,-0.125 -0.249,0 -0.499,0 L 26.934,111.2 26.685,111.325 26.56,111.2 v -0.124 l -0.125,0.249 h -1.121 c -0.374,-0.125 -0.498,0 -0.498,0 l -0.125,-0.249 -0.249,0.249 h -0.374 l -0.25,-0.125 -0.623,0.125 c 0,0 -0.374,-0.249 -0.623,-0.125 -0.249,0.249 -0.498,0 -0.623,0.125 -0.125,0.124 -0.997,-0.125 -1.121,-0.125 l -0.25,0.125 -0.373,-0.125 h -0.374 l -0.125,-0.124 h -0.498 c 0,0 0.125,-0.125 0.125,-0.374 l 0.125,-0.498 0.125,-0.374 0.125,-0.124 v -0.374 l 0.125,-0.623 0.498,-0.249 -0.124,-0.124 v -0.249 l 0.124,-0.125 c 0.249,-0.374 0.623,-0.872 0.748,-1.495 l 0.498,-0.124 c 0.623,0.249 0.499,0.249 0.623,0 l 0.498,0.249 0.374,-0.249 0.25,0.124 h 0.872 v -0.124 c 0.374,0 0.623,-0.125 0.872,0.124 0.125,0 0.374,0.125 0.498,0.125 0.125,-0.125 0.499,-0.125 0.623,0 l 0.374,0.124 c 0.125,-0.124 0.498,-0.124 0.748,-0.124 0.125,0 0.498,0.124 0.747,-0.125 0.249,0 0.249,-0.124 0.249,-0.124 l 0.374,0.124 c 0,0 0.872,0 1.246,-0.124 h 1.121 l 0.374,0.124 c 0,0 0.374,0.125 0.374,0 h 0.498 l 0.249,-0.124 c 0.374,0 0.623,0.124 0.872,0.124 l 0.125,-0.124 0.374,0.124 0.747,-0.124 0.249,0.124 c 0.249,0.125 0.623,0.125 0.872,-0.124 0,0.249 0.374,-0.125 0.374,0 0,0.249 0.25,0.124 0.25,0.124 l 1.121,-0.124 h 0.872 l 0.499,-0.125 h 1.122 l 1.744,-0.124 c 0.125,0.124 -0.249,0.373 0.125,0.249 0.249,0 0.125,0.249 0.374,0.124 l 0.249,0.125 0.125,0.124 0.249,0.249 c 0,0 0.125,0 0.498,0.125 l 0.125,0.124 z"
       id="path10"
       inkscape:connector-curvature="0"
       style="clip-rule:evenodd;fill:#d9782d;fill-rule:evenodd" />
    <path
       d="m 14.607,120.791 0.498,-0.249 -0.124,-0.249 c 0.124,-0.249 0.498,-0.498 0.498,-0.872 0.249,-0.498 0.249,-0.996 0.747,-1.245 v -0.872 c 0,-0.249 0.125,-0.498 0.374,-0.498 h 1.619 l 0.249,0.124 c 0.623,0 0.997,-0.249 1.744,-0.249 l 0.249,0.125 c 1.246,0 1.993,-0.125 3.238,0 l 0.249,0.124 c 0.374,0 0.623,-0.249 0.997,-0.249 0.125,0 0.249,0.125 0.374,0.125 0.249,0 0.374,-0.125 0.623,-0.125 0.249,0 0.374,0.125 0.747,0.125 0.125,0 0.249,-0.125 0.499,-0.125 l 0.125,-0.125 0.249,0.25 c 0.249,0 0.374,-0.25 0.498,-0.374 0.249,0.124 0.374,0.374 0.623,0.374 0.374,0 0.747,-0.125 0.872,-0.374 l 0.125,0.249 h 0.748 l 0.249,-0.249 0.249,0.124 0.125,-0.124 v 0.249 h 2.367 l 0.25,0.125 0.249,-0.125 0.249,0.125 0.249,-0.125 h 1.619 c 0.125,0 0.249,0.125 0.374,0.125 0.249,0 0.249,-0.125 0.498,-0.125 l 0.249,0.125 0.249,-0.125 c 0.249,0 0.249,0.125 0.498,0.125 0.249,0 0.374,-0.25 0.623,-0.25 0.249,0 0.374,0.25 0.623,0.25 l 0.373,-0.125 0.25,0.125 c 0.125,0 0.249,-0.125 0.374,-0.125 0.249,0 0.498,0.125 0.747,0.125 0.249,0 0.374,-0.125 0.499,-0.25 1.246,0 1.868,-0.124 3.114,0.125 l 0.249,0.125 0.249,-0.125 0.374,0.125 0.124,-0.25 c 0.125,0.125 0.25,0.25 0.374,0.25 L 46,116.681 c 0.25,0 0.374,0.125 0.498,0.125 0.25,0 0.374,-0.125 0.623,-0.125 l 0.125,0.125 0.249,-0.125 0.249,0.125 h 0.499 l 0.374,-0.125 0.125,0.125 c 0.25,0 0.374,-0.125 0.498,-0.125 l 0.25,0.125 0.249,-0.125 h 4.11 c 0.374,0.498 0.747,0.996 1.37,0.872 0,0.249 0.374,0.374 0.498,0.623 0.249,0.249 0.374,0.498 0.748,0.498 0,0.498 0.249,0.622 0.623,0.996 0.374,0.374 0.249,0.498 0.747,0.997 l 0.623,0.622 0.498,0.374 H 14.607 Z"
       id="path12"
       inkscape:connector-curvature="0"
       style="clip-rule:evenodd;fill:#d7ddd8;fill-rule:evenodd" />
    <path
       d="M 58.451,110.951 Z M 18.966,86.538 Z m 1.246,-2.366 h -0.125 z m 35.249,26.156 h -0.249 v -0.249 h -0.374 v -0.373 l -0.25,0.124 v -0.249 l -0.373,-0.373 H 54.09 l -0.249,-0.25 -0.125,-0.373 c 0,0 -0.125,0 -0.374,-0.125 v 0.125 l -0.125,-0.125 h -0.125 v -0.124 H 52.97 c -0.498,-0.748 -0.498,-0.249 -0.747,-0.499 v -0.373 0.124 c -0.25,-0.124 -0.374,-0.374 -0.499,-0.623 -0.125,0.125 -0.623,-0.498 -0.997,-0.747 h -0.124 v -0.124 h -0.25 l -0.125,-0.249 h 0.125 l -0.374,-0.125 c 0.125,-0.125 -0.748,-0.623 -0.374,-0.623 h -0.249 v -0.124 c -0.125,0 -0.25,0 -0.499,-0.125 v -0.374 l -0.125,0.25 c -0.249,-0.374 -0.374,-0.499 -0.498,-0.623 l -0.125,-0.125 c -0.125,-0.124 -0.374,-0.249 -0.623,-0.498 l -0.249,-0.373 h -0.374 l -0.374,-0.748 -0.125,-0.124 -0.124,0.124 c -0.374,-0.498 -0.748,-0.623 -1.246,-0.996 l -0.125,0.125 -0.125,-0.374 -0.249,0.124 0.125,-0.373 -0.249,-0.249 c 0,0.747 -0.249,-0.623 -0.748,-0.499 l -0.124,-0.373 -0.25,-0.249 -0.125,-0.125 h -0.125 v -0.124 0.249 H 42.874 C 42.749,99.368 42.749,98.994 42.5,99.119 L 42.376,98.87 h -0.125 l -0.125,-0.249 h 0.125 L 42.002,98.372 C 41.628,98.247 41.504,97.998 41.13,97.874 l -0.124,0.124 v -0.373 c -0.249,0 -1.246,-0.997 -1.37,-0.997 v -0.125 c -0.125,0 -0.374,0 -0.498,-0.248 L 39.02,95.88 h -0.249 v -0.125 l -0.125,-0.249 -0.125,-0.125 c -0.249,0.125 -0.623,-0.374 -0.997,-0.748 v 0.125 c -0.25,-0.249 -0.623,-0.872 -0.872,-0.872 L 36.527,93.761 H 36.28 V 93.512 L 36.155,93.387 36.03,93.262 V 93.14 h -0.125 v 0.125 H 35.78 V 93.14 c 0,0 0.125,0 0,-0.125 -0.125,-0.25 -0.374,-0.125 -0.498,0 -0.125,-0.125 -0.125,-0.623 -0.374,-0.748 0,0 -0.747,0 -0.623,-0.374 L 34.16,91.768 V 91.643 H 33.911 V 91.269 L 33.662,91.02 c 0,0.124 -0.125,0.374 -0.25,0.124 l 0.125,-0.249 -0.125,-0.124 -0.125,0.249 -0.249,-0.374 h -0.125 l -0.249,-0.249 h -0.125 v -0.372 c -0.125,0 -0.374,-0.249 -0.498,-0.374 l -0.623,-0.25 -0.125,-0.249 c -0.124,-0.125 -0.374,-0.374 -0.498,-0.374 l -0.249,-0.249 h -0.125 l -0.25,-0.249 v -0.249 l -0.124,0.124 -0.125,-0.124 H 29.797 C 29.672,87.906 29.423,87.781 29.299,87.657 28.925,87.532 28.925,86.785 28.551,86.91 28.427,86.412 27.804,86.412 27.804,86.038 27.555,85.789 27.306,85.54 26.807,85.166 h -0.249 v -0.374 l -0.125,0.125 v -0.125 h -0.125 v -0.374 l -0.125,0.249 -0.125,-0.498 c 0,0.498 -0.872,-0.249 -0.872,-0.374 l 0.125,-0.124 -0.249,0.124 -0.249,-0.124 v -0.25 h -0.125 v 0.25 c -0.125,0 -0.125,-0.374 -0.125,-0.623 l -0.125,-0.125 v 0.125 H 24.313 C 24.188,82.923 24.188,82.55 24.188,82.425 23.939,82.799 23.69,81.802 23.316,82.052 l -0.25,-0.374 c -0.498,0.872 -0.872,2.242 -1.245,3.114 v 0.499 c -0.498,0.249 -0.125,0.498 -0.374,0.872 l -0.124,-0.125 -0.125,0.249 -0.498,0.997 -0.249,0.374 0.374,-0.125 -1.121,2.616 c 0.125,0.374 -0.249,0.623 -0.249,0.996 -0.249,0.499 -0.499,0.997 -0.748,1.37 l -0.623,1.371 -0.125,0.125 0.125,0.125 C 17.586,94.51 17.71,94.51 17.71,95.008 l -0.249,0.125 0.125,0.623 c -0.499,0 0,0.623 -0.374,0.747 l -0.125,-0.124 -0.124,0.124 c 0,0.125 -0.125,0.623 -0.125,0.872 L 16.6,97.748 c -0.623,1.245 -1.246,3.487 -1.495,3.737 -0.124,0.124 0,0.373 -0.124,0.622 l -0.125,0.249 v 0.249 h 0.125 c 0,0.125 -0.249,0.249 -0.249,0.374 h 0.125 l -0.25,0.249 c 0,0.249 -0.125,0.498 -0.249,0.747 0.249,0.125 -0.747,0.623 -0.374,0.748 l -0.374,0.747 c -0.125,0.249 -0.374,0.623 -0.249,1.121 -0.374,0 -0.374,0.747 -0.499,0.872 0,0 -0.125,0.249 -0.374,0.249 v 0.124 h 0.125 -0.123 c 0,0.25 -0.374,1.619 -0.623,1.619 v 0.374 c -0.124,-0.124 -0.249,0.125 0,0 l -0.124,0.249 v 0.125 l -0.25,0.249 0.125,0.124 h -0.125 l -0.125,0.125 -0.125,0.249 h 0.125 l -0.125,0.249 c 0,0 -0.249,0.623 -0.249,0.374 l -0.125,0.498 h -0.125 v 0.374 -0.125 l -0.124,0.498 -0.125,-0.124 v 0.249 c -0.125,0.373 -0.498,0.498 -0.498,0.872 0,0.249 0.125,0.373 0,0.498 -0.374,0.498 -1.246,2.366 -1.495,2.989 v -4.484 c 0.125,-0.249 0.374,-0.623 0.499,-0.996 0,0.124 -0.125,0.249 -0.25,0 -0.125,-0.249 0.25,-0.374 0.25,-0.374 V 111.2 l 0.249,-0.498 c 0.374,-0.249 0,-0.249 0.125,-0.498 h 0.249 c -0.125,-0.125 0.374,-1.744 0.623,-2.117 v 0.124 -0.249 h 0.125 v -0.125 l 0.125,-0.124 0.125,-0.249 v -0.374 h 0.124 l 0.125,-0.125 c -0.125,0 -0.249,0 -0.125,-0.124 l 0.125,0.124 0.125,-0.124 h -0.125 v -0.249 l 0.125,-0.374 0.125,0.125 v -0.374 h 0.125 l 0.125,-0.249 -0.125,-0.249 h 0.249 l 0.25,-0.498 c -0.125,-0.125 -0.25,-0.125 0,-0.125 l -0.125,-0.374 0.249,-0.249 0.125,0.125 v -0.623 h 0.125 v -0.124 c 0.374,0 0,0.124 0,0.249 h 0.125 l 0.125,-0.125 v -0.249 c -0.249,0.374 -0.125,-0.373 0,-0.623 l 0.125,0.125 0.249,-0.125 -0.125,-0.249 v -0.124 0.249 -0.125 H 12.49 v -0.124 h 0.125 c 0,-0.125 0,-0.498 0.125,-0.374 l 0.125,-0.249 h 0.125 l -0.125,-0.249 0.125,0.124 v -0.373 l 0.125,-0.249 h 0.124 c 0.125,0 0.125,-0.125 0.125,-0.249 l 0.124,-0.997 0.125,-0.124 c 0.125,0.124 0,0.373 0.125,0.124 0.125,-0.124 0,0 0,-0.124 v -0.374 0.125 h 0.249 l -0.125,-0.125 h -0.125 l 0.125,-0.124 h 0.125 v 0.124 -0.622 l 0.125,0.124 0.249,-0.124 C 14.61,98.247 14.486,97.625 14.86,97.5 h 0.125 l -0.249,-0.249 0.125,-0.249 v -0.125 c 0.125,0 0.374,-0.747 0.747,-1.37 0.125,-0.498 0.25,-0.872 0.125,-0.997 0.125,0 0.249,-0.249 0.374,-0.374 l 0.124,-0.374 0.125,-0.249 0.125,-0.374 -0.125,-0.249 c 0.249,0 0.374,-0.249 0.249,-0.374 0,0 0.125,-0.124 0.249,-0.374 0,-0.249 0.125,-0.872 0.374,-1.121 0.25,-0.125 0,-0.249 0.125,-0.499 l 0.125,-0.125 0.125,-0.125 -0.125,-0.125 0.125,-0.249 v -0.125 c 0.125,0 0.997,-1.993 0.997,-2.242 l 0.124,-0.125 0.125,-0.374 v -0.125 l 0.124,-0.374 0.25,-0.249 0.125,-0.374 -0.125,-0.125 h 0.125 c 0.125,-0.249 0.125,-0.374 0.249,-0.498 -0.125,-0.125 -0.125,-0.125 0,-0.125 v -0.374 l 0.249,-0.249 0.125,0.125 v -0.623 l 0.125,-0.124 0.125,0.249 v -0.125 l 0.124,-0.249 c -0.249,0.499 -0.124,-0.623 0,-0.623 l 0.125,0.125 0.249,-0.125 -0.125,-0.25 v -0.124 0.249 H 20.47 l 0.124,-0.125 H 20.47 v -0.124 h 0.124 c 0,-0.125 0,-0.499 0.125,-0.374 l 0.125,-0.249 h 0.125 l -0.125,-0.249 0.125,0.125 v -0.374 l 0.125,-0.249 h 0.125 -0.125 l 0.25,-0.249 h -0.125 v -0.249 c 0.249,-0.125 -0.125,-0.374 0.249,-0.125 l -0.124,-0.125 v -0.374 c 0.623,-0.499 0.498,-1.121 0.623,-1.246 v 0.125 l 0.125,-0.374 0.374,0.249 v -0.117 0.125 h 0.125 c 0.25,0 0.623,0.498 0.872,0.374 l 0.125,0.249 0.125,0.125 h 0.249 v 0.25 h 0.249 v 0.249 c 0.25,0.125 0.374,0.249 0.25,0.249 l 0.249,0.125 v 0.125 l 0.125,-0.125 0.374,0.25 v 0.249 l 0.125,0.124 0.125,-0.249 c 0,0.997 0.872,0.499 0.623,0.997 h 0.374 v 0.249 h 0.125 v 0.374 l 0.374,-0.125 v 0.498 c 0,-0.249 0.25,0 0.374,-0.249 l 0.125,0.249 h 0.249 c 0,0.125 0.125,0.374 0.125,0.498 l 0.249,0.125 0.125,0.249 0.374,0.249 v 0.249 h 0.25 v 0.249 l 0.249,0.125 c -0.249,0.125 0.374,0.249 0.498,0.249 l 0.125,0.374 c 0.125,0.125 0.498,0.249 0.623,0.125 l 0.125,0.374 c 0.125,0 0.249,0.249 0.374,0.499 0,-0.25 0,-0.499 -0.125,-0.623 l 0.249,0.125 c 0,0.249 0.25,0.374 0.498,0.747 l 0.25,0.125 0.125,0.374 0.249,0.249 c 0,-0.125 0.125,-0.374 0.249,-0.125 l 0.125,0.125 h 0.125 v 0.125 l 0.374,0.374 h 0.125 c 0.125,-0.125 0.249,0.125 0.374,0.374 v 0.124 c 0.125,0.125 0.374,0.374 0.623,0.374 l 0.125,0.125 c 0.249,0.125 0.498,0.25 0.623,0.374 v 0.374 h 0.249 v 0.125 c 0.125,0.125 0.374,0.249 0.499,0.498 0.124,0 0.249,0 0.374,0.125 0.249,0.125 0.249,0.374 0.374,0.623 h 0.125 v -0.125 0.125 l 0.124,0.124 c 0.125,0 0.374,-0.124 0.623,0.125 l 0.124,0.498 h 0.25 c -0.125,0.249 0.249,0.374 0.499,0.498 V 92.4 l 0.124,0.124 0.125,0.125 v 0.124 -0.124 l 0.249,0.124 h -0.125 l 0.125,0.25 0.125,-0.125 c 0,0.125 0.747,0.747 1.495,1.495 h 0.374 l 0.125,0.374 v 0.125 h 0.249 v 0.125 l 0.125,0.125 v -0.125 l 0.124,0.125 0.374,0.374 h 0.374 c -0.125,0.125 0.249,0.498 0.374,0.623 v 0.125 l 0.249,-0.125 0.125,0.373 v -0.124 h 0.124 l 0.25,0.374 0.125,0.249 h 0.25 l 0.125,0.373 0.249,0.25 c 0,-0.125 0.124,-0.25 0.249,0 v 0.124 l 0.125,0.125 v -0.125 h 0.125 l 0.249,0.498 h 0.249 l 0.125,0.249 h 0.125 l 0.125,0.374 v -0.124 0.373 h 0.373 c 0.25,0.125 0.374,0.249 0.748,0.374 v 0.249 l 0.249,0.124 0.125,0.499 0.623,0.124 c 0,0.374 0.374,0.374 0.498,0.374 h 0.125 v 0.249 l 0.124,0.124 c 0.125,0.498 0.623,-0.373 0.997,0.872 h 0.374 v 0.374 h 0.125 l -0.125,0.373 h 0.125 l 0.249,-0.249 c 0.125,0.125 0.125,0.374 0.249,0.499 l 0.125,0.124 0.125,0.125 0.249,-0.125 v 0.249 h 0.125 l 0.124,0.125 0.125,0.124 v -0.124 0.124 l 0.249,0.125 v 0.124 h 0.249 l -0.125,-0.124 0.125,0.124 0.125,0.249 v 0.125 l 0.374,0.249 c 0.25,0 0.25,0.125 0.25,0.249 h 0.249 v 0.125 l 0.125,0.249 h 0.125 v 0.124 h 0.125 v 0.374 l 0.125,-0.249 0.125,0.124 v 0.499 c 0.125,-0.249 0.374,0 0.498,-0.249 l 0.125,0.249 h 0.125 c 0.499,0.871 0.499,0.249 0.747,0.622 l 0.125,0.374 0.25,-0.125 c 0.125,0.249 0.374,0.748 0.374,0.997 h 0.125 l 0.125,-0.249 0.125,0.498 0.25,-0.124 h -0.168 0.125 l 0.124,0.373 h 0.125 -0.125 0.125 l 0.124,0.249 v 0.125 l 0.25,0.124 c 0.249,0 0.249,0.25 0.249,0.125 v 0.125 h 0.125 l 0.249,0.124 h -0.125 v 0.124 l 0.125,0.125 h 0.125 l -0.125,0.125 h 0.374 v 0.249 h 0.249 c 0.124,0.249 0.124,0.373 0.124,0.622 l 0.125,0.125 0.249,-0.125 v 0.125 h 0.125 l 0.125,0.249 H 58.7 l -0.124,0.125 0.124,0.249 0.125,0.124 0.125,0.249 v 1.993 c -0.623,-0.623 -1.494,-1.37 -2.242,-1.868 l -0.125,-0.374 c 0,0.249 -0.125,0.125 -0.249,0 -0.125,-0.124 -0.498,-0.872 -0.623,-0.996 z"
       id="path14"
       inkscape:connector-curvature="0"
       style="clip-rule:evenodd;fill:#005981;fill-rule:evenodd" />
    <path
       d="m 24.572,89.528 c -0.623,0.747 -0.374,2.242 -1.37,2.615 -0.125,-0.374 0.498,-0.623 0.249,-0.997 0.374,-0.373 0,-0.996 0.623,-1.121 -0.125,-0.374 0.249,-0.498 0.249,-0.872 0.249,-0.124 0.124,0.25 0.249,0.375 z m -1.37,3.114 v 0.374 h -0.374 c 0,-0.25 0.249,-1.122 0.374,-0.374 z m -0.374,0.622 c 0.125,0.25 0,0.374 -0.125,0.499 l 0.125,0.125 c -0.125,0.249 -0.25,0.125 -0.499,0.125 0.125,-0.375 0.125,-0.749 0.499,-0.749 z m -3.612,9.092 c -0.499,0.125 0,0.623 -0.374,0.872 l -0.249,-0.374 c 0.623,-0.124 -0.125,-1.121 0.623,-0.996 z m -0.997,2.243 c -0.374,0.249 -0.125,0.623 -0.374,0.872 -0.124,0.374 -0.498,0.872 -0.498,1.37 -0.498,-0.249 0.125,-0.623 0.125,-1.121 0.125,-0.374 0.373,-0.747 0.373,-1.121 z m -4.484,11.584 c -0.125,0.249 -0.374,0.125 -0.499,0.125 -0.249,-0.374 0.249,-0.499 0.249,-0.872 0.25,0.124 0.375,0.498 0.25,0.747 z m -0.747,0.872 c 0.125,0.996 -0.872,1.619 -0.747,2.74 0,0.124 -0.25,0.249 -0.374,0.249 -0.124,-1.121 0.499,-1.868 0.623,-2.74 0.124,-0.249 0.373,-0.249 0.498,-0.249 z m -1.245,3.861 -0.125,0.249 -0.623,-0.125 c -0.124,-0.498 0.748,-0.623 0.748,-0.124 z m 2.491,-6.228 c 0,0.374 -0.25,0.623 -0.748,0.499 -0.124,0 0.125,-0.25 0.125,-0.374 l 0.249,0.124 c 0.124,-0.249 0.124,-0.499 0.374,-0.249 z M 24.821,88.406 c 0,0.25 -0.125,0.499 -0.249,0.623 l -0.25,-0.125 c 0.125,-0.124 0,-0.747 0.499,-0.498 z m -5.107,12.58 v 0.125 h -0.249 v -0.249 z m -0.125,0.499 -0.125,0.248 c -0.249,0 -0.249,-0.248 -0.249,-0.373 z m -6.601,14.823 -0.249,-0.125 0.249,-0.249 z"
       id="path16"
       inkscape:connector-curvature="0"
       style="clip-rule:evenodd;fill:#005981;fill-rule:evenodd" />
    <path
       d="m 17.223,106.716 v 0.249 h -0.249 v -0.249 z m -0.125,0.498 -0.124,0.374 c -0.25,0 -0.125,-0.249 -0.125,-0.374 z"
       id="path18"
       inkscape:connector-curvature="0"
       style="clip-rule:evenodd;fill:#005981;fill-rule:evenodd" />
    <path
       d="m 18.593,103.603 v 0.498 h -0.125 c -0.125,0.124 0,0.498 -0.249,0.623 0,0.124 0,0.124 -0.125,0.249 -0.125,0.249 0,0.498 0,0.622 H 17.72 c 0.124,0.499 -0.499,0.25 0,0.623 -0.374,0 -0.125,0.498 -0.374,0.498 h -0.249 c -0.124,-0.249 0.125,-0.124 0.125,-0.373 0,-0.125 0.25,0 0.25,-0.125 -0.25,0 -0.125,-0.249 -0.25,-0.249 l 0.125,-0.249 0.25,-0.125 v -0.124 l -0.125,-0.249 0.125,-0.125 c 0.125,-0.249 -0.125,-0.747 0.249,-0.747 v -0.125 l 0.125,-0.249 v -0.124 l 0.249,-0.125 v -0.498 c 0.124,0 0.996,0 0.373,0.374 z m 1.121,-2.368 v 0.125 c -0.249,0 -0.249,0.249 -0.374,0.249 l -0.125,0.124 -0.125,-0.124 c 0,-0.249 0.374,0 0.249,-0.374 0.249,0.125 0,-0.249 0.249,-0.124 z m -3.238,7.35 c -0.125,0.249 0.249,0.249 0.125,0.498 l -0.125,0.125 v 0.747 l -0.125,0.124 c 0.125,0.498 -0.498,0.374 -0.249,0.997 h -0.125 l -0.124,0.373 c -0.25,-0.249 0,0.125 -0.25,0.125 v 0.124 h 0.125 c 0,0.249 -0.125,0.125 -0.125,0.249 l -0.125,0.249 h -0.125 v 0.499 l -0.25,0.124 v 0.249 l -0.124,0.499 c -0.249,-0.125 -0.374,0.373 -0.499,0.373 0,0.125 0.125,0.374 -0.125,0.498 -0.124,0 0,-0.373 -0.124,-0.498 0.498,-0.124 0,-0.498 0.124,-0.623 0.125,0.125 0.125,-0.249 0.249,-0.124 v -0.249 l 0.25,-0.125 v -0.623 c 0.374,0 0,-0.622 0.249,-0.871 h 0.125 l 0.125,0.249 v -0.249 h 0.249 c 0,-0.125 -0.125,-0.748 0.125,-0.748 l -0.125,-0.124 0.125,-0.125 c 0,-0.373 0.249,-0.373 0.249,-0.622 h 0.125 v -0.374 h 0.124 l -0.124,-0.249 0.249,0.125 0.125,-0.374 h -0.25 z m 5.729,-14.324 c 0,0.125 0.125,0.249 0.249,0.374 L 22.205,94.76 V 94.635 L 22.08,94.76 v 0.125 c 0.125,0.499 -0.374,0.374 -0.249,0.748 l 0.125,0.125 -0.249,0.125 c -0.125,0.124 0,0.498 -0.125,0.622 v 0.125 h -0.125 l 0.125,0.374 h -0.125 c -0.249,0 0,0.373 -0.124,0.498 -0.125,0.125 0,0.125 0,0.374 h -0.125 v 0.373 c -0.249,0 -0.249,0.374 -0.498,0.249 l -0.125,0.374 c -0.249,-0.249 0,0.498 -0.249,0.623 -0.124,0.249 0,0.498 -0.124,0.622 -0.25,-0.124 -0.125,0.125 -0.125,0.125 0,0 -0.125,0.249 -0.249,0.125 0,-0.25 -0.125,0 -0.125,0 v -0.623 h 0.249 c 0,-0.249 -0.125,-0.498 0.125,-0.498 0,-0.25 -0.125,-0.748 0.125,-0.872 0.124,-0.125 0,-0.623 0.249,-0.623 v -0.124 h 0.249 c 0.125,-0.125 0,-0.374 0.249,-0.374 v -0.498 l 0.125,-0.125 0.125,-0.498 h 0.125 v -0.747 l 0.249,-0.125 c 0,-0.124 0.25,-0.249 0.125,-0.249 l -0.125,-0.125 c 0.25,-0.125 0.125,0 0.25,0 l 0.125,-0.249 c 0.125,0.125 0,-0.125 0.125,-0.125 v -0.249 h 0.122 z m -8.843,22.794 -0.249,-0.125 0.249,-0.374 z m 3.612,-9.093 -0.125,0.125 v 0.622 c -0.249,0 -0.249,-0.249 -0.249,-0.373 h -0.125 v 0.124 H 16.35 v -0.249 h 0.125 v -0.249 c 0.249,0 0.125,-0.374 0.499,-0.249 z M 86.351,72.837 c 0.249,-0.499 0.872,-0.748 1.868,-0.748 V 71.466 H 82.49 v 0.623 c 0.872,0 1.37,0.125 1.744,0.498 0.249,0.25 0.498,0.872 0.498,1.744 v 9.342 c 0,1.868 -0.249,3.238 -0.747,4.11 -0.623,0.997 -1.744,1.495 -3.488,1.495 -0.748,0 -1.37,-0.124 -1.868,-0.498 -1.246,-0.747 -1.869,-2.491 -1.869,-5.106 v -9.342 c 0,-0.872 0.125,-1.495 0.498,-1.869 0.25,-0.249 0.872,-0.374 1.62,-0.374 v -0.623 h -6.477 v 0.623 c 0.498,0 0.872,0 1.246,0.125 0.623,0.249 0.872,0.872 0.872,2.118 v 9.342 c 0,1.37 0.125,2.615 0.499,3.612 0.623,1.993 2.367,2.989 5.48,2.989 2.367,0 3.861,-0.623 4.733,-1.869 0.623,-0.872 0.872,-2.491 0.872,-4.732 v -9.342 a 4.64,4.64 0 0 1 0.248,-1.495 z m 7.598,17.189 v -0.498 c -0.374,0 -0.748,0 -0.997,-0.125 -0.623,-0.125 -0.872,-0.747 -0.872,-1.868 v -3.488 c 0,-0.872 0.125,-1.744 0.498,-2.615 0.249,-0.748 0.623,-1.37 0.996,-1.993 0.623,-0.747 1.121,-1.121 1.744,-1.121 0.747,0 1.37,0.374 1.495,1.121 0.124,0.249 0.124,1.121 0.124,2.367 v 5.729 c 0,0.748 -0.124,1.246 -0.373,1.62 -0.374,0.249 -0.748,0.374 -1.495,0.374 v 0.498 h 5.729 v -0.498 c -0.373,0 -0.746,0 -0.996,-0.125 -0.623,-0.125 -0.871,-0.747 -0.871,-1.868 v -6.352 c 0,-1.495 -0.25,-2.491 -0.498,-2.99 -0.375,-0.872 -1.246,-1.246 -2.367,-1.246 -1.744,0 -3.114,1.246 -3.985,3.737 v -3.737 l -3.862,0.748 v 0.498 c 0.623,0 1.122,0.125 1.37,0.374 0.374,0.25 0.499,0.748 0.499,1.371 v 7.598 c 0,0.748 -0.125,1.246 -0.374,1.62 -0.374,0.249 -0.748,0.374 -1.495,0.374 v 0.498 h 5.73 z m 14.199,0 v -0.498 c -0.373,0 -0.748,0 -0.996,-0.125 -0.623,-0.125 -0.871,-0.747 -0.871,-1.868 V 76.947 l -3.863,0.748 v 0.498 c 0.748,0 1.121,0.125 1.371,0.374 0.373,0.25 0.498,0.748 0.498,1.371 v 7.598 c 0,0.748 -0.125,1.246 -0.373,1.62 -0.25,0.249 -0.748,0.374 -1.496,0.374 v 0.498 h 5.73 z m -1.992,-16.068 c 0.373,-0.249 0.498,-0.623 0.498,-1.121 0,-0.374 -0.125,-0.872 -0.373,-1.121 -0.375,-0.25 -0.623,-0.499 -0.998,-0.499 -0.498,0 -0.746,0.249 -1.121,0.499 -0.248,0.249 -0.373,0.747 -0.373,1.121 0,0.498 0.125,0.872 0.498,1.121 0.25,0.249 0.498,0.499 0.996,0.499 0.375,0 0.623,-0.25 0.873,-0.499 z m 9.342,16.317 3.486,-10.089 c 0.375,-0.872 0.623,-1.494 0.873,-1.743 0.248,-0.374 0.871,-0.623 1.619,-0.748 v -0.498 h -4.484 v 0.498 c 0.748,0.125 1.121,0.374 1.121,0.997 0,0.249 -0.125,0.623 -0.373,1.121 l -2.492,7.598 -2.74,-7.598 c -0.248,-0.623 -0.373,-1.121 -0.373,-1.37 0,-0.499 0.373,-0.748 1.121,-0.748 v -0.498 h -5.232 v 0.498 c 0.498,0 0.873,0.125 1.121,0.374 0.498,0.374 0.996,0.997 1.371,2.242 l 3.861,9.964 z m 7.846,-10.338 c 0.498,-1.371 1.246,-1.993 2.367,-1.993 0.623,0 1.121,0.125 1.494,0.499 0.623,0.623 0.873,1.495 0.873,2.864 h -4.982 c 0,-0.373 0.125,-0.872 0.248,-1.37 z m 4.857,9.341 c -1.619,0 -2.863,-0.747 -3.861,-2.242 -0.871,-1.246 -1.244,-2.865 -1.244,-4.858 h 7.225 v -0.623 c 0,-0.997 -0.25,-1.869 -0.623,-2.491 -0.748,-1.37 -1.994,-2.118 -3.613,-2.118 -3.363,0 -5.105,2.118 -5.105,6.353 0,1.495 0.248,2.865 0.746,3.861 0.873,2.117 2.74,3.114 5.355,3.114 1.121,0 2.119,-0.125 2.865,-0.498 v -0.872 c -0.374,0.25 -0.997,0.374 -1.745,0.374 z m 9.467,0.748 v -0.498 c -0.373,0 -0.748,0 -0.996,-0.125 -0.623,-0.125 -0.871,-0.747 -0.871,-1.868 V 83.3 c 0,-1.37 0.248,-2.616 0.746,-3.363 0.373,-0.748 0.748,-0.997 1.121,-0.997 l 0.498,0.249 c 0.373,0.249 0.623,0.374 0.873,0.374 0.871,0 1.244,-0.498 1.244,-1.246 0,-0.374 -0.123,-0.747 -0.373,-0.996 -0.25,-0.25 -0.498,-0.374 -0.871,-0.374 -1.496,0 -2.492,0.997 -3.238,2.99 v -2.99 l -3.861,0.748 v 0.498 c 0.621,0 1.121,0.125 1.369,0.374 0.373,0.25 0.498,0.748 0.498,1.371 v 7.598 c 0,0.748 -0.125,1.246 -0.373,1.62 -0.373,0.249 -0.873,0.374 -1.494,0.374 v 0.498 h 5.728 z m 10.961,-12.58 c -0.871,-0.249 -1.744,-0.499 -2.74,-0.499 -1.246,0 -2.117,0.25 -2.865,0.748 -0.871,0.623 -1.369,1.495 -1.369,2.74 0,0.997 0.498,1.868 1.369,2.616 0.375,0.374 0.873,0.623 1.744,1.121 0.873,0.498 1.371,0.872 1.744,1.121 0.623,0.623 0.996,1.245 0.996,1.868 0,0.623 -0.248,1.245 -0.748,1.619 -0.498,0.498 -1.119,0.623 -1.619,0.623 -1.619,0 -2.49,-0.872 -2.988,-2.616 h -0.623 l 0.125,2.99 c 0.996,0.374 1.992,0.498 3.238,0.498 1.246,0 2.242,-0.249 3.113,-0.747 0.996,-0.623 1.494,-1.62 1.494,-2.99 0,-0.872 -0.248,-1.619 -0.621,-2.242 -0.375,-0.374 -0.873,-0.872 -1.744,-1.371 -0.996,-0.623 -1.869,-1.121 -2.367,-1.494 -0.748,-0.498 -1.121,-1.121 -1.121,-1.744 0,-0.498 0.125,-0.747 0.373,-0.996 0.375,-0.499 0.873,-0.748 1.744,-0.748 1.246,0 2.117,0.748 2.492,2.491 h 0.623 z m 8.221,12.58 v -0.498 c -0.498,0 -0.746,0 -0.996,-0.125 -0.623,-0.125 -0.996,-0.747 -0.996,-1.868 V 76.947 l -3.738,0.748 v 0.498 c 0.623,0 1.123,0.125 1.371,0.374 0.25,0.25 0.498,0.748 0.498,1.371 v 7.598 c 0,0.748 -0.125,1.246 -0.498,1.62 -0.248,0.249 -0.748,0.374 -1.371,0.374 v 0.498 h 5.73 z m -1.993,-16.068 c 0.248,-0.249 0.373,-0.623 0.373,-1.121 0,-0.374 -0.125,-0.872 -0.373,-1.121 -0.25,-0.25 -0.623,-0.499 -0.996,-0.499 -0.375,0 -0.748,0.249 -0.998,0.499 -0.248,0.249 -0.373,0.747 -0.373,1.121 0,0.498 0.125,0.872 0.373,1.121 0.25,0.249 0.623,0.499 0.998,0.499 0.373,0 0.746,-0.25 0.996,-0.499 z m 8.844,15.445 c -0.748,0 -1.371,-0.125 -1.744,-0.498 -0.25,-0.374 -0.498,-0.997 -0.498,-1.993 v -8.719 h 3.238 v -0.996 h -3.238 v -4.111 h -0.623 c 0,0.997 -0.125,1.744 -0.373,2.367 -0.5,1.246 -1.496,1.744 -2.865,1.744 v 0.996 h 1.992 v 7.972 c 0,1.744 0.125,2.865 0.623,3.238 0.373,0.623 1.494,0.872 3.363,0.872 h 1.121 v -0.997 c -0.623,0.125 -0.873,0.125 -0.996,0.125 z m 8.469,-1.37 c -0.498,0.747 -1.246,1.121 -1.992,1.121 -0.498,0 -0.996,-0.25 -1.246,-0.748 -0.373,-0.498 -0.498,-0.996 -0.498,-1.619 0,-1.868 1.494,-2.864 4.359,-2.864 v 1.619 c 0,0.872 -0.25,1.744 -0.623,2.491 z m 3.611,1.619 c -0.746,0 -0.996,-0.498 -0.996,-1.37 v -6.851 c 0,-0.997 -0.123,-1.744 -0.373,-2.367 -0.498,-1.37 -1.619,-2.118 -3.736,-2.118 -0.498,0 -1.121,0.125 -1.869,0.374 -1.494,0.498 -2.242,1.245 -2.242,2.366 0,0.872 0.498,1.246 1.246,1.246 0.748,0 1.121,-0.499 1.121,-1.371 0,-0.747 0.125,-1.121 0.498,-1.37 0.25,-0.125 0.623,-0.249 1.246,-0.249 0.623,0 1.121,0.125 1.494,0.499 0.373,0.623 0.623,1.743 0.623,3.487 v 0.996 l -1.869,0.25 c -0.871,0.125 -1.619,0.249 -2.242,0.499 -1.619,0.623 -2.365,1.868 -2.365,3.487 0,0.623 0.125,1.245 0.373,1.619 0.498,0.997 1.371,1.495 2.492,1.495 1.619,0 2.74,-0.623 3.486,-1.993 h 0.125 c 0,1.37 0.623,1.993 1.869,1.993 0.621,0 1.244,0 1.867,-0.249 v -0.498 c -0.373,0.001 -0.623,0.125 -0.748,0.125 z m 7.475,-0.249 c -0.873,0 -1.494,-0.125 -1.744,-0.498 -0.373,-0.374 -0.498,-0.997 -0.498,-1.993 v -8.719 h 3.238 v -0.996 h -3.238 v -4.111 h -0.623 c 0,0.997 -0.125,1.744 -0.373,2.367 -0.498,1.246 -1.496,1.744 -2.99,1.744 v 0.996 h 1.994 v 7.972 c 0,1.744 0.248,2.865 0.621,3.238 0.5,0.623 1.619,0.872 3.363,0.872 h 1.246 v -0.997 c -0.623,0.125 -0.996,0.125 -0.996,0.125 z M 75.515,111.449 c 0.374,-1.494 1.121,-2.117 2.117,-2.117 0.996,0 1.744,0.623 2.117,2.117 0.374,0.997 0.499,2.118 0.499,3.487 0,1.371 -0.125,2.491 -0.499,3.488 -0.374,1.494 -1.121,2.117 -2.117,2.117 -0.623,0 -1.246,-0.249 -1.619,-0.872 -0.623,-0.872 -0.997,-2.491 -0.997,-4.733 10e-4,-1.369 0.125,-2.49 0.499,-3.487 z m 8.47,9.467 v -0.499 c -0.623,0 -0.997,-0.124 -1.246,-0.373 -0.373,-0.249 -0.498,-0.748 -0.498,-1.37 v -16.69 l -3.861,0.622 v 0.499 c 0.623,0.124 0.997,0.249 1.37,0.498 0.249,0.249 0.499,0.622 0.499,1.37 v 5.48 h -0.125 c -0.623,-1.495 -1.495,-2.242 -2.74,-2.242 -1.619,0 -2.865,0.747 -3.612,2.117 -0.623,1.121 -0.996,2.74 -0.996,4.608 0,1.869 0.374,3.488 0.996,4.609 0.747,1.37 1.993,1.992 3.612,1.992 0.498,0 1.121,-0.124 1.619,-0.622 0.623,-0.374 0.996,-0.872 1.121,-1.37 h 0.125 v 1.992 z m 4.11,-13.328 c 0.747,-0.996 1.121,-2.117 1.121,-3.114 0,-1.369 -0.623,-1.992 -1.619,-1.992 -0.374,0 -0.747,0.124 -0.997,0.498 -0.249,0.249 -0.498,0.623 -0.498,1.121 0,0.373 0.125,0.747 0.374,0.996 0.125,0.125 0.374,0.374 0.872,0.374 0.249,0.124 0.374,0.249 0.374,0.498 0,0.747 -0.374,1.619 -1.121,2.616 h 0.872 c 0.124,-0.249 0.373,-0.498 0.622,-0.997 z m 7.598,13.701 v -0.498 c -0.374,0 -0.623,0 -0.872,-0.124 -0.623,-0.125 -0.872,-0.374 -0.872,-0.872 0,-0.249 0.125,-0.623 0.374,-1.246 l 0.997,-3.362 h 6.228 l 1.121,3.487 c 0.25,0.498 0.25,0.872 0.25,1.121 0,0.622 -0.623,0.996 -1.744,0.996 v 0.498 h 6.477 v -0.498 c -0.498,0 -0.996,-0.124 -1.369,-0.374 -0.5,-0.373 -1.123,-1.245 -1.496,-2.49 L 99.68,102.482 h -1.494 l -5.106,15.195 c -0.249,0.872 -0.498,1.495 -0.748,1.869 -0.374,0.871 -1.121,1.245 -2.242,1.245 v 0.498 z m 5.481,-7.224 h -5.481 l 2.741,-8.471 z m 12.455,7.224 v -0.373 c -0.373,0 -0.623,-0.125 -0.996,-0.249 -0.498,-0.125 -0.873,-0.748 -0.873,-1.869 v -16.814 l -3.736,0.622 v 0.499 c 0.623,0.124 0.998,0.249 1.371,0.498 0.248,0.249 0.498,0.622 0.498,1.37 v 13.825 c 0,0.748 -0.125,1.246 -0.498,1.619 -0.25,0.25 -0.748,0.499 -1.371,0.499 v 0.373 z m 7.848,-1.993 c -0.498,0.748 -1.246,1.121 -1.994,1.121 -0.498,0 -0.996,-0.249 -1.244,-0.747 -0.25,-0.498 -0.498,-0.996 -0.498,-1.619 0,-1.868 1.494,-2.864 4.359,-2.864 v 1.619 c 0,0.996 -0.25,1.743 -0.623,2.49 z m 3.611,1.62 c -0.748,0 -0.996,-0.499 -0.996,-1.37 v -6.851 c 0,-0.997 -0.125,-1.744 -0.373,-2.367 -0.375,-1.37 -1.619,-2.117 -3.738,-2.117 -0.498,0 -1.119,0.125 -1.742,0.374 -1.619,0.498 -2.367,1.245 -2.367,2.366 0,0.872 0.498,1.245 1.246,1.245 0.746,0 1.121,-0.498 1.121,-1.369 0,-0.623 0.248,-1.121 0.498,-1.371 0.248,-0.124 0.623,-0.248 1.244,-0.248 0.623,0 1.121,0.124 1.496,0.498 0.373,0.622 0.623,1.743 0.623,3.487 v 0.996 l -1.869,0.249 c -0.871,0.125 -1.619,0.249 -2.242,0.498 -1.619,0.623 -2.367,1.869 -2.367,3.488 0,0.623 0.125,1.245 0.375,1.619 0.498,0.996 1.369,1.494 2.49,1.494 1.619,0 2.74,-0.622 3.613,-1.992 0,1.37 0.621,1.992 1.867,1.992 0.623,0 1.246,0 1.869,-0.249 v -0.498 c -0.375,0.126 -0.623,0.126 -0.748,0.126 z m 9.84,-0.374 c -1.121,0 -2.117,-0.249 -2.865,-0.996 -1.742,-1.246 -2.615,-3.238 -2.615,-5.854 0,-0.996 0.125,-1.868 0.373,-2.615 0.5,-1.246 1.371,-1.868 2.617,-1.868 0.871,0 1.494,0.373 1.619,1.12 0.123,0.623 0.248,0.997 0.498,1.246 a 0.937,0.937 0 0 0 0.871,0.622 c 0.748,0 1.246,-0.498 1.246,-1.369 0,-0.997 -0.498,-1.619 -1.494,-2.118 a 6.786,6.786 0 0 0 -2.492,-0.498 c -1.121,0 -2.242,0.249 -2.988,0.747 -1.496,1.121 -2.367,2.865 -2.367,5.605 0,2.242 0.623,3.861 1.619,5.106 0.996,1.246 2.615,1.868 4.732,1.868 0.998,0 1.869,-0.124 2.617,-0.373 v -0.748 c -0.498,0.125 -0.998,0.125 -1.371,0.125 z m 9.467,-1.246 c -0.498,0.748 -1.121,1.121 -1.994,1.121 -0.498,0 -0.871,-0.249 -1.244,-0.747 a 3.436,3.436 0 0 1 -0.375,-1.619 c 0,-1.868 1.371,-2.864 4.359,-2.864 v 1.619 c 0,0.996 -0.248,1.743 -0.746,2.49 z m 3.736,1.62 c -0.748,0 -1.121,-0.499 -1.121,-1.37 v -6.851 c 0,-0.997 -0.125,-1.744 -0.373,-2.367 -0.375,-1.37 -1.619,-2.117 -3.613,-2.117 -0.623,0 -1.244,0.125 -1.867,0.374 -1.496,0.498 -2.242,1.245 -2.242,2.366 0,0.872 0.373,1.245 1.121,1.245 0.871,0 1.244,-0.498 1.244,-1.369 0,-0.623 0.125,-1.121 0.375,-1.371 0.248,-0.124 0.746,-0.248 1.369,-0.248 0.623,0 1.121,0.124 1.371,0.498 0.498,0.622 0.746,1.743 0.746,3.487 v 0.996 l -1.992,0.249 c -0.748,0.125 -1.494,0.249 -2.242,0.498 -1.619,0.623 -2.367,1.869 -2.367,3.488 0,0.623 0.125,1.245 0.375,1.619 0.623,0.996 1.369,1.494 2.615,1.494 1.494,0 2.615,-0.622 3.488,-1.992 0,1.37 0.623,1.992 1.867,1.992 0.623,0 1.246,0 1.869,-0.249 v -0.498 c -0.25,0.126 -0.498,0.126 -0.623,0.126 z m 7.598,0.373 v -0.373 c -0.373,0 -0.746,-0.125 -0.996,-0.249 -0.498,-0.125 -0.871,-0.748 -0.871,-1.869 v -3.362 c 0,-0.997 0.248,-1.868 0.498,-2.74 0.248,-0.748 0.623,-1.37 1.121,-1.993 0.498,-0.747 1.121,-1.121 1.619,-1.121 0.871,0 1.369,0.374 1.494,1.121 0.125,0.249 0.125,1.121 0.125,2.366 v 5.729 c 0,0.748 -0.125,1.246 -0.375,1.619 -0.248,0.25 -0.746,0.499 -1.494,0.499 v 0.373 h 5.73 v -0.373 a 2.36,2.36 0 0 1 -0.998,-0.249 c -0.621,-0.125 -0.871,-0.748 -0.871,-1.869 v -6.352 c 0,-1.495 -0.125,-2.491 -0.498,-2.99 -0.373,-0.871 -1.121,-1.245 -2.367,-1.245 -1.742,0 -3.113,1.245 -3.861,3.736 h -0.123 v -3.736 l -3.738,0.747 v 0.498 c 0.623,0 0.996,0.125 1.246,0.374 0.373,0.249 0.498,0.747 0.498,1.37 v 7.598 c 0,0.748 -0.125,1.246 -0.373,1.619 -0.25,0.25 -0.748,0.499 -1.371,0.499 v 0.373 z m 13.826,-0.622 c -0.873,0 -1.371,-0.125 -1.744,-0.499 -0.373,-0.373 -0.498,-0.996 -0.498,-1.868 v -8.844 h 3.238 v -0.871 h -3.238 v -4.235 h -0.623 c 0,0.996 -0.125,1.744 -0.373,2.366 -0.498,1.246 -1.494,1.869 -2.99,1.869 v 0.871 h 1.994 v 7.972 c 0,1.744 0.248,2.865 0.623,3.239 0.498,0.622 1.619,0.871 3.361,0.871 h 1.246 v -0.996 c -0.623,0.125 -0.996,0.125 -0.996,0.125 z"
       id="path20"
       inkscape:connector-curvature="0"
       style="clip-rule:evenodd;fill:#005981;fill-rule:evenodd" />
  </g>
</svg>
