<?xml version="1.0" encoding="UTF-8" standalone="no"?>
<svg
   xmlns:dc="http://purl.org/dc/elements/1.1/"
   xmlns:cc="http://creativecommons.org/ns#"
   xmlns:rdf="http://www.w3.org/1999/02/22-rdf-syntax-ns#"
   xmlns:svg="http://www.w3.org/2000/svg"
   xmlns="http://www.w3.org/2000/svg"
   xmlns:sodipodi="http://sodipodi.sourceforge.net/DTD/sodipodi-0.dtd"
   xmlns:inkscape="http://www.inkscape.org/namespaces/inkscape"
   width="2279.4102"
   height="386.4082"
   viewBox="0 0 175.74799 29.793"
   version="1.1"
   id="svg24"
   sodipodi:docname="logoua.svg"
   inkscape:version="0.92.3 (2405546, 2018-03-11)">
  <metadata
     id="metadata30">
    <rdf:RDF>
      <cc:Work
         rdf:about="">
        <dc:format>image/svg+xml</dc:format>
        <dc:type
           rdf:resource="http://purl.org/dc/dcmitype/StillImage" />
        <dc:title></dc:title>
      </cc:Work>
    </rdf:RDF>
  </metadata>
  <defs
     id="defs28" />
  <sodipodi:namedview
     pagecolor="#ffffff"
     bordercolor="#666666"
     borderopacity="1"
     objecttolerance="10"
     gridtolerance="10"
     guidetolerance="10"
     inkscape:pageopacity="0"
     inkscape:pageshadow="2"
     inkscape:window-width="1920"
     inkscape:window-height="1047"
     id="namedview26"
     showgrid="false"
     inkscape:zoom="0.57778105"
     inkscape:cx="1139.7051"
     inkscape:cy="193.2041"
     inkscape:window-x="1920"
     inkscape:window-y="0"
     inkscape:window-maximized="1"
     inkscape:current-layer="svg24"
     fit-margin-top="0"
     fit-margin-left="0"
     fit-margin-right="0"
     fit-margin-bottom="0" />
  <g
     id="g830">
    <path
       d="M 0,0.355 H 29.211 V 29.566 H 0 Z"
       id="path4"
       inkscape:connector-curvature="0"
       style="clip-rule:evenodd;fill:#d7ddd8;fill-rule:evenodd" />
    <path
       d="m 8.231,5.358 20.98,18.462 c 0,1.452 -0.033,3.356 0,5.745 H 0 v -4.164 z"
       id="path6"
       inkscape:connector-curvature="0"
       style="clip-rule:evenodd;fill:#ffffff;fill-rule:evenodd" />
    <path
       d="m 13.459,15.558 0.097,0.161 c 0.097,0.032 0.226,0.032 0.355,0.032 v 0.097 h 0.226 l 0.064,0.226 0.129,0.098 c 0,0 0.033,-0.162 0.097,-0.129 l 0.097,0.322 c 0.129,-0.032 0.548,0.388 0.548,0.452 l 0.097,0.032 0.097,0.161 0.226,0.032 c 0.032,0.323 0.646,0.678 0.839,0.937 h 0.065 v 0.387 c -0.614,-0.064 -3.841,-0.097 -4.455,0.032 v -0.032 l -0.225,0.032 v -0.032 l -0.032,0.13 h -0.742 c 0.064,-0.13 -0.194,-0.098 -0.129,0 -0.129,-0.098 -0.355,-0.065 -0.517,0 l -0.032,-0.13 -0.194,0.097 -0.032,-0.097 -0.097,0.13 H 9.457 l -0.065,-0.13 c -0.032,0 -0.194,0.291 -0.161,0.032 a 3.678,3.678 0 0 1 -0.839,0 v -0.451 l 0.097,0.032 c 0.097,-0.162 0.162,-0.42 0.129,-0.613 H 8.715 C 8.812,17.043 8.973,16.72 8.941,16.365 l 0.097,0.032 C 9.135,16.3 9.199,16.171 9.167,16.043 H 9.264 V 15.881 C 9.425,15.784 9.651,15.72 9.812,15.752 l 0.032,0.129 0.032,-0.161 c 0.194,0.032 0.355,0.226 0.484,0.161 0,-0.193 0.646,-0.161 0.742,-0.161 l 0.033,0.032 0.161,-0.097 c 0.032,-0.064 0.226,0.097 0.097,0.097 l 0.226,0.129 0.064,-0.129 c 0.258,-0.161 0.484,0 0.807,-0.097 l 0.032,0.193 0.387,0.032 0.064,-0.129 0.129,0.129 0.162,-0.129 -0.032,-0.064 0.097,-0.064 0.032,0.032 z"
       id="path8"
       inkscape:connector-curvature="0"
       style="clip-rule:evenodd;fill:#f4cf53;fill-rule:evenodd" />
    <path
       d="m 20.302,21.303 c 0,0 -0.032,0.129 0.064,0.129 0.032,0 0.064,0.097 0.129,0.064 0.097,-0.032 0.065,0.064 0.065,0.064 0,0 0.097,0 0.032,0.065 l 0.097,0.097 h 0.162 l 0.032,0.064 c 0,0 0.097,0.097 0.129,0.193 0.064,0.129 0.194,0.226 0.194,0.226 0,0 0.032,0.032 0.064,-0.031 0.033,-0.065 0.064,-0.033 0.064,-0.033 0,0 0.065,0.064 0.226,0.194 0.032,0.032 0,0.129 0.129,0.161 0.065,0 0.162,0.097 0.162,0.097 l -0.064,0.097 c 0.032,0.032 0.161,0.032 0.161,0.097 0.033,0.259 0.226,0.161 0.226,0.161 0,0 0.064,0.033 0,0.162 -0.097,0.097 -0.032,0.129 -0.032,0.129 0,0 -0.064,0.193 -0.032,0.322 0,0.13 0.064,0.227 0.064,0.227 0,0 -0.226,0 -0.387,-0.129 C 21.722,23.595 21.625,23.595 21.561,23.53 21.464,23.4 21.4,23.465 21.4,23.465 l -0.097,0.097 c -0.065,-0.031 -0.097,-0.129 -0.452,0 -0.355,0.13 -0.226,0.033 -0.388,0.065 0,0 -0.129,0.032 -0.29,-0.032 -0.162,-0.064 -0.226,-0.13 -0.226,-0.13 l -0.194,0.097 -0.226,0.098 v 0.032 l -0.291,-0.097 -0.226,0.032 -0.064,-0.065 -0.194,-0.031 -0.194,0.031 -0.064,-0.064 c -0.258,0.064 -0.161,0.13 -0.355,0.064 0,0 -0.097,-0.031 -0.129,0 h -0.097 l -0.097,-0.097 -0.032,0.13 c -0.032,-0.098 -0.323,-0.033 -0.549,0.032 l -0.226,-0.032 -0.161,-0.064 c 0,0 -0.065,-0.065 -0.129,0 -0.097,0.064 -0.258,0.031 -0.258,0.031 l -0.226,0.065 -0.226,-0.097 c -0.064,0.031 0.129,0.129 -0.226,0 l -0.161,-0.065 c -0.129,0.194 -0.355,0.097 -0.355,0.097 h -1.581 v -0.031 l -0.097,0.031 c -0.388,0.098 -0.484,0.065 -1.292,-0.064 -0.129,0.098 -0.161,0.162 -0.291,0.064 l -0.161,-0.064 c 0.032,0.064 0.032,0.033 -0.032,0.064 0,0.033 -0.614,-0.031 -0.387,-0.031 l -0.064,-0.065 -0.065,0.065 -0.258,0.031 c -0.097,0 -0.193,0.033 -0.323,0.065 v -0.032 l -0.032,-0.064 -0.033,-0.033 -0.129,0.064 c 0,0 0,-0.031 -0.032,-0.031 -0.064,0 -0.064,-0.065 -0.064,-0.065 l -0.032,0.097 c 0,0 -0.484,0.033 -0.678,0 -0.194,-0.031 -0.291,0.033 -0.291,0.033 L 9.361,23.498 9.199,23.628 8.973,23.563 8.844,23.499 c -0.064,0 -0.258,0.162 -0.323,0.098 0,0 -0.226,-0.13 -0.355,-0.033 -0.194,0.13 -0.323,-0.031 -0.387,0.065 -0.097,0.032 -0.581,-0.097 -0.646,-0.097 -0.032,0 -0.097,0.064 -0.162,0.031 L 6.778,23.499 C 6.681,23.563 6.552,23.532 6.552,23.532 6.52,23.467 6.455,23.499 6.455,23.499 H 6.164 c 0,0 0.097,-0.129 0.129,-0.29 0,-0.097 0.033,-0.259 0.033,-0.259 C 6.39,22.886 6.358,22.821 6.39,22.757 L 6.455,22.693 V 22.467 L 6.519,22.079 6.81,21.95 V 21.886 L 6.778,21.822 V 21.726 L 6.81,21.694 C 7.004,21.435 7.197,21.113 7.294,20.822 L 7.52,20.758 c 0.355,0.064 0.355,0.097 0.419,0 l 0.258,0.097 0.226,-0.097 c 0.032,-0.032 0.064,0 0.129,0.032 l 0.484,0.032 0.032,-0.064 c 0.194,0 0.323,-0.064 0.517,0.032 0.064,0 0.161,0.097 0.323,0.032 0.032,0 0.193,-0.032 0.323,0.032 a 0.758,0.758 0 0 0 0.258,0.064 c 0.032,-0.032 0.258,-0.032 0.355,-0.032 0.064,0 0.354,0.032 0.484,-0.064 a 0.35,0.35 0 0 0 0.129,-0.064 l 0.193,0.032 c 0,0 0.484,0.032 0.71,-0.032 0.161,-0.064 0.29,0 0.645,0 l 0.227,0.064 c 0,0 0.193,0.064 0.258,-0.032 a 0.41,0.41 0 0 1 0.291,0.032 c 0.064,0 0.097,-0.097 0.162,-0.097 0.161,0 0.323,0.064 0.419,0.097 l 0.162,-0.097 0.193,0.097 0.387,-0.097 0.129,0.064 c 0.193,0.064 0.419,0.064 0.548,-0.064 0,0.129 0.194,-0.097 0.194,0.032 0,0.097 0.162,0.064 0.194,0.032 l 0.581,-0.097 0.065,0.064 0.097,-0.064 h 0.678 l 0.162,-0.064 0.129,0.032 0.355,-0.032 c 0.033,0.064 0.968,-0.064 1.033,-0.032 0.064,0.032 -0.194,0.226 0.064,0.161 0.161,-0.032 0.064,0.097 0.194,0.064 0.032,-0.032 0.064,0 0.097,0.064 l 0.129,0.097 0.129,0.098 c 0,0 0.097,0.032 0.258,0.097 0.033,0 0.162,0.032 0.129,0.064 -0.064,0.062 0.033,0.062 0.033,0.062 z"
       id="path10"
       inkscape:connector-curvature="0"
       style="clip-rule:evenodd;fill:#d9782d;fill-rule:evenodd" />
    <path
       d="M 3.55,29.081 3.776,28.92 c 0.032,-0.064 0,-0.064 0,-0.129 0.064,-0.097 0.258,-0.323 0.291,-0.484 0.097,-0.322 0.097,-0.613 0.387,-0.774 v -0.484 c 0,-0.161 0.097,-0.258 0.258,-0.258 h 0.904 c 0.064,0 0.064,0.064 0.129,0.064 0.387,0 0.613,-0.193 1,-0.193 0.064,0 0.097,0.064 0.161,0.064 0.743,0.097 1.162,0 1.904,0.064 0.064,0 0.064,0.064 0.129,0.064 0.226,0 0.323,-0.193 0.549,-0.193 0.097,0 0.161,0.064 0.258,0.064 0.129,0 0.194,-0.064 0.355,-0.064 0.162,0 0.226,0.064 0.387,0.064 0.129,0 0.194,-0.033 0.291,-0.033 0.064,0 0.064,-0.064 0.097,-0.064 0.097,0 0.097,0.098 0.161,0.098 a 0.338,0.338 0 0 0 0.291,-0.162 c 0.129,0.064 0.194,0.162 0.355,0.162 0.194,0 0.388,0 0.484,-0.162 l 0.097,0.098 h 0.387 c 0.065,0 0.097,-0.098 0.162,-0.098 0.065,0 0.064,0.064 0.129,0.064 0.065,0 0.064,-0.064 0.129,-0.064 v 0.098 h 1.323 c 0.064,0 0.097,0.064 0.162,0.064 0.097,0 0.097,-0.064 0.161,-0.064 0.064,0 0.064,0.064 0.129,0.064 0.065,0 0.065,-0.064 0.129,-0.064 h 0.904 c 0.129,0 0.193,0.064 0.291,0.064 0.097,0 0.161,-0.064 0.258,-0.064 0.064,0 0.097,0.064 0.161,0.064 0.064,0 0.097,-0.064 0.161,-0.064 0.097,0 0.129,0.129 0.258,0.129 0.162,0 0.194,-0.162 0.355,-0.162 0.162,0 0.226,0.098 0.388,0.098 0.097,0 0.097,-0.064 0.193,-0.064 0.032,0 0.064,0.064 0.097,0.064 0.097,0 0.161,-0.064 0.258,-0.064 0.161,0 0.258,0.064 0.452,0.064 a 0.45,0.45 0 0 0 0.291,-0.098 c 0.71,0 1.097,-0.032 1.775,0.033 0.064,0 0.097,0.064 0.161,0.064 0.064,0 0.097,-0.064 0.161,-0.064 0.065,0 0.097,0.064 0.162,0.064 0.032,0 0.064,-0.064 0.097,-0.098 0.064,0.033 0.129,0.098 0.226,0.098 0.032,0 0.032,-0.064 0.064,-0.064 0.129,0 0.194,0.064 0.291,0.064 0.129,0 0.193,-0.064 0.322,-0.064 0.064,0 0.064,0.064 0.129,0.064 0.064,0 0.064,-0.064 0.129,-0.064 0.065,0 0.065,0.064 0.129,0.064 h 0.322 c 0.065,0 0.129,-0.064 0.194,-0.064 0.064,0 0.064,0.064 0.097,0.064 0.097,0 0.161,-0.064 0.258,-0.064 0.065,0 0.065,0.064 0.129,0.064 0.064,0 0.064,-0.064 0.129,-0.064 h 2.389 c 0.226,0.29 0.419,0.612 0.775,0.549 0.032,0.161 0.226,0.193 0.354,0.322 0.129,0.161 0.194,0.322 0.42,0.355 0,0.258 0.129,0.354 0.322,0.516 0.194,0.227 0.13,0.291 0.452,0.581 l 0.323,0.355 0.323,0.226 H 3.55 Z"
       id="path12"
       inkscape:connector-curvature="0"
       style="clip-rule:evenodd;fill:#d7ddd8;fill-rule:evenodd" />
    <path
       d="M 28.888,23.369 Z M 6.036,9.264 Z M 6.746,7.876 6.713,7.908 Z m 20.431,15.138 c -0.032,0.032 -0.064,0.032 -0.129,0 v -0.097 l -0.064,-0.064 c -0.065,0.031 -0.162,0.031 -0.162,0.031 V 22.723 L 26.79,22.691 c -0.032,0.032 -0.065,0.064 -0.129,0.032 V 22.562 C 26.564,22.498 26.5,22.465 26.435,22.401 h -0.033 c -0.097,-0.064 -0.129,-0.226 -0.193,-0.194 l -0.065,-0.193 c -0.032,0 -0.064,-0.032 -0.193,-0.032 l -0.032,0.032 -0.064,-0.064 h -0.032 l -0.032,-0.064 h -0.065 c -0.291,-0.452 -0.291,-0.161 -0.419,-0.323 l 0.032,-0.161 c -0.032,-0.032 -0.064,-0.032 -0.064,0 -0.129,-0.064 -0.194,-0.193 -0.258,-0.29 -0.097,0.032 -0.387,-0.291 -0.581,-0.484 l -0.065,0.032 v -0.064 l -0.032,-0.032 h -0.097 l -0.097,-0.13 0.032,-0.031 -0.193,-0.033 C 24.048,20.273 23.532,20.016 23.79,20.016 L 23.629,19.984 V 19.92 c -0.033,0 -0.162,0.032 -0.258,-0.032 v -0.097 l -0.032,-0.13 -0.097,0.13 c -0.064,-0.194 -0.161,-0.323 -0.258,-0.388 l -0.033,-0.032 c -0.129,-0.097 -0.258,-0.129 -0.355,-0.323 -0.064,0 -0.129,-0.097 -0.193,-0.161 -0.065,0 -0.129,0 -0.194,-0.032 -0.032,-0.032 -0.291,-0.388 -0.258,-0.452 l -0.032,-0.032 -0.064,0.064 c -0.226,-0.29 -0.452,-0.387 -0.71,-0.581 l -0.129,0.033 c -0.032,0 -0.064,-0.098 -0.064,-0.194 l -0.097,0.064 0.032,-0.193 c -0.064,-0.032 -0.097,-0.097 -0.161,-0.161 0,0.419 -0.13,-0.355 -0.42,-0.291 L 20.242,16.919 20.113,16.79 c 0.032,0.032 0,-0.032 -0.064,-0.064 l -0.064,-0.064 -0.032,-0.033 v 0.162 H 19.888 C 19.856,16.662 19.856,16.5 19.695,16.564 l -0.129,-0.193 -0.032,0.064 -0.065,-0.161 h 0.032 C 19.566,16.21 19.469,16.113 19.404,16.113 19.178,16.08 19.113,15.919 18.92,15.822 l -0.097,0.064 v -0.161 c -0.161,0 -0.71,-0.646 -0.774,-0.613 V 15.08 l -0.065,-0.064 c -0.064,0.032 -0.161,0.032 -0.258,-0.097 -0.032,-0.033 -0.129,-0.193 -0.064,-0.227 H 17.5 V 14.628 L 17.403,14.435 17.37,14.403 c -0.129,0.032 -0.355,-0.194 -0.613,-0.452 v 0.065 c -0.129,-0.097 -0.322,-0.517 -0.484,-0.484 l -0.064,-0.064 -0.103,-0.04 -0.032,-0.129 -0.064,-0.032 c -0.032,0.032 -0.064,-0.032 -0.064,-0.129 l -0.032,-0.064 h -0.032 v 0.064 h -0.097 v -0.032 c 0,-0.032 0.065,0 0,-0.097 -0.097,-0.129 -0.226,-0.097 -0.29,0.032 -0.097,-0.097 -0.065,-0.388 -0.226,-0.452 0,0 -0.42,-0.032 -0.323,-0.226 L 14.881,12.266 14.849,12.234 14.72,12.202 14.688,12.008 14.559,11.879 c 0.032,0.032 -0.064,0.193 -0.129,0.064 -0.064,-0.064 0.032,-0.129 0.032,-0.129 l -0.064,-0.065 -0.032,0.129 h -0.033 l -0.129,-0.226 0.032,-0.033 -0.129,0.033 -0.097,-0.162 -0.064,0.033 -0.065,-0.194 0.033,0.032 0.032,-0.032 A 2.211,2.211 0 0 1 13.623,11.071 L 13.236,10.942 V 10.781 C 13.107,10.684 12.977,10.588 12.881,10.555 12.849,10.49 12.817,10.426 12.752,10.393 H 12.688 C 12.624,10.361 12.591,10.264 12.559,10.264 12.527,10.2 12.527,10.167 12.495,10.103 L 12.463,10.2 12.43,10.103 C 12.366,10.071 12.333,10.167 12.301,10.135 12.237,10.071 12.14,10.006 12.075,9.909 11.849,9.844 11.817,9.425 11.591,9.457 11.527,9.231 11.203,9.199 11.172,8.973 A 6.462,6.462 0 0 0 10.591,8.489 H 10.462 L 10.429,8.263 10.365,8.295 10.333,8.231 10.296,8.263 V 8.038 L 10.199,8.167 10.135,7.876 C 10.199,8.199 9.618,7.747 9.618,7.682 L 9.715,7.65 c -0.064,-0.032 -0.097,0 -0.129,0 -0.032,0.032 -0.097,0 -0.129,-0.032 L 9.424,7.457 H 9.392 L 9.36,7.586 C 9.263,7.618 9.263,7.392 9.263,7.295 L 9.295,7.231 9.231,7.166 V 7.263 L 9.166,7.198 C 9.069,7.133 9.069,7.004 9.069,6.907 8.972,7.069 8.746,6.552 8.585,6.649 8.585,6.617 8.521,6.552 8.456,6.487 8.165,6.939 7.939,7.779 7.682,8.295 V 8.553 C 7.424,8.682 7.617,8.844 7.488,9.037 L 7.424,8.973 7.359,9.102 C 7.424,9.166 7.037,9.683 7.069,9.715 L 6.94,9.877 7.102,9.844 c -0.194,0.517 -0.42,1 -0.613,1.517 0.064,0.226 -0.161,0.323 -0.161,0.549 a 6.77,6.77 0 0 1 -0.42,0.839 l -0.323,0.743 -0.097,0.129 0.065,0.033 c -0.258,0.193 -0.194,0.193 -0.194,0.484 l -0.129,0.129 0.064,0.29 C 5.003,14.589 5.262,14.945 5.036,15.041 L 5.004,14.977 4.907,15.041 c 0,0.064 -0.097,0.388 -0.097,0.484 l -0.097,0.226 c -0.387,0.742 -0.742,2.033 -0.904,2.162 -0.064,0.065 0,0.227 -0.032,0.323 L 3.68,18.429 c 0,0.065 0,0.097 0.032,0.162 l 0.064,-0.032 c -0.032,0.097 -0.194,0.129 -0.194,0.226 l 0.097,0.032 -0.129,0.064 c -0.032,0.161 -0.097,0.291 -0.161,0.452 0.129,0.129 -0.419,0.419 -0.226,0.452 -0.032,0.064 -0.161,0.387 -0.193,0.387 -0.129,0.227 -0.226,0.42 -0.162,0.646 -0.194,0.032 -0.226,0.452 -0.291,0.581 0,-0.032 -0.097,0.097 -0.194,0.129 v 0.032 h 0.064 l -0.064,0.032 c 0,0.162 -0.258,0.969 -0.354,0.969 l -0.033,0.161 c -0.064,-0.097 -0.129,0.064 0.033,0 l -0.129,0.13 0.032,0.064 -0.129,0.193 0.064,0.032 H 1.71 l -0.032,0.097 -0.064,0.161 h 0.032 l -0.032,0.13 c -0.032,0 -0.161,0.387 -0.161,0.193 0,0.064 -0.065,0.226 -0.097,0.29 L 1.324,24.044 H 1.259 v 0.162 l 0.033,-0.033 0.032,0.033 -0.097,0.258 -0.065,-0.032 v 0.097 c -0.064,0.193 -0.258,0.323 -0.29,0.517 0,0.097 0.064,0.193 -0.032,0.29 -0.226,0.259 -0.678,1.324 -0.839,1.711 V 24.433 C 0.098,24.336 0.195,24.11 0.324,23.884 0.26,23.948 0.195,24.013 0.163,23.916 0.099,23.723 0.292,23.658 0.324,23.658 L 0.292,23.626 V 23.529 C 0.324,23.464 0.356,23.302 0.421,23.27 0.647,23.141 0.453,23.077 0.55,22.947 0.582,22.883 0.647,23.012 0.614,22.98 0.582,22.882 0.84,21.979 1.001,21.753 l 0.032,0.032 v -0.13 L 1.097,21.688 1.129,21.59 1.161,21.493 1.194,21.364 1.226,21.332 1.258,21.171 1.323,21.139 V 21.107 C 1.291,21.075 1.194,21.075 1.291,21.042 l 0.032,0.033 H 1.355 L 1.42,20.977 H 1.388 V 20.913 L 1.356,20.849 1.421,20.656 1.485,20.72 1.517,20.656 V 20.527 L 1.614,20.463 1.646,20.365 1.614,20.204 h 0.129 l 0.097,-0.29 c -0.033,-0.032 -0.129,-0.064 0,-0.097 v -0.194 l 0.097,-0.129 0.097,0.032 v -0.323 c 0.064,0.065 0.064,0.065 0.097,-0.031 v -0.033 c 0.161,0.033 -0.064,0.098 -0.032,0.162 h 0.032 l 0.064,-0.129 c 0,-0.033 0,-0.065 0.032,-0.13 -0.097,0.227 -0.032,-0.193 0,-0.322 l 0.032,-0.064 0.064,0.097 0.097,-0.064 c 0.032,-0.032 0,-0.097 0,-0.129 L 2.387,18.527 v 0.098 H 2.356 V 18.561 H 2.324 v -0.064 h 0.064 c 0,-0.065 -0.032,-0.291 0.097,-0.227 L 2.517,18.109 H 2.581 L 2.549,18.012 H 2.613 C 2.646,17.948 2.581,17.914 2.581,17.85 L 2.678,17.689 2.742,17.721 2.71,17.689 c 0.064,0.032 0.097,-0.032 0.097,-0.161 L 2.871,16.979 2.935,16.915 C 3,16.947 2.968,17.076 3,17.012 3.064,16.883 3,16.98 3.064,16.883 3.097,16.819 3.032,16.786 3.032,16.786 V 16.722 L 3.064,16.69 3.032,16.754 h 0.129 c 0,-0.097 -0.032,-0.032 -0.097,-0.097 H 3.032 l 0.065,-0.033 0.032,-0.031 0.032,0.097 c 0.033,0 -0.064,-0.291 0,-0.355 l 0.065,0.064 c 0,0 0.064,-0.032 0.161,-0.064 0.161,-0.29 0.064,-0.678 0.323,-0.71 L 3.742,15.593 C 3.71,15.529 3.645,15.529 3.613,15.464 L 3.678,15.302 3.646,15.27 c 0.064,0 0.291,-0.452 0.419,-0.807 0.097,-0.291 0.161,-0.549 0.129,-0.581 0.064,-0.032 0.129,-0.129 0.193,-0.258 l 0.064,-0.226 0.032,0.033 c 0,-0.033 0.032,-0.097 0.032,-0.129 V 13.27 L 4.58,13.109 4.548,12.947 c 0.129,0.032 0.193,-0.129 0.097,-0.226 0.032,-0.032 0.097,-0.097 0.161,-0.193 0.032,-0.161 0.097,-0.549 0.226,-0.646 0.162,-0.129 0,-0.194 0.097,-0.323 L 5.193,11.494 V 11.458 L 5.257,11.426 V 11.394 L 5.193,11.33 5.257,11.169 5.225,11.137 C 5.354,11.105 5.806,9.975 5.871,9.813 L 5.935,9.781 5.999,9.555 V 9.491 H 5.967 L 6.031,9.265 6.16,9.136 6.225,8.942 V 8.813 L 6.257,8.845 C 6.322,8.716 6.354,8.619 6.419,8.523 6.355,8.49 6.322,8.458 6.451,8.458 L 6.419,8.232 6.548,8.103 6.645,8.167 V 7.844 L 6.709,7.78 6.742,7.877 6.774,7.845 6.806,7.651 C 6.709,7.942 6.774,7.329 6.838,7.296 L 6.902,7.36 7.031,7.296 C 7.063,7.264 7.031,7.232 6.999,7.167 L 6.966,7.135 V 7.232 H 6.934 L 6.966,7.167 H 6.934 V 7.135 L 6.999,7.103 C 6.999,7.039 6.934,6.845 7.063,6.877 L 7.095,6.715 H 7.159 V 6.618 L 7.191,6.65 V 6.456 L 7.288,6.295 7.321,6.327 V 6.295 c 0.032,0 0.129,-0.064 0.097,-0.162 L 7.385,6.166 C 7.288,6.102 7.321,6.037 7.321,6.037 7.482,5.973 7.288,5.811 7.482,5.973 L 7.45,5.941 V 5.877 C 7.418,5.812 7.385,5.715 7.45,5.651 7.805,5.393 7.708,5.005 7.773,4.941 L 7.805,5.005 7.869,4.811 8.031,4.973 V 4.876 L 8.095,4.973 8.127,4.941 8.159,4.973 C 8.256,4.909 8.482,5.231 8.611,5.166 l 0.097,0.129 0.065,0.064 0.129,0.032 c 0,0.032 0,0.064 0.064,0.129 H 9.063 V 5.617 C 9.192,5.746 9.321,5.81 9.225,5.843 L 9.354,5.875 V 5.972 L 9.451,5.907 9.677,6.004 9.645,6.101 9.677,6.133 9.741,6.198 9.805,6.101 c -0.032,0.548 0.452,0.258 0.388,0.581 L 10.354,6.65 10.386,6.844 10.451,6.812 V 7.07 l 0.161,-0.097 0.032,0.258 c 0,-0.129 0.194,0.032 0.226,-0.097 l 0.097,0.129 h 0.097 a 0.78,0.78 0 0 1 0.065,0.291 l 0.161,0.032 0.097,0.162 0.226,0.129 v 0.129 h 0.129 c 0,0.064 -0.097,0.161 0,0.193 l 0.162,0.032 c -0.162,0.129 0.193,0.194 0.29,0.194 l 0.064,0.193 c 0.097,0.065 0.258,0.162 0.323,0.033 l 0.064,0.226 c 0.097,0.064 0.162,0.194 0.226,0.291 0.032,-0.097 0,-0.258 -0.064,-0.323 l 0.161,0.097 c 0,0.097 0.129,0.194 0.291,0.42 l 0.161,0.032 0.032,0.226 0.161,0.129 C 13.581,9.717 13.645,9.523 13.775,9.685 l 0.033,0.064 0.032,0.032 0.065,-0.032 0.032,0.097 0.193,0.194 h 0.032 c 0.097,-0.032 0.194,0.129 0.226,0.193 v 0.129 c 0.129,0.065 0.258,0.194 0.387,0.226 l 0.064,0.064 c 0.097,0.064 0.258,0.097 0.355,0.226 v 0.193 h 0.129 l 0.032,0.033 c 0.097,0.097 0.162,0.193 0.258,0.29 0.064,0.032 0.129,0.064 0.226,0.129 0.129,0.064 0.129,0.226 0.226,0.355 l 0.065,-0.032 v -0.064 l 0.032,0.064 0.032,0.064 c 0.097,0 0.226,-0.032 0.355,0.129 0.032,0.065 -0.032,0.226 0.064,0.258 h 0.194 c -0.065,0.097 0.097,0.226 0.258,0.258 l 0.032,0.097 0.064,0.097 0.032,0.033 0.032,0.064 v -0.032 l 0.129,0.064 h -0.032 l 0.032,0.162 0.065,-0.097 c 0,0.032 0.419,0.419 0.872,0.839 l 0.097,0.032 h 0.129 l 0.032,0.226 0.065,0.032 h 0.032 l 0.032,0.065 0.033,-0.032 v 0.064 l 0.064,0.065 v -0.033 l 0.097,0.033 c 0.064,0.064 0.258,0.29 0.226,0.193 l 0.162,0.032 c 0,0.064 0.161,0.29 0.258,0.354 -0.033,0 -0.033,0.033 0,0.033 0.064,0.031 0.097,-0.098 0.161,-0.064 0.032,0.031 0.032,0.161 0.064,0.226 v -0.032 l 0.064,-0.064 c 0.064,0.032 0.129,0.161 0.097,0.226 l 0.097,0.161 0.097,0.032 h 0.097 l 0.032,0.227 c 0.032,0.032 0.097,0.064 0.161,0.097 0.032,-0.064 0.097,-0.097 0.162,0 0,0.032 0,0.064 -0.032,0.097 l 0.097,0.064 v -0.097 h 0.064 l 0.129,0.29 -0.032,0.033 0.161,-0.033 0.097,0.194 0.097,-0.032 0.065,0.193 h -0.032 l -0.033,0.064 0.065,0.064 0.064,0.064 0.129,-0.032 c 0.161,0.097 0.193,0.194 0.452,0.259 v 0.097 l 0.129,0.097 c 0,0.064 0.032,0.193 0.097,0.258 l 0.355,0.13 c -0.032,0.193 0.226,0.193 0.226,0.161 v 0.032 h 0.097 v 0.032 c 0.064,0 0.097,0.129 0.032,0.097 l 0.032,0.097 c 0.129,0.291 0.355,-0.193 0.581,0.517 h 0.226 v 0.161 h 0.097 l -0.097,0.194 h 0.032 l 0.194,-0.097 c 0.064,0.097 0.064,0.226 0.097,0.322 h 0.129 L 24.1,19.01 a 0.54,0.54 0 0 1 0.194,-0.097 v 0.161 l 0.064,0.032 0.032,0.065 0.064,0.064 0.032,-0.064 0.033,0.031 0.129,0.098 -0.032,0.032 v 0.032 h 0.129 l -0.032,-0.064 0.032,0.064 0.064,0.161 0.032,0.032 c 0.097,0.032 0.162,0.064 0.194,0.162 0.129,0 0.162,0.064 0.162,0.129 h 0.161 v 0.097 l 0.097,0.161 0.032,-0.032 v 0.064 l 0.065,-0.032 v 0.291 l 0.064,-0.194 0.129,0.064 H 25.68 l 0.065,0.291 c 0.032,-0.13 0.193,0 0.226,-0.097 l 0.097,0.129 h 0.097 c 0.291,0.451 0.291,0.161 0.42,0.322 l 0.032,0.194 c 0,-0.065 0.097,-0.097 0.162,-0.032 0.064,0.129 0.194,0.419 0.258,0.613 l 0.032,-0.033 0.097,-0.129 0.064,0.227 h 0.097 v -0.032 0.032 l 0.097,0.193 0.064,0.032 -0.032,-0.032 h 0.032 a 0.553,0.553 0 0 1 0.129,0.161 l -0.032,0.032 c 0.065,0.097 0.129,0.129 0.162,0.097 0.097,-0.032 0.129,0.162 0.161,0.065 v 0.097 h 0.161 l -0.064,0.064 0.032,0.064 0.032,0.032 h 0.065 l -0.032,0.064 v 0.064 c 0.032,0.064 0.162,0.064 0.193,0 l 0.033,0.097 0.032,0.032 h 0.097 c 0.032,0.098 0.032,0.227 0.064,0.323 l 0.032,0.064 0.064,0.032 0.129,-0.064 v 0.032 h 0.097 c 0,0.032 0,0.097 0.033,0.161 h 0.129 l -0.064,0.129 0.097,0.13 0.032,0.032 0.129,0.129 v 1.227 c -0.42,-0.42 -0.872,-0.807 -1.324,-1.162 l -0.064,-0.193 c 0.032,0.129 -0.097,0.064 -0.161,0 -0.065,-0.032 -0.291,-0.484 -0.355,-0.581 -0.021,0.006 -0.053,-0.027 -0.118,-0.059 z"
       id="path14"
       inkscape:connector-curvature="0"
       style="clip-rule:evenodd;fill:#005981;fill-rule:evenodd" />
    <path
       d="M 9.295,10.975 C 8.941,11.459 9.069,12.298 8.488,12.524 8.424,12.266 8.746,12.136 8.65,11.943 8.843,11.749 8.682,11.362 9.005,11.297 8.941,11.071 9.134,11.006 9.102,10.813 9.264,10.748 9.231,10.91 9.295,10.975 Z m -0.806,1.839 v 0.226 c -0.064,0 -0.161,0.032 -0.161,-0.032 -0.065,-0.129 0.096,-0.614 0.161,-0.194 z m -0.194,0.388 c 0.064,0.097 -0.032,0.161 -0.097,0.226 0.033,0.032 0.065,0.032 0.065,0.097 -0.032,0.129 -0.129,0.064 -0.226,0.097 0.032,-0.227 0.064,-0.453 0.258,-0.42 z M 6.229,18.43 C 5.906,18.462 6.197,18.818 5.971,18.914 L 5.842,18.721 C 6.164,18.657 5.745,18.075 6.164,18.14 Z m -0.645,1.292 c -0.194,0.161 0,0.354 -0.162,0.483 C 5.325,20.464 5.1,20.689 5.132,21.013 4.809,20.851 5.196,20.625 5.164,20.367 5.228,20.141 5.39,19.916 5.422,19.722 Z m -2.55,6.713 c -0.064,0.097 -0.226,0.064 -0.322,0.064 -0.129,-0.226 0.193,-0.322 0.161,-0.516 0.129,0.065 0.226,0.259 0.161,0.452 z m -0.42,0.484 C 2.679,27.532 2.066,27.855 2.195,28.5 2.131,28.598 2.034,28.63 1.904,28.63 1.872,28.049 2.227,27.597 2.323,27.048 2.388,26.952 2.485,26.919 2.614,26.919 Z m -0.742,2.227 c 0,0.064 -0.032,0.098 -0.065,0.13 L 1.485,29.211 C 1.355,28.92 1.872,28.888 1.872,29.146 Z m 1.453,-3.582 c -0.032,0.226 -0.129,0.322 -0.42,0.29 -0.097,-0.032 0.032,-0.161 0.065,-0.226 0.064,-0.032 0.096,0.032 0.096,0.064 0.097,-0.128 0.097,-0.29 0.259,-0.128 z m 6.1,-15.235 c 0,0.161 -0.032,0.291 -0.161,0.355 -0.032,0.032 -0.065,0 -0.097,-0.032 0.064,-0.13 -10e-4,-0.42 0.258,-0.323 z M 6.52,17.591 c 0,0.064 -0.032,0.097 -0.064,0.129 H 6.327 v -0.161 c 0.064,-0.032 0.161,-0.032 0.193,0.032 z m -0.129,0.291 c 0,0.064 0.033,0.161 -0.032,0.193 -0.129,0 -0.129,-0.162 -0.129,-0.227 0.064,0.001 0.129,-0.031 0.161,0.034 z M 2.582,26.499 C 2.518,26.531 2.453,26.467 2.421,26.435 2.388,26.371 2.485,26.242 2.582,26.274 Z"
       id="path16"
       inkscape:connector-curvature="0"
       style="clip-rule:evenodd;fill:#005981;fill-rule:evenodd" />
    <path
       d="M 5.067,20.948 C 5.1,21.013 5.035,21.045 5.035,21.078 H 4.906 v -0.162 c 0.065,-0.001 0.129,-0.033 0.161,0.032 z m -0.096,0.291 c 0,0.064 0.032,0.161 -0.064,0.193 -0.129,0.032 -0.097,-0.129 -0.097,-0.226 0.031,0 0.128,-0.032 0.161,0.033 z"
       id="path18"
       inkscape:connector-curvature="0"
       style="clip-rule:evenodd;fill:#005981;fill-rule:evenodd" />
    <path
       d="m 5.842,19.14 v 0.291 H 5.746 c -0.033,0.097 0.032,0.322 -0.129,0.322 0.033,0.098 -0.032,0.13 -0.097,0.194 v 0.354 H 5.326 C 5.423,20.56 5.035,20.43 5.294,20.689 5.101,20.657 5.262,20.947 5.101,20.915 v 0.064 H 4.972 c -0.064,-0.161 0.064,-0.129 0.097,-0.258 0,-0.032 0.162,0 0.097,-0.097 -0.097,0.032 -0.064,-0.097 -0.097,-0.129 0.065,0.032 0.033,-0.065 0.033,-0.097 0.097,0 0.097,-0.098 0.161,-0.098 l 0.032,-0.097 c -0.064,0 -0.161,0 -0.097,-0.097 0.064,0 -0.032,-0.129 0.064,-0.129 0.064,-0.097 -0.064,-0.42 0.129,-0.42 V 19.46 C 5.455,19.428 5.455,19.363 5.52,19.331 V 19.267 L 5.617,19.17 v -0.227 c 0.096,0.004 0.612,-0.029 0.225,0.197 z m 0.613,-1.355 v 0.098 C 6.358,17.85 6.39,17.98 6.261,17.98 c 0,0.064 -0.032,0.064 -0.032,0.097 C 6.132,18.109 6.197,17.98 6.132,18.013 6.1,17.819 6.326,17.981 6.229,17.786 6.39,17.884 6.293,17.657 6.39,17.689 l 0.033,0.032 z m -1.872,4.26 C 4.551,22.175 4.744,22.142 4.68,22.336 4.616,22.304 4.616,22.4 4.583,22.4 c 0,0.097 -0.032,0.193 0,0.258 l 0.032,0.161 C 4.518,22.787 4.551,22.852 4.518,22.883 4.615,23.174 4.292,23.142 4.389,23.432 H 4.292 c -0.033,0.064 0,0.162 0,0.227 -0.162,-0.098 -0.065,0.129 -0.194,0.097 l -0.032,0.064 0.097,0.032 c 0.033,0.064 -0.032,0.064 -0.064,0.097 L 4.067,24.143 H 3.97 v 0.258 C 3.873,24.369 3.906,24.433 3.841,24.498 v 0.129 H 3.776 v 0.259 C 3.647,24.822 3.55,25.112 3.453,25.079 3.421,25.176 3.485,25.369 3.389,25.401 3.292,25.369 3.357,25.175 3.325,25.111 3.615,25.047 3.293,24.853 3.357,24.788 3.486,24.821 3.421,24.659 3.55,24.691 V 24.53 c 0.097,0.032 0.064,-0.097 0.097,-0.064 l 0.032,-0.322 c 0.194,-0.033 0,-0.42 0.161,-0.517 h 0.033 c 0,0.032 0,0.129 0.064,0.097 0.032,0.032 0.032,-0.064 0.032,-0.097 H 4.066 C 4.13,23.497 4.002,23.207 4.195,23.207 4.162,23.175 4.162,23.078 4.098,23.11 c 0,-0.032 0.032,-0.129 0.097,-0.064 -0.033,-0.227 0.097,-0.227 0.129,-0.388 h 0.032 c 0.032,-0.064 0.032,-0.129 0.032,-0.193 l 0.097,-0.032 c 0,-0.064 -0.097,-0.097 -0.097,-0.162 0.064,0 0.097,0.033 0.129,0.065 0.065,-0.032 0.097,-0.098 0.065,-0.161 H 4.486 c -0.032,-0.097 0.032,-0.13 0.097,-0.13 z M 7.94,13.75 c 0,0.097 0.032,0.161 0.097,0.193 0,0.065 0,0.129 -0.065,0.097 L 7.94,13.943 C 7.876,13.911 7.908,14.008 7.843,14.008 l 0.032,0.097 H 7.843 c 0.097,0.258 -0.226,0.193 -0.097,0.452 h 0.032 c -0.032,0.064 -0.129,0.032 -0.129,0.097 -0.065,0.097 0,0.323 -0.097,0.355 v 0.097 H 7.519 c 0.064,0.032 0,0.161 0.033,0.193 l -0.033,0.032 c -0.162,0 -0.032,0.194 -0.129,0.259 -0.032,0.064 0.065,0.097 0.033,0.193 H 7.358 l -0.032,0.29 c -0.129,-0.031 -0.097,0.162 -0.291,0.098 -0.065,0.032 -0.032,0.161 -0.032,0.193 -0.194,-0.097 0,0.323 -0.194,0.388 0,0.129 0.032,0.29 -0.032,0.387 -0.162,-0.097 -0.097,0.064 -0.097,0.064 0,0 -0.032,0.162 -0.097,0.032 -0.064,-0.097 -0.097,0 -0.097,0 v -0.29 c 0.097,0.032 0.064,-0.064 0.097,-0.064 0.032,-0.097 -0.032,-0.29 0.129,-0.259 0,-0.129 -0.064,-0.451 0.097,-0.483 0.032,-0.097 -0.064,-0.388 0.097,-0.388 L 6.938,15.654 H 7.1 c 0,-0.064 0,-0.193 0.097,-0.193 0,-0.065 0.064,-0.227 0,-0.259 v -0.064 c 0.032,-0.064 0.064,-0.064 0.097,-0.064 l 0.033,-0.29 h 0.097 v -0.355 c 0.097,0 0.097,-0.129 0.161,-0.097 0,-0.064 0.097,-0.162 0.032,-0.194 -0.032,-0.032 0,0.032 -0.032,-0.065 0.097,-0.032 0.065,0.033 0.162,0.033 0,-0.064 0,-0.097 0.032,-0.162 0.097,0.065 -0.032,-0.097 0.064,-0.097 V 13.75 Z M 2.84,26.887 C 2.743,26.919 2.711,26.855 2.679,26.823 2.614,26.726 2.743,26.629 2.84,26.662 Z M 4.938,21.658 C 4.841,21.594 4.874,21.691 4.809,21.723 v 0.322 C 4.68,22.077 4.68,21.948 4.68,21.852 H 4.616 v 0.064 H 4.519 V 21.819 H 4.616 C 4.584,21.787 4.584,21.755 4.584,21.69 4.745,21.657 4.681,21.431 4.938,21.528 Z M 44.542,19.27 c 0.161,-0.323 0.549,-0.484 1.162,-0.484 V 18.463 H 42.25 v 0.323 c 0.484,0 0.839,0.097 1,0.29 0.194,0.194 0.291,0.549 0.291,1.065 v 5.616 c 0,1.162 -0.161,1.969 -0.452,2.485 -0.355,0.613 -1.033,0.937 -2.034,0.937 -0.484,0 -0.871,-0.098 -1.162,-0.291 -0.774,-0.452 -1.162,-1.484 -1.162,-3.131 v -5.616 c 0,-0.517 0.129,-0.871 0.323,-1.098 0.161,-0.161 0.484,-0.258 1,-0.258 v -0.323 h -3.938 v 0.323 c 0.323,0 0.549,0.032 0.743,0.097 0.355,0.129 0.549,0.549 0.549,1.259 v 5.616 c 0,0.871 0.097,1.614 0.258,2.195 0.387,1.227 1.484,1.84 3.324,1.84 1.42,0 2.356,-0.388 2.84,-1.13 0.387,-0.581 0.549,-1.55 0.549,-2.905 v -5.616 c 0.002,-0.388 0.066,-0.678 0.163,-0.871 z m 4.293,10.36 v -0.29 c -0.226,0 -0.452,-0.032 -0.613,-0.064 -0.355,-0.13 -0.517,-0.517 -0.517,-1.162 v -2.065 c 0,-0.549 0.097,-1.065 0.291,-1.614 0.161,-0.42 0.387,-0.839 0.645,-1.194 0.355,-0.452 0.678,-0.678 1.001,-0.678 0.484,0 0.807,0.226 0.936,0.678 0.032,0.161 0.064,0.646 0.064,1.42 v 3.454 c 0,0.452 -0.097,0.774 -0.258,0.968 -0.161,0.162 -0.452,0.259 -0.872,0.259 v 0.29 h 3.421 v -0.29 c -0.226,0 -0.419,-0.032 -0.581,-0.064 -0.355,-0.13 -0.549,-0.517 -0.549,-1.162 v -3.841 c 0,-0.872 -0.097,-1.485 -0.258,-1.84 -0.258,-0.452 -0.71,-0.678 -1.453,-0.678 -1.065,0 -1.872,0.742 -2.356,2.227 h -0.032 v -2.227 l -2.324,0.42 v 0.258 c 0.388,0.032 0.678,0.129 0.839,0.226 0.193,0.194 0.291,0.452 0.291,0.872 v 4.583 c 0,0.452 -0.097,0.774 -0.258,0.968 -0.161,0.162 -0.452,0.259 -0.872,0.259 v 0.29 h 3.455 z m 8.263,0 v -0.29 c -0.226,0 -0.42,-0.032 -0.581,-0.064 -0.355,-0.13 -0.549,-0.517 -0.549,-1.162 v -6.358 l -2.292,0.42 v 0.258 c 0.387,0.032 0.645,0.129 0.807,0.226 0.193,0.194 0.322,0.452 0.322,0.872 v 4.583 c 0,0.452 -0.097,0.774 -0.258,0.968 -0.193,0.162 -0.484,0.259 -0.871,0.259 v 0.29 h 3.422 z m -1.162,-9.715 c 0.161,-0.193 0.258,-0.388 0.258,-0.646 0,-0.291 -0.097,-0.517 -0.258,-0.71 A 0.826,0.826 0 0 0 55.323,18.3 0.879,0.879 0 0 0 54.71,18.559 c -0.162,0.193 -0.226,0.419 -0.226,0.71 0,0.258 0.097,0.452 0.258,0.646 0.161,0.194 0.355,0.29 0.581,0.29 a 0.746,0.746 0 0 0 0.613,-0.29 z m 5.293,9.877 2.13,-6.101 c 0.193,-0.581 0.354,-0.904 0.484,-1.098 0.194,-0.226 0.517,-0.355 0.968,-0.388 v -0.29 H 62.1 v 0.29 c 0.452,0.032 0.678,0.227 0.678,0.581 0,0.13 -0.032,0.355 -0.162,0.71 l -1.485,4.52 -1.743,-4.584 c -0.129,-0.354 -0.194,-0.613 -0.194,-0.839 0,-0.258 0.226,-0.388 0.678,-0.388 v -0.29 h -3.163 v 0.29 c 0.291,0 0.517,0.064 0.71,0.194 0.291,0.193 0.549,0.646 0.839,1.323 l 2.26,6.068 h 0.711 z m 4.455,-6.295 c 0.291,-0.774 0.775,-1.193 1.42,-1.193 0.355,0 0.646,0.097 0.871,0.29 0.355,0.388 0.549,0.968 0.549,1.743 h -3.001 c -10e-4,-0.226 0.064,-0.484 0.161,-0.84 z m 2.937,5.682 c -1,0 -1.775,-0.452 -2.356,-1.324 -0.484,-0.807 -0.742,-1.807 -0.742,-2.969 h 4.325 v -0.355 c 0,-0.613 -0.097,-1.13 -0.323,-1.549 -0.452,-0.807 -1.194,-1.227 -2.227,-1.227 -2.001,0 -3.034,1.259 -3.034,3.809 0,0.903 0.129,1.678 0.42,2.324 0.549,1.291 1.646,1.904 3.195,1.904 0.71,0 1.323,-0.098 1.775,-0.291 v -0.549 c -0.226,0.163 -0.581,0.227 -1.033,0.227 z m 5.39,0.451 v -0.29 c -0.258,0 -0.452,-0.032 -0.613,-0.064 -0.355,-0.13 -0.549,-0.517 -0.549,-1.162 v -2.518 c 0,-0.904 0.162,-1.582 0.484,-2.065 0.258,-0.42 0.484,-0.613 0.678,-0.613 0.032,0 0.161,0.064 0.322,0.193 0.194,0.129 0.355,0.193 0.517,0.193 0.484,0 0.71,-0.258 0.71,-0.774 a 0.9,0.9 0 0 0 -0.193,-0.581 0.814,0.814 0 0 0 -0.549,-0.193 c -0.871,0 -1.517,0.581 -1.937,1.775 h -0.032 v -1.775 l -2.292,0.42 v 0.258 c 0.387,0.032 0.678,0.129 0.839,0.226 0.194,0.161 0.291,0.452 0.291,0.872 v 4.583 c 0,0.452 -0.097,0.774 -0.258,0.968 -0.161,0.162 -0.452,0.259 -0.871,0.259 v 0.29 h 3.453 z m 6.326,-7.617 a 5.616,5.616 0 0 0 -1.711,-0.258 c -0.71,0 -1.258,0.129 -1.71,0.451 -0.516,0.355 -0.774,0.904 -0.774,1.646 0,0.613 0.258,1.13 0.774,1.549 0.226,0.194 0.581,0.42 1.065,0.678 0.517,0.291 0.872,0.517 1.065,0.711 0.387,0.354 0.613,0.71 0.613,1.098 0,0.387 -0.162,0.742 -0.484,1 -0.291,0.258 -0.646,0.355 -1,0.355 -0.904,0 -1.485,-0.517 -1.743,-1.614 h -0.388 l 0.097,1.872 c 0.548,0.193 1.194,0.291 1.937,0.291 0.742,0 1.388,-0.162 1.839,-0.484 0.613,-0.388 0.904,-1.001 0.904,-1.775 0,-0.549 -0.097,-1.001 -0.355,-1.323 -0.193,-0.291 -0.516,-0.549 -1,-0.872 -0.678,-0.419 -1.162,-0.678 -1.453,-0.871 -0.452,-0.322 -0.678,-0.71 -0.678,-1.098 0,-0.258 0.065,-0.451 0.162,-0.613 0.258,-0.29 0.613,-0.451 1.065,-0.451 0.807,0 1.323,0.516 1.517,1.484 h 0.387 z m 4.616,7.617 v -0.29 c -0.226,0 -0.419,-0.032 -0.581,-0.064 -0.387,-0.13 -0.549,-0.517 -0.549,-1.162 v -6.358 l -2.292,0.42 v 0.258 c 0.387,0.032 0.646,0.129 0.807,0.226 0.194,0.194 0.291,0.452 0.291,0.872 v 4.583 c 0,0.452 -0.065,0.774 -0.259,0.968 -0.161,0.162 -0.452,0.259 -0.839,0.259 v 0.29 h 3.422 z m -1.194,-9.715 a 0.831,0.831 0 0 0 0.258,-0.646 c 0,-0.291 -0.065,-0.517 -0.226,-0.71 C 83.63,18.397 83.404,18.3 83.178,18.3 c -0.226,0 -0.452,0.097 -0.613,0.259 -0.161,0.193 -0.226,0.419 -0.226,0.71 0,0.258 0.065,0.452 0.226,0.646 0.194,0.193 0.387,0.29 0.613,0.29 0.226,0 0.419,-0.096 0.581,-0.29 z m 3.163,3.745 c 0.291,-0.84 0.71,-1.291 1.324,-1.291 0.581,0 1,0.451 1.292,1.291 0.16,0.613 0.258,1.323 0.258,2.13 0,0.807 -0.098,1.517 -0.258,2.099 -0.291,0.871 -0.711,1.291 -1.292,1.291 -0.42,0 -0.743,-0.162 -1.001,-0.517 -0.387,-0.581 -0.613,-1.55 -0.613,-2.873 -0.001,-0.839 0.096,-1.549 0.29,-2.13 z m 5.164,5.745 v -0.29 c -0.387,-0.033 -0.645,-0.098 -0.807,-0.259 -0.193,-0.129 -0.291,-0.42 -0.291,-0.839 V 17.979 l -2.324,0.387 v 0.291 c 0.389,0.064 0.646,0.129 0.809,0.258 0.225,0.161 0.322,0.452 0.322,0.839 v 3.293 h -0.033 c -0.354,-0.871 -0.936,-1.291 -1.71,-1.291 -0.968,0 -1.678,0.42 -2.162,1.259 -0.388,0.678 -0.581,1.613 -0.581,2.775 0,1.162 0.193,2.065 0.581,2.776 0.484,0.807 1.194,1.227 2.162,1.227 0.323,0 0.677,-0.129 1.033,-0.388 0.355,-0.226 0.582,-0.517 0.678,-0.839 h 0.033 v 1.227 z m 4.262,-1.033 c -0.291,0.484 -0.678,0.743 -1.195,0.743 -0.291,0 -0.549,-0.194 -0.742,-0.484 -0.162,-0.323 -0.258,-0.613 -0.258,-1.001 0,-1.098 0.871,-1.679 2.613,-1.711 v 0.969 c 0,0.58 -0.129,1.097 -0.418,1.484 z m 2.226,1 c -0.453,0 -0.646,-0.258 -0.646,-0.807 v -4.132 c 0,-0.581 -0.064,-1.065 -0.193,-1.452 -0.258,-0.807 -1,-1.227 -2.227,-1.227 -0.355,0 -0.742,0.064 -1.131,0.193 -0.902,0.29 -1.355,0.774 -1.355,1.452 0,0.517 0.26,0.743 0.711,0.743 0.484,0 0.711,-0.291 0.711,-0.872 0,-0.388 0.096,-0.646 0.289,-0.774 0.162,-0.129 0.389,-0.193 0.775,-0.193 0.355,0 0.645,0.129 0.84,0.322 0.289,0.355 0.418,1.033 0.418,2.098 v 0.613 l -1.129,0.13 a 5.833,5.833 0 0 0 -1.389,0.354 c -0.967,0.355 -1.42,1.065 -1.42,2.098 0,0.355 0.064,0.679 0.227,0.969 0.322,0.613 0.84,0.904 1.549,0.904 0.904,0 1.613,-0.42 2.098,-1.227 h 0.033 c 0,0.807 0.387,1.227 1.162,1.227 0.355,0 0.709,-0.033 1.064,-0.129 v -0.355 c -0.16,0.033 -0.291,0.065 -0.387,0.065 z m 2.42,-5.712 c 0.291,-0.84 0.711,-1.291 1.324,-1.291 0.58,0 1,0.451 1.258,1.291 0.195,0.613 0.291,1.323 0.291,2.13 0,0.807 -0.096,1.517 -0.291,2.099 -0.258,0.871 -0.678,1.291 -1.258,1.291 -0.42,0 -0.742,-0.162 -1,-0.517 -0.389,-0.581 -0.613,-1.55 -0.613,-2.873 0,-0.839 0.096,-1.549 0.289,-2.13 z m 5.164,5.745 v -0.29 c -0.387,-0.033 -0.678,-0.098 -0.807,-0.259 -0.193,-0.129 -0.322,-0.42 -0.322,-0.839 V 17.979 l -2.291,0.387 v 0.291 c 0.387,0.064 0.645,0.129 0.807,0.258 0.227,0.161 0.322,0.452 0.322,0.839 v 3.293 h -0.031 c -0.389,-0.871 -0.938,-1.291 -1.711,-1.291 -0.969,0 -1.711,0.42 -2.164,1.259 -0.387,0.678 -0.58,1.613 -0.58,2.775 0,1.162 0.193,2.065 0.58,2.776 0.453,0.807 1.195,1.227 2.164,1.227 0.322,0 0.645,-0.129 1.033,-0.388 0.354,-0.226 0.58,-0.517 0.678,-0.839 h 0.031 v 1.227 z m 6.004,-5.745 c 0.291,-0.84 0.711,-1.291 1.324,-1.291 0.58,0 1,0.451 1.291,1.291 0.16,0.613 0.258,1.323 0.258,2.13 0,0.807 -0.098,1.517 -0.258,2.099 -0.291,0.871 -0.711,1.291 -1.291,1.291 -0.42,0 -0.742,-0.162 -1.002,-0.517 -0.387,-0.581 -0.613,-1.55 -0.613,-2.873 0,-0.839 0.098,-1.549 0.291,-2.13 z m 5.164,5.745 v -0.29 c -0.387,-0.033 -0.645,-0.098 -0.807,-0.259 -0.193,-0.129 -0.291,-0.42 -0.291,-0.839 V 17.979 l -2.322,0.387 v 0.291 c 0.387,0.064 0.645,0.129 0.807,0.258 0.225,0.161 0.322,0.452 0.322,0.839 v 3.293 h -0.033 c -0.354,-0.871 -0.936,-1.291 -1.709,-1.291 -0.969,0 -1.68,0.42 -2.164,1.259 -0.387,0.678 -0.58,1.613 -0.58,2.775 0,1.162 0.193,2.065 0.58,2.776 0.484,0.807 1.195,1.227 2.164,1.227 0.322,0 0.678,-0.129 1.031,-0.388 0.355,-0.226 0.582,-0.517 0.678,-0.839 h 0.033 v 1.227 z m 1.744,-5.908 c 0.289,-0.774 0.773,-1.193 1.42,-1.193 0.355,0 0.645,0.097 0.871,0.29 0.355,0.388 0.549,0.968 0.549,1.743 h -3.002 c 0,-0.226 0.033,-0.484 0.162,-0.84 z m 2.938,5.682 c -1.002,0 -1.775,-0.452 -2.357,-1.324 -0.484,-0.807 -0.742,-1.807 -0.742,-2.969 h 4.326 v -0.355 c 0,-0.613 -0.098,-1.13 -0.324,-1.549 -0.451,-0.807 -1.193,-1.227 -2.227,-1.227 -2.002,0 -3.033,1.259 -3.033,3.809 0,0.903 0.129,1.678 0.418,2.324 0.549,1.291 1.646,1.904 3.195,1.904 0.711,0 1.324,-0.098 1.775,-0.291 v -0.549 c -0.258,0.163 -0.58,0.227 -1.031,0.227 z m 8.068,0.451 v -0.322 c -0.227,0 -0.42,-0.032 -0.549,-0.064 -0.322,-0.064 -0.484,-0.227 -0.484,-0.549 0,-0.129 0.033,-0.388 0.162,-0.775 l 0.645,-2.001 h 3.744 l 0.711,2.131 c 0.098,0.258 0.129,0.483 0.129,0.678 0,0.388 -0.355,0.581 -1.064,0.581 v 0.322 h 3.904 v -0.322 c -0.322,0 -0.58,-0.064 -0.807,-0.227 -0.355,-0.226 -0.678,-0.742 -0.936,-1.517 l -3.1,-9.264 h -0.838 l -3.1,9.135 c -0.16,0.517 -0.322,0.903 -0.451,1.162 -0.193,0.483 -0.646,0.71 -1.324,0.71 v 0.322 z m 3.324,-4.357 h -3.355 l 1.678,-5.132 z m 7.651,4.357 v -0.29 c -0.227,0 -0.42,-0.032 -0.582,-0.064 -0.354,-0.13 -0.549,-0.517 -0.549,-1.162 V 17.979 l -2.291,0.387 v 0.291 c 0.387,0.064 0.646,0.129 0.807,0.258 0.227,0.161 0.324,0.452 0.324,0.839 v 8.36 c 0,0.452 -0.098,0.774 -0.26,0.968 -0.16,0.162 -0.451,0.259 -0.871,0.259 v 0.29 h 3.422 z m 4.164,0 v -0.29 c -0.227,0 -0.42,-0.032 -0.582,-0.064 -0.387,-0.13 -0.549,-0.517 -0.549,-1.162 v -6.358 l -2.291,0.42 v 0.258 c 0.387,0.032 0.645,0.129 0.807,0.226 0.193,0.194 0.291,0.452 0.291,0.872 v 4.583 c 0,0.452 -0.098,0.774 -0.258,0.968 -0.162,0.162 -0.453,0.259 -0.84,0.259 v 0.29 h 3.422 z m -1.196,-9.715 a 0.831,0.831 0 0 0 0.258,-0.646 c 0,-0.291 -0.064,-0.517 -0.225,-0.71 a 0.884,0.884 0 0 0 -0.613,-0.259 0.875,0.875 0 0 0 -0.613,0.259 c -0.162,0.193 -0.227,0.419 -0.227,0.71 0,0.258 0.064,0.452 0.227,0.646 0.193,0.193 0.387,0.29 0.613,0.29 0.225,0.001 0.418,-0.096 0.58,-0.29 z m 6.069,9.264 a 2.828,2.828 0 0 1 -1.742,-0.581 c -1.066,-0.808 -1.582,-2.034 -1.582,-3.583 0,-0.613 0.096,-1.098 0.258,-1.518 0.291,-0.774 0.807,-1.193 1.549,-1.193 0.582,0 0.904,0.226 1.033,0.71 0.064,0.387 0.129,0.613 0.227,0.742 0.129,0.226 0.322,0.354 0.58,0.354 0.453,0 0.678,-0.258 0.678,-0.807 0,-0.581 -0.258,-1 -0.807,-1.259 -0.42,-0.193 -0.902,-0.29 -1.518,-0.29 -0.742,0 -1.355,0.129 -1.838,0.451 -0.938,0.613 -1.389,1.743 -1.389,3.325 0,1.355 0.291,2.388 0.904,3.131 0.645,0.742 1.613,1.13 2.871,1.13 0.646,0 1.162,-0.065 1.615,-0.259 v -0.484 a 2.929,2.929 0 0 1 -0.839,0.131 z m 5.133,-0.807 c -0.324,0.484 -0.711,0.743 -1.195,0.743 -0.322,0 -0.58,-0.194 -0.775,-0.484 -0.16,-0.323 -0.258,-0.613 -0.258,-1.001 0,-1.098 0.873,-1.679 2.615,-1.711 v 0.969 c -0.001,0.58 -0.13,1.097 -0.387,1.484 z m 2.193,1 c -0.418,0 -0.645,-0.258 -0.645,-0.807 v -4.132 c 0,-0.581 -0.033,-1.065 -0.193,-1.452 -0.258,-0.807 -1.002,-1.227 -2.229,-1.227 -0.354,0 -0.709,0.064 -1.098,0.193 -0.936,0.29 -1.355,0.774 -1.355,1.452 0,0.517 0.227,0.743 0.711,0.743 0.451,0 0.711,-0.291 0.711,-0.872 0,-0.388 0.064,-0.646 0.258,-0.774 0.16,-0.129 0.42,-0.193 0.773,-0.193 0.389,0 0.678,0.129 0.84,0.322 0.291,0.355 0.42,1.033 0.42,2.098 v 0.613 l -1.131,0.13 a 5.19,5.19 0 0 0 -1.355,0.354 c -0.967,0.355 -1.451,1.065 -1.451,2.098 0,0.355 0.064,0.679 0.225,0.969 0.355,0.613 0.84,0.904 1.551,0.904 0.936,0 1.646,-0.42 2.129,-1.227 h 0.033 c 0,0.807 0.355,1.227 1.129,1.227 0.389,0 0.742,-0.033 1.098,-0.129 v -0.355 c -0.194,0.033 -0.323,0.065 -0.421,0.065 z m 4.357,0.258 v -0.29 a 3,3 0 0 1 -0.613,-0.064 c -0.354,-0.13 -0.549,-0.517 -0.549,-1.162 v -2.065 c 0,-0.549 0.129,-1.065 0.324,-1.614 0.16,-0.42 0.354,-0.839 0.645,-1.194 0.324,-0.452 0.646,-0.678 1.002,-0.678 0.482,0 0.807,0.226 0.902,0.678 0.064,0.161 0.098,0.646 0.098,1.42 v 3.454 c 0,0.452 -0.098,0.774 -0.258,0.968 -0.195,0.162 -0.484,0.259 -0.904,0.259 v 0.29 h 3.453 v -0.29 c -0.227,0 -0.42,-0.032 -0.613,-0.064 -0.355,-0.13 -0.516,-0.517 -0.516,-1.162 v -3.841 c 0,-0.872 -0.098,-1.485 -0.291,-1.84 -0.227,-0.452 -0.711,-0.678 -1.42,-0.678 -1.066,0 -1.873,0.742 -2.389,2.227 h -0.033 v -2.227 l -2.291,0.42 v 0.258 c 0.387,0.032 0.646,0.129 0.84,0.226 0.193,0.194 0.291,0.452 0.291,0.872 v 4.583 c 0,0.452 -0.098,0.774 -0.26,0.968 -0.193,0.162 -0.451,0.259 -0.871,0.259 v 0.29 h 3.453 z m 7.682,-0.386 c -0.482,0 -0.838,-0.098 -1.031,-0.323 -0.195,-0.193 -0.291,-0.613 -0.291,-1.162 v -5.293 h 1.938 v -0.549 h -1.938 v -2.518 h -0.387 c 0,0.581 -0.064,1.065 -0.26,1.452 -0.289,0.71 -0.871,1.065 -1.742,1.065 v 0.549 h 1.227 v 4.841 c 0,1.001 0.098,1.679 0.355,1.97 0.291,0.354 0.936,0.517 2,0.517 0.162,0 0.42,0 0.744,-0.065 V 29.18 c -0.388,0.03 -0.582,0.064 -0.615,0.064 z m 2.1,-5.747 c 0.289,-0.774 0.773,-1.193 1.42,-1.193 0.355,0 0.645,0.097 0.871,0.29 0.355,0.388 0.549,0.968 0.549,1.743 h -3.002 c 0,-0.226 0.064,-0.484 0.162,-0.84 z m 2.937,5.682 c -0.969,0 -1.775,-0.452 -2.357,-1.324 -0.484,-0.807 -0.742,-1.807 -0.742,-2.969 h 4.357 v -0.355 c 0,-0.613 -0.129,-1.13 -0.355,-1.549 -0.451,-0.807 -1.193,-1.227 -2.227,-1.227 -2.002,0 -3.033,1.259 -3.033,3.809 0,0.903 0.16,1.678 0.418,2.324 0.549,1.291 1.646,1.904 3.195,1.904 0.711,0 1.324,-0.098 1.809,-0.291 v -0.549 c -0.258,0.163 -0.614,0.227 -1.065,0.227 z M 44.575,1.291 C 44.736,0.968 45.124,0.807 45.737,0.807 V 0.485 h -3.454 v 0.322 c 0.484,0 0.839,0.129 1.033,0.291 0.193,0.194 0.258,0.549 0.258,1.098 V 7.78 c 0,1.162 -0.129,1.969 -0.419,2.485 -0.387,0.614 -1.065,0.937 -2.066,0.937 -0.452,0 -0.839,-0.097 -1.162,-0.291 C 39.185,10.459 38.798,9.426 38.798,7.812 V 2.196 c 0,-0.549 0.097,-0.904 0.291,-1.098 0.194,-0.194 0.517,-0.291 1,-0.291 V 0.485 h -3.938 v 0.322 c 0.323,0 0.549,0.033 0.742,0.097 0.387,0.129 0.581,0.549 0.581,1.292 V 7.78 c 0,0.904 0.064,1.614 0.258,2.195 0.355,1.227 1.484,1.872 3.292,1.872 1.42,0 2.356,-0.388 2.873,-1.13 0.354,-0.581 0.548,-1.582 0.548,-2.905 V 2.196 c 0,-0.42 0.032,-0.711 0.13,-0.905 z m 4.292,10.362 v -0.259 c -0.226,0 -0.419,-0.032 -0.581,-0.097 -0.355,-0.129 -0.548,-0.517 -0.548,-1.162 V 8.07 c 0,-0.517 0.097,-1.065 0.291,-1.614 0.161,-0.419 0.387,-0.807 0.646,-1.162 0.355,-0.484 0.678,-0.71 1,-0.71 0.517,0 0.807,0.226 0.936,0.678 0.032,0.162 0.065,0.646 0.065,1.42 v 3.454 c 0,0.452 -0.065,0.775 -0.259,0.969 -0.161,0.193 -0.452,0.29 -0.872,0.29 v 0.259 h 3.454 v -0.259 c -0.258,0 -0.452,-0.032 -0.613,-0.097 -0.354,-0.129 -0.548,-0.517 -0.548,-1.162 V 6.327 c 0,-0.904 -0.065,-1.517 -0.258,-1.84 -0.226,-0.484 -0.71,-0.71 -1.452,-0.71 -1.065,0 -1.84,0.742 -2.356,2.227 H 47.74 V 3.777 l -2.292,0.42 v 0.29 c 0.388,0.032 0.646,0.097 0.807,0.226 0.194,0.162 0.323,0.452 0.323,0.839 v 4.583 c 0,0.452 -0.097,0.775 -0.258,0.969 -0.194,0.193 -0.484,0.29 -0.872,0.29 v 0.259 z m 8.296,0 v -0.259 c -0.258,0 -0.452,-0.032 -0.613,-0.097 -0.355,-0.129 -0.517,-0.517 -0.517,-1.162 V 3.777 l -2.324,0.42 v 0.29 c 0.387,0.032 0.678,0.097 0.839,0.226 0.194,0.162 0.291,0.452 0.291,0.839 v 4.583 c 0,0.452 -0.097,0.775 -0.258,0.969 -0.162,0.193 -0.452,0.29 -0.872,0.29 v 0.259 z M 55.968,1.937 C 56.129,1.776 56.226,1.55 56.226,1.291 56.226,1.032 56.162,0.774 56,0.613 A 0.793,0.793 0 0 0 55.387,0.322 0.748,0.748 0 0 0 54.774,0.613 c -0.161,0.161 -0.258,0.419 -0.258,0.678 0,0.259 0.097,0.484 0.258,0.646 a 0.753,0.753 0 0 0 0.613,0.291 0.738,0.738 0 0 0 0.581,-0.291 z m 5.326,9.909 2.098,-6.133 c 0.193,-0.549 0.355,-0.904 0.484,-1.065 0.193,-0.226 0.516,-0.388 0.968,-0.42 v -0.29 h -2.711 v 0.29 c 0.452,0.032 0.678,0.226 0.678,0.581 0,0.129 -0.032,0.387 -0.161,0.71 L 61.165,10.038 59.454,5.455 A 1.802,1.802 0 0 1 59.26,4.648 c 0,-0.258 0.226,-0.42 0.646,-0.42 v -0.29 h -3.163 v 0.29 c 0.291,0 0.549,0.065 0.743,0.226 0.258,0.194 0.548,0.613 0.807,1.323 l 2.291,6.068 h 0.71 z m 4.454,-6.294 c 0.258,-0.807 0.743,-1.227 1.42,-1.227 0.355,0 0.613,0.129 0.839,0.323 0.387,0.355 0.581,0.936 0.581,1.743 h -3.034 c 0.001,-0.226 0.065,-0.516 0.194,-0.839 z m 2.905,5.649 c -0.968,0 -1.775,-0.42 -2.324,-1.323 C 65.813,9.071 65.555,8.103 65.555,6.94 h 4.357 V 6.553 c 0,-0.613 -0.129,-1.13 -0.355,-1.549 -0.452,-0.807 -1.194,-1.227 -2.195,-1.227 -2.033,0 -3.034,1.291 -3.034,3.809 0,0.937 0.129,1.71 0.419,2.324 0.549,1.291 1.614,1.937 3.195,1.937 0.678,0 1.291,-0.129 1.775,-0.323 v -0.517 c -0.257,0.129 -0.612,0.194 -1.064,0.194 z m 5.39,0.452 v -0.259 c -0.226,0 -0.42,-0.032 -0.581,-0.097 -0.388,-0.129 -0.549,-0.517 -0.549,-1.162 V 7.618 c 0,-0.871 0.129,-1.582 0.452,-2.065 0.258,-0.42 0.484,-0.613 0.678,-0.613 0.032,0 0.161,0.064 0.355,0.193 0.194,0.129 0.355,0.194 0.484,0.194 0.484,0 0.743,-0.258 0.743,-0.775 A 0.781,0.781 0 0 0 75.399,4.003 0.644,0.644 0 0 0 74.882,3.777 c -0.903,0 -1.549,0.613 -1.937,1.808 H 72.913 V 3.777 l -2.292,0.42 v 0.29 c 0.387,0.032 0.646,0.097 0.807,0.226 0.194,0.129 0.291,0.452 0.291,0.839 v 4.583 c 0,0.452 -0.097,0.775 -0.258,0.969 -0.162,0.193 -0.452,0.29 -0.839,0.29 v 0.259 z M 80.402,4.067 A 4.874,4.874 0 0 0 78.691,3.776 c -0.71,0 -1.291,0.162 -1.71,0.452 -0.517,0.355 -0.775,0.904 -0.775,1.646 0,0.613 0.258,1.129 0.775,1.582 0.194,0.161 0.549,0.387 1.065,0.678 0.484,0.291 0.839,0.517 1.033,0.678 0.419,0.355 0.613,0.742 0.613,1.098 0,0.419 -0.161,0.742 -0.484,1 -0.291,0.258 -0.613,0.387 -0.968,0.387 -0.936,0 -1.517,-0.549 -1.775,-1.614 h -0.387 l 0.129,1.84 a 5.474,5.474 0 0 0 1.905,0.323 c 0.774,0 1.388,-0.193 1.872,-0.484 0.581,-0.42 0.904,-1 0.904,-1.775 0,-0.549 -0.129,-1 -0.355,-1.355 C 80.34,7.974 79.985,7.683 79.5,7.36 A 686.92,686.92 0 0 1 78.048,6.488 C 77.596,6.166 77.37,5.81 77.37,5.391 c 0,-0.258 0.064,-0.452 0.193,-0.613 0.226,-0.291 0.581,-0.452 1.065,-0.452 0.775,0 1.291,0.517 1.485,1.517 h 0.388 z m 4.583,7.586 v -0.259 c -0.226,0 -0.419,-0.032 -0.581,-0.097 -0.355,-0.129 -0.549,-0.517 -0.549,-1.162 V 3.777 l -2.292,0.42 v 0.29 c 0.387,0.032 0.646,0.097 0.807,0.226 0.194,0.162 0.323,0.452 0.323,0.839 v 4.583 c 0,0.452 -0.097,0.775 -0.258,0.969 -0.194,0.193 -0.484,0.29 -0.872,0.29 v 0.259 z M 83.823,1.937 c 0.162,-0.161 0.258,-0.387 0.258,-0.646 0,-0.259 -0.097,-0.517 -0.258,-0.678 A 0.75,0.75 0 0 0 83.21,0.322 0.793,0.793 0 0 0 82.597,0.613 c -0.161,0.161 -0.226,0.419 -0.226,0.678 0,0.259 0.097,0.484 0.259,0.646 0.161,0.193 0.354,0.291 0.581,0.291 a 0.753,0.753 0 0 0 0.612,-0.291 z m 5.036,9.36 c -0.485,0 -0.84,-0.129 -1.034,-0.323 -0.194,-0.226 -0.291,-0.613 -0.291,-1.162 V 4.519 h 1.938 V 3.938 H 87.534 V 1.42 h -0.387 c 0,0.581 -0.065,1.065 -0.226,1.453 -0.323,0.71 -0.904,1.065 -1.743,1.065 v 0.581 h 1.194 v 4.81 c 0,1.033 0.129,1.678 0.355,1.969 0.291,0.355 0.969,0.549 2.034,0.549 0.129,0 0.387,-0.032 0.711,-0.097 v -0.548 c -0.355,0.063 -0.548,0.095 -0.613,0.095 z m 4.809,-0.871 c -0.322,0.484 -0.711,0.71 -1.227,0.71 -0.291,0 -0.549,-0.162 -0.742,-0.484 A 1.966,1.966 0 0 1 91.441,9.684 c 0,-1.13 0.871,-1.678 2.613,-1.743 v 0.968 c 0.001,0.581 -0.128,1.097 -0.386,1.517 z m 2.195,0.968 c -0.42,0 -0.646,-0.258 -0.646,-0.807 V 6.455 c 0,-0.581 -0.064,-1.065 -0.193,-1.42 -0.258,-0.839 -1,-1.259 -2.227,-1.259 -0.355,0 -0.742,0.064 -1.131,0.193 -0.902,0.291 -1.355,0.775 -1.355,1.453 0,0.517 0.258,0.775 0.711,0.775 0.484,0 0.709,-0.323 0.709,-0.904 0,-0.387 0.098,-0.613 0.291,-0.775 0.162,-0.097 0.42,-0.193 0.775,-0.193 0.354,0 0.645,0.129 0.838,0.355 0.291,0.323 0.42,1 0.42,2.066 V 7.391 L 92.926,7.52 c -0.518,0.064 -0.969,0.161 -1.389,0.323 -0.936,0.355 -1.42,1.065 -1.42,2.098 0,0.354 0.064,0.678 0.227,0.968 0.322,0.613 0.838,0.936 1.549,0.936 0.936,0 1.613,-0.42 2.131,-1.259 h 0.031 c 0,0.839 0.355,1.259 1.131,1.259 0.354,0 0.709,-0.064 1.098,-0.162 v -0.355 a 1.183,1.183 0 0 1 -0.421,0.066 z m 4.164,-0.097 c -0.484,0 -0.84,-0.129 -1.033,-0.323 -0.193,-0.226 -0.291,-0.613 -0.291,-1.162 V 4.519 h 1.936 V 3.938 H 98.703 V 1.42 h -0.387 c 0,0.581 -0.064,1.065 -0.227,1.453 -0.322,0.71 -0.904,1.065 -1.775,1.065 v 0.581 h 1.227 v 4.81 c 0,1.033 0.129,1.678 0.355,1.969 0.291,0.355 0.969,0.549 2.033,0.549 0.129,0 0.387,-0.032 0.709,-0.097 v -0.548 c -0.353,0.063 -0.546,0.095 -0.611,0.095 z m 6.649,-5.616 c 0.291,-0.839 0.709,-1.259 1.322,-1.259 0.582,0 1.002,0.42 1.291,1.291 0.162,0.581 0.26,1.291 0.26,2.098 0,0.807 -0.098,1.518 -0.26,2.099 -0.289,0.871 -0.709,1.291 -1.291,1.291 -0.418,0 -0.742,-0.162 -1,-0.484 -0.387,-0.581 -0.613,-1.549 -0.613,-2.905 0,-0.84 0.097,-1.518 0.291,-2.131 z m 5.164,5.745 v -0.29 c -0.387,-0.032 -0.646,-0.097 -0.807,-0.226 -0.193,-0.162 -0.291,-0.452 -0.291,-0.872 V 0 l -2.324,0.419 v 0.258 c 0.389,0.064 0.646,0.129 0.807,0.291 0.227,0.161 0.324,0.419 0.324,0.807 v 3.292 h -0.033 c -0.355,-0.871 -0.936,-1.291 -1.711,-1.291 -0.969,0 -1.678,0.42 -2.162,1.259 -0.387,0.71 -0.58,1.646 -0.58,2.775 0,1.163 0.193,2.066 0.58,2.776 0.484,0.839 1.193,1.259 2.162,1.259 0.322,0 0.678,-0.162 1.033,-0.388 0.355,-0.258 0.582,-0.548 0.678,-0.871 h 0.033 v 1.259 z m 2.195,-8.036 c 0.42,-0.614 0.613,-1.259 0.613,-1.904 0,-0.775 -0.324,-1.162 -0.938,-1.162 -0.258,0 -0.451,0.097 -0.645,0.258 -0.162,0.161 -0.227,0.387 -0.227,0.678 0,0.258 0.033,0.452 0.193,0.613 0.064,0.097 0.227,0.193 0.484,0.258 0.193,0.033 0.291,0.129 0.291,0.259 0,0.484 -0.258,1 -0.711,1.549 h 0.484 c 0.132,-0.098 0.294,-0.291 0.456,-0.549 z m 4.26,8.263 V 11.33 c -0.193,0 -0.387,0 -0.549,-0.032 -0.322,-0.097 -0.484,-0.258 -0.484,-0.549 0,-0.161 0.033,-0.419 0.162,-0.807 l 0.645,-1.969 h 3.744 l 0.711,2.098 c 0.098,0.258 0.129,0.484 0.129,0.71 0,0.355 -0.355,0.549 -1.064,0.549 v 0.323 h 3.904 V 11.33 c -0.322,0 -0.58,-0.064 -0.807,-0.226 -0.355,-0.226 -0.678,-0.71 -0.936,-1.485 l -3.098,-9.295 h -0.84 l -3.1,9.134 c -0.16,0.517 -0.322,0.904 -0.418,1.162 -0.227,0.484 -0.678,0.71 -1.357,0.71 v 0.323 z m 3.324,-4.358 h -3.355 l 1.678,-5.1 z m 7.522,4.358 v -0.259 c -0.258,0 -0.453,-0.032 -0.613,-0.097 -0.355,-0.129 -0.518,-0.517 -0.518,-1.162 V 0 l -2.322,0.419 v 0.258 c 0.387,0.064 0.678,0.129 0.838,0.258 0.193,0.161 0.291,0.452 0.291,0.839 v 8.359 c 0,0.452 -0.064,0.775 -0.227,0.969 -0.193,0.193 -0.484,0.29 -0.902,0.29 v 0.259 h 3.453 z m 3.937,-1.227 c -0.322,0.484 -0.711,0.71 -1.195,0.71 -0.322,0 -0.58,-0.162 -0.773,-0.484 a 1.966,1.966 0 0 1 -0.258,-0.968 c 0,-1.13 0.871,-1.678 2.613,-1.743 v 0.968 c 0,0.581 -0.129,1.097 -0.387,1.517 z m 2.195,0.968 c -0.42,0 -0.613,-0.258 -0.613,-0.807 V 6.455 c 0,-0.581 -0.064,-1.065 -0.195,-1.42 -0.289,-0.839 -1,-1.259 -2.227,-1.259 -0.387,0 -0.742,0.064 -1.129,0.193 -0.904,0.291 -1.355,0.775 -1.355,1.453 0,0.517 0.225,0.775 0.709,0.775 0.453,0 0.711,-0.323 0.711,-0.904 0,-0.387 0.064,-0.613 0.258,-0.775 0.162,-0.097 0.42,-0.193 0.775,-0.193 0.387,0 0.678,0.129 0.871,0.355 0.258,0.323 0.387,1 0.387,2.066 v 0.645 l -1.129,0.129 a 5.876,5.876 0 0 0 -1.355,0.323 c -0.969,0.355 -1.453,1.065 -1.453,2.098 0,0.354 0.098,0.678 0.258,0.968 0.324,0.613 0.84,0.936 1.518,0.936 0.936,0 1.646,-0.42 2.131,-1.259 h 0.031 c 0,0.839 0.389,1.259 1.131,1.259 0.387,0 0.742,-0.064 1.096,-0.162 v -0.355 c -0.195,0.066 -0.324,0.066 -0.42,0.066 z m 5.325,-0.193 a 2.83,2.83 0 0 1 -1.742,-0.581 c -1.033,-0.807 -1.549,-2.001 -1.549,-3.583 0,-0.613 0.064,-1.097 0.227,-1.517 0.289,-0.775 0.807,-1.194 1.549,-1.194 0.58,0 0.936,0.258 1.033,0.742 0.064,0.355 0.16,0.581 0.225,0.71 0.129,0.226 0.324,0.355 0.582,0.355 0.451,0 0.709,-0.258 0.709,-0.807 0,-0.581 -0.289,-1 -0.838,-1.259 -0.42,-0.194 -0.904,-0.291 -1.518,-0.291 -0.742,0 -1.355,0.162 -1.84,0.452 -0.936,0.614 -1.389,1.743 -1.389,3.357 0,1.323 0.324,2.356 0.938,3.099 0.645,0.774 1.58,1.162 2.871,1.162 0.613,0 1.162,-0.097 1.582,-0.291 v -0.484 a 2.96,2.96 0 0 1 -0.84,0.13 z m 5.423,-0.775 c -0.291,0.484 -0.678,0.71 -1.195,0.71 -0.289,0 -0.549,-0.162 -0.742,-0.484 a 1.987,1.987 0 0 1 -0.258,-0.968 c 0,-1.13 0.871,-1.678 2.615,-1.743 v 0.968 c 0,0.581 -0.131,1.097 -0.42,1.517 z m 2.227,0.968 c -0.42,0 -0.645,-0.258 -0.645,-0.807 V 6.455 c 0,-0.581 -0.066,-1.065 -0.195,-1.42 -0.258,-0.839 -1,-1.259 -2.227,-1.259 a 3.61,3.61 0 0 0 -1.129,0.193 c -0.904,0.291 -1.355,0.775 -1.355,1.453 0,0.517 0.258,0.775 0.709,0.775 0.484,0 0.711,-0.323 0.711,-0.904 0,-0.387 0.096,-0.613 0.289,-0.775 0.162,-0.097 0.389,-0.193 0.775,-0.193 0.355,0 0.646,0.129 0.84,0.355 0.289,0.323 0.42,1 0.42,2.066 V 7.391 L 145.31,7.52 c -0.516,0.064 -0.969,0.161 -1.387,0.323 -0.969,0.355 -1.422,1.065 -1.422,2.098 0,0.354 0.066,0.678 0.227,0.968 0.322,0.613 0.84,0.936 1.549,0.936 0.904,0 1.615,-0.42 2.131,-1.259 0,0.839 0.387,1.259 1.162,1.259 a 3.99,3.99 0 0 0 1.064,-0.162 v -0.355 c -0.159,0.066 -0.288,0.066 -0.386,0.066 z m 4.615,0.259 v -0.259 c -0.225,0 -0.42,-0.032 -0.58,-0.097 -0.355,-0.129 -0.549,-0.517 -0.549,-1.162 V 8.07 c 0,-0.517 0.129,-1.065 0.322,-1.614 0.162,-0.419 0.355,-0.807 0.613,-1.162 0.355,-0.484 0.678,-0.71 1,-0.71 0.518,0 0.807,0.226 0.938,0.678 0.064,0.162 0.064,0.646 0.064,1.42 v 3.454 c 0,0.452 -0.064,0.775 -0.227,0.969 -0.193,0.193 -0.484,0.29 -0.904,0.29 v 0.259 h 3.455 v -0.259 c -0.26,0 -0.453,-0.032 -0.615,-0.097 -0.354,-0.129 -0.516,-0.517 -0.516,-1.162 V 6.327 c 0,-0.904 -0.096,-1.517 -0.291,-1.84 -0.225,-0.484 -0.709,-0.71 -1.451,-0.71 -1.066,0 -1.84,0.742 -2.357,2.227 h -0.031 V 3.777 l -2.293,0.42 v 0.29 c 0.389,0.032 0.646,0.097 0.809,0.226 0.193,0.162 0.322,0.452 0.322,0.839 v 4.583 c 0,0.452 -0.098,0.775 -0.258,0.969 -0.195,0.193 -0.484,0.29 -0.873,0.29 v 0.259 z m 7.553,-0.356 c -0.484,0 -0.838,-0.129 -1.033,-0.323 -0.193,-0.226 -0.289,-0.613 -0.289,-1.162 V 4.519 h 1.936 V 3.938 h -1.936 V 1.42 h -0.389 c 0,0.581 -0.064,1.065 -0.225,1.453 -0.324,0.71 -0.904,1.065 -1.775,1.065 v 0.581 h 1.227 v 4.81 c 0,1.033 0.129,1.678 0.355,1.969 0.289,0.355 0.967,0.549 2.033,0.549 0.129,0 0.387,-0.032 0.709,-0.097 v -0.548 a 6.223,6.223 0 0 1 -0.613,0.095 z"
       id="path20"
       inkscape:connector-curvature="0"
       style="clip-rule:evenodd;fill:#005981;fill-rule:evenodd" />
  </g>
</svg>
