<?xml version="1.0" encoding="UTF-8" standalone="no"?>
<!-- Created with Inkscape (http://www.inkscape.org/) -->

<svg
   xmlns:dc="http://purl.org/dc/elements/1.1/"
   xmlns:cc="http://creativecommons.org/ns#"
   xmlns:rdf="http://www.w3.org/1999/02/22-rdf-syntax-ns#"
   xmlns:svg="http://www.w3.org/2000/svg"
   xmlns="http://www.w3.org/2000/svg"
   xmlns:sodipodi="http://sodipodi.sourceforge.net/DTD/sodipodi-0.dtd"
   xmlns:inkscape="http://www.inkscape.org/namespaces/inkscape"
   width="100.23999mm"
   height="100.23999mm"
   viewBox="0 0 100.23999 100.23999"
   version="1.1"
   id="svg843"
   inkscape:version="0.92.3 (2405546, 2018-03-11)"
   sodipodi:docname="ua.svg">
  <defs
     id="defs837" />
  <sodipodi:namedview
     id="base"
     pagecolor="#ffffff"
     bordercolor="#666666"
     borderopacity="1.0"
     inkscape:pageopacity="0.0"
     inkscape:pageshadow="2"
     inkscape:zoom="2.280527"
     inkscape:cx="189.4299"
     inkscape:cy="189.4299"
     inkscape:document-units="mm"
     inkscape:current-layer="layer1"
     showgrid="false"
     fit-margin-top="0"
     fit-margin-left="0"
     fit-margin-right="0"
     fit-margin-bottom="0"
     inkscape:window-width="1920"
     inkscape:window-height="1047"
     inkscape:window-x="1920"
     inkscape:window-y="0"
     inkscape:window-maximized="1" />
  <metadata
     id="metadata840">
    <rdf:RDF>
      <cc:Work
         rdf:about="">
        <dc:format>image/svg+xml</dc:format>
        <dc:type
           rdf:resource="http://purl.org/dc/dcmitype/StillImage" />
        <dc:title></dc:title>
      </cc:Work>
    </rdf:RDF>
  </metadata>
  <g
     inkscape:label="Capa 1"
     inkscape:groupmode="layer"
     id="layer1"
     transform="translate(577.0188,169.64976)">
    <path
       style="clip-rule:evenodd;fill:#d7ddd8;fill-rule:evenodd;stroke-width:3.43158364"
       inkscape:connector-curvature="0"
       id="path4"
       d="m -577.0188,-169.64976 h 100.23999 V -69.409767 H -577.0188 Z"
       inkscape:export-xdpi="97"
       inkscape:export-ydpi="97" />
    <path
       style="clip-rule:evenodd;fill:#ffffff;fill-rule:evenodd;stroke-width:3.43158364"
       inkscape:connector-curvature="0"
       id="path6"
       d="m -548.77344,-152.48154 71.99463,63.353895 c 0,4.982657 -0.11324,11.516394 0,19.714448 H -577.0188 v -14.289117 z"
       inkscape:export-xdpi="97"
       inkscape:export-ydpi="97" />
    <path
       style="clip-rule:evenodd;fill:#f4cf53;fill-rule:evenodd;stroke-width:3.43158364"
       inkscape:connector-curvature="0"
       id="path8"
       d="m -530.83312,-117.47939 0.33286,0.55248 c 0.33287,0.10981 0.77554,0.10981 1.21822,0.10981 v 0.33287 h 0.77553 l 0.21962,0.77554 0.44268,0.33629 c 0,0 0.11324,-0.55591 0.33286,-0.44267 l 0.33287,1.10497 c 0.44267,-0.10981 1.8805,1.33145 1.8805,1.55107 l 0.33287,0.10981 0.33286,0.55249 0.77554,0.10981 c 0.10981,1.1084 2.2168,2.32661 2.8791,3.21539 h 0.22305 v 1.32803 c -2.10699,-0.21963 -13.18071,-0.33287 -15.28771,0.10981 v -0.10981 l -0.7721,0.10981 v -0.10981 l -0.10981,0.4461 h -2.54624 c 0.21962,-0.4461 -0.66572,-0.33629 -0.44267,0 -0.44267,-0.33629 -1.21821,-0.22305 -1.77413,0 l -0.10981,-0.4461 -0.66573,0.33286 -0.10981,-0.33286 -0.33286,0.4461 h -1.66089 l -0.22305,-0.4461 c -0.10981,0 -0.66573,0.99859 -0.55249,0.10981 a 12.621365,12.621365 0 0 1 -2.87909,0 v -1.54765 l 0.33286,0.10981 c 0.33286,-0.55591 0.55592,-1.44126 0.44267,-2.10356 h 0.33287 c 0.33286,-1.1084 0.88535,-2.2168 0.77554,-3.43501 l 0.33286,0.10981 c 0.33286,-0.33287 0.55248,-0.77554 0.44267,-1.21478 h 0.33287 v -0.55592 c 0.55248,-0.33286 1.32802,-0.55248 1.8805,-0.44267 l 0.10982,0.44267 0.10981,-0.55248 c 0.66572,0.10981 1.21821,0.77554 1.66088,0.55248 0,-0.66229 2.2168,-0.55248 2.54624,-0.55248 l 0.11324,0.10981 0.55249,-0.33287 c 0.10981,-0.21962 0.77553,0.33287 0.33286,0.33287 l 0.77554,0.44267 0.21962,-0.44267 c 0.88534,-0.55249 1.66088,0 2.76928,-0.33287 l 0.10982,0.6623 1.32802,0.10981 0.21962,-0.44268 0.44267,0.44268 0.55592,-0.44268 -0.10981,-0.21962 0.33286,-0.21962 0.10981,0.10981 z"
       inkscape:export-xdpi="97"
       inkscape:export-ydpi="97" />
    <path
       style="clip-rule:evenodd;fill:#d9782d;fill-rule:evenodd;stroke-width:3.43158364"
       inkscape:connector-curvature="0"
       id="path10"
       d="m -507.35079,-97.764942 c 0,0 -0.10981,0.442675 0.21962,0.442675 0.10981,0 0.21962,0.332861 0.44267,0.21962 0.33287,-0.10981 0.22306,0.219622 0.22306,0.219622 0,0 0.33286,0 0.10981,0.223052 l 0.33286,0.332864 h 0.55592 l 0.10981,0.21962 c 0,0 0.33286,0.332865 0.44267,0.662297 0.21962,0.442675 0.66573,0.775539 0.66573,0.775539 0,0 0.10981,0.10981 0.21962,-0.106381 0.11324,-0.223052 0.21962,-0.113242 0.21962,-0.113242 0,0 0.22305,0.219623 0.77554,0.665727 0.10981,0.109812 0,0.442674 0.44267,0.552487 0.22306,0 0.55592,0.332861 0.55592,0.332861 l -0.21962,0.332865 c 0.10981,0.10981 0.55248,0.10981 0.55248,0.332864 0.11324,0.88878 0.77554,0.552484 0.77554,0.552484 0,0 0.21962,0.113242 0,0.555916 -0.33286,0.332865 -0.10981,0.442675 -0.10981,0.442675 0,0 -0.21962,0.662297 -0.10981,1.104971 0,0.446106 0.21962,0.778968 0.21962,0.778968 0,0 -0.77554,0 -1.32802,-0.442674 -0.22305,-0.21962 -0.55592,-0.21962 -0.77554,-0.442675 -0.33286,-0.446106 -0.55248,-0.223051 -0.55248,-0.223051 l -0.33287,0.332864 c -0.22305,-0.106381 -0.33286,-0.442675 -1.55107,0 -1.21822,0.446106 -0.77554,0.113242 -1.33146,0.223052 0,0 -0.44267,0.10981 -0.99516,-0.10981 -0.55591,-0.219623 -0.77554,-0.446106 -0.77554,-0.446106 l -0.66572,0.332864 -0.77554,0.336293 v 0.109813 l -0.99859,-0.332864 -0.77554,0.10981 -0.21962,-0.223052 -0.66573,-0.106381 -0.66572,0.106381 -0.21963,-0.219623 c -0.88535,0.219623 -0.55248,0.446106 -1.21821,0.219623 0,0 -0.33286,-0.106381 -0.44267,0 h -0.33287 l -0.33286,-0.332864 -0.10981,0.446106 c -0.10981,-0.336296 -1.1084,-0.113242 -1.88394,0.10981 l -0.77554,-0.10981 -0.55248,-0.219623 c 0,0 -0.22305,-0.223052 -0.44268,0 -0.33286,0.219623 -0.88535,0.106381 -0.88535,0.106381 l -0.77554,0.223052 -0.77553,-0.332865 c -0.21962,0.106381 0.44267,0.442675 -0.77554,0 l -0.55248,-0.223051 c -0.44268,0.665726 -1.21822,0.332864 -1.21822,0.332864 h -5.42533 v -0.106381 l -0.33286,0.106381 c -1.33146,0.336293 -1.66089,0.223052 -4.43361,-0.219623 -0.44267,0.336296 -0.55248,0.555916 -0.99859,0.219623 l -0.55249,-0.219623 c 0.10981,0.219623 0.10981,0.113242 -0.10981,0.219623 0,0.113242 -2.10699,-0.106381 -1.32802,-0.106381 l -0.21962,-0.223052 -0.22305,0.223052 -0.88535,0.106381 c -0.33287,0 -0.6623,0.113242 -1.1084,0.223052 v -0.10981 l -0.10981,-0.219623 -0.11325,-0.113242 -0.44267,0.219623 c 0,0 0,-0.106381 -0.10981,-0.106381 -0.21962,0 -0.21962,-0.223052 -0.21962,-0.223052 l -0.10981,0.332865 c 0,0 -1.66089,0.113241 -2.32662,0 -0.66573,-0.106382 -0.99859,0.113241 -0.99859,0.113241 l -0.21962,-0.336296 -0.55592,0.446106 -0.77553,-0.223051 -0.44268,-0.219623 c -0.21962,0 -0.88535,0.555916 -1.1084,0.336296 0,0 -0.77554,-0.446106 -1.21821,-0.113242 -0.66573,0.446106 -1.1084,-0.106381 -1.32803,0.223052 -0.33286,0.10981 -1.99375,-0.332865 -2.2168,-0.332865 -0.10981,0 -0.33286,0.219623 -0.55591,0.106382 l -0.6623,-0.219623 c -0.33286,0.219623 -0.77554,0.113241 -0.77554,0.113241 -0.10981,-0.223051 -0.33286,-0.113241 -0.33286,-0.113241 h -0.99859 c 0,0 0.33286,-0.442675 0.44267,-0.995159 0,-0.332864 0.11324,-0.88878 0.11324,-0.88878 0.21962,-0.21962 0.10981,-0.442675 0.21962,-0.662295 l 0.22306,-0.219622 v -0.775539 l 0.21962,-1.331455 0.99859,-0.442672 v -0.219622 l -0.10981,-0.21962 v -0.329433 l 0.10981,-0.10981 c 0.66573,-0.888781 1.32802,-1.993752 1.66089,-2.992342 l 0.77553,-0.21962 c 1.21822,0.21962 1.21822,0.332861 1.43784,0 l 0.88535,0.332861 0.77553,-0.332861 c 0.10981,-0.109813 0.21963,0 0.44268,0.10981 l 1.66089,0.10981 0.10981,-0.21962 c 0.66572,0 1.1084,-0.219623 1.77413,0.10981 0.21962,0 0.55248,0.332861 1.1084,0.10981 0.10981,0 0.66229,-0.10981 1.1084,0.10981 a 2.6011404,2.6011404 0 0 0 0.88535,0.219622 c 0.10981,-0.10981 0.88534,-0.10981 1.21821,-0.10981 0.21962,0 1.21478,0.10981 1.66089,-0.219622 a 1.2010543,1.2010543 0 0 0 0.44267,-0.21962 l 0.66229,0.10981 c 0,0 1.66089,0.10981 2.43643,-0.10981 0.55249,-0.219623 0.99516,0 2.21337,0 l 0.77897,0.21962 c 0,0 0.6623,0.219622 0.88535,-0.10981 a 1.4069493,1.4069493 0 0 1 0.99859,0.10981 c 0.21962,0 0.33286,-0.332865 0.55592,-0.332865 0.55248,0 1.1084,0.219623 1.43783,0.332865 l 0.55592,-0.332865 0.66229,0.332865 1.32802,-0.332865 0.44268,0.219623 c 0.66229,0.21962 1.43783,0.21962 1.88051,-0.219623 0,0.442675 0.66573,-0.332861 0.66573,0.109813 0,0.332862 0.55591,0.21962 0.66572,0.10981 l 1.99375,-0.332864 0.22306,0.219622 0.33286,-0.219622 h 2.32661 l 0.55592,-0.21962 0.44267,0.10981 1.21821,-0.10981 c 0.11325,0.21962 3.32178,-0.21962 3.54483,-0.10981 0.21962,0.10981 -0.66573,0.775536 0.21962,0.552484 0.55249,-0.109813 0.21962,0.332862 0.66573,0.21962 0.10981,-0.10981 0.21962,0 0.33286,0.219623 l 0.44268,0.332861 0.44267,0.336296 c 0,0 0.33286,0.10981 0.88535,0.332865 0.11324,0 0.55592,0.10981 0.44268,0.21962 -0.21963,0.212759 0.11324,0.212759 0.11324,0.212759 z"
       inkscape:export-xdpi="97"
       inkscape:export-ydpi="97" />
    <path
       style="clip-rule:evenodd;fill:#d7ddd8;fill-rule:evenodd;stroke-width:3.43158364"
       inkscape:connector-curvature="0"
       id="path12"
       d="m -564.83668,-71.074085 0.77554,-0.552484 c 0.10981,-0.219623 0,-0.219623 0,-0.442675 0.21962,-0.332864 0.88534,-1.108403 0.99859,-1.660887 0.33286,-1.104969 0.33286,-2.103559 1.32802,-2.656046 v -1.660885 c 0,-0.552487 0.33286,-0.885349 0.88535,-0.885349 h 3.10215 c 0.21962,0 0.21962,0.21962 0.44267,0.21962 1.32803,0 2.10356,-0.662294 3.43159,-0.662294 0.21962,0 0.33286,0.21962 0.55248,0.21962 2.54967,0.332864 3.9875,0 6.53374,0.219623 0.21962,0 0.21962,0.21962 0.44267,0.21962 0.77554,0 1.1084,-0.662295 1.88394,-0.662295 0.33287,0 0.55249,0.21962 0.88535,0.21962 0.44267,0 0.66573,-0.21962 1.21821,-0.21962 0.55592,0 0.77554,0.21962 1.32803,0.21962 0.44267,0 0.66572,-0.113241 0.99859,-0.113241 0.21962,0 0.21962,-0.21962 0.33286,-0.21962 0.33286,0 0.33286,0.336293 0.55249,0.336293 a 1.1598753,1.1598753 0 0 0 0.99859,-0.555916 c 0.44267,0.219623 0.66572,0.555916 1.21821,0.555916 0.66572,0 1.33145,0 1.66088,-0.555916 l 0.33287,0.336296 h 1.32802 c 0.22305,0 0.33286,-0.336296 0.55592,-0.336296 0.22305,0 0.21962,0.219623 0.44267,0.219623 0.22305,0 0.21962,-0.219623 0.44268,-0.219623 v 0.336296 h 4.53998 c 0.21962,0 0.33286,0.21962 0.55592,0.21962 0.33286,0 0.33286,-0.21962 0.55248,-0.21962 0.21962,0 0.21962,0.21962 0.44268,0.21962 0.22305,0 0.22305,-0.21962 0.44267,-0.21962 h 3.10215 c 0.44268,0 0.6623,0.21962 0.99859,0.21962 0.33287,0 0.55249,-0.21962 0.88535,-0.21962 0.21962,0 0.33287,0.21962 0.55249,0.21962 0.21962,0 0.33286,-0.21962 0.55248,-0.21962 0.33287,0 0.44268,0.442674 0.88535,0.442674 0.55592,0 0.66573,-0.555916 1.21821,-0.555916 0.55592,0 0.77554,0.336294 1.33146,0.336294 0.33286,0 0.33286,-0.219621 0.66229,-0.219621 0.10981,0 0.21962,0.219621 0.33287,0.219621 0.33286,0 0.55248,-0.219621 0.88534,-0.219621 0.55249,0 0.88535,0.219621 1.55108,0.219621 a 1.5442127,1.5442127 0 0 0 0.99859,-0.336294 c 2.43643,0 3.76445,-0.109813 6.09106,0.113242 0.21962,0 0.33287,0.21962 0.55249,0.21962 0.21962,0 0.33286,-0.21962 0.55248,-0.21962 0.22306,0 0.33287,0.21962 0.55592,0.21962 0.10981,0 0.21962,-0.21962 0.33286,-0.336293 0.21962,0.113241 0.44268,0.336293 0.77554,0.336293 0.10981,0 0.10981,-0.21962 0.21962,-0.21962 0.44268,0 0.66573,0.21962 0.99859,0.21962 0.44268,0 0.6623,-0.21962 1.10497,-0.21962 0.21962,0 0.21962,0.21962 0.44268,0.21962 0.21962,0 0.21962,-0.21962 0.44267,-0.21962 0.22305,0 0.22305,0.21962 0.44268,0.21962 h 1.10496 c 0.22306,0 0.44268,-0.21962 0.66573,-0.21962 0.21962,0 0.21962,0.21962 0.33287,0.21962 0.33286,0 0.55248,-0.21962 0.88534,-0.21962 0.22306,0 0.22306,0.21962 0.44268,0.21962 0.21962,0 0.21962,-0.21962 0.44267,-0.21962 h 8.19806 c 0.77554,0.995159 1.43783,2.100127 2.65947,1.883939 0.10981,0.552484 0.77554,0.662294 1.21479,1.104969 0.44267,0.552487 0.66572,1.104971 1.44126,1.218213 0,0.885349 0.44267,1.214781 1.10497,1.770697 0.66573,0.778971 0.44611,0.998591 1.55108,1.99375 l 1.1084,1.218213 1.1084,0.775537 h -87.93433 z"
       inkscape:export-xdpi="97"
       inkscape:export-ydpi="97" />
    <path
       style="clip-rule:evenodd;fill:#005981;fill-rule:evenodd;stroke-width:3.43158364"
       inkscape:connector-curvature="0"
       id="path14"
       d="m -477.88722,-90.675291 z m -78.41855,-48.402489 z m 2.43643,-4.76304 -0.11324,0.10981 z m 70.11068,51.947318 c -0.10981,0.10981 -0.21962,0.10981 -0.44267,0 v -0.332864 l -0.21962,-0.219623 c -0.22306,0.106381 -0.55592,0.106381 -0.55592,0.106381 v -0.552487 l -0.10981,-0.10981 c -0.10981,0.10981 -0.22305,0.219623 -0.44267,0.10981 v -0.552484 c -0.33287,-0.21962 -0.55249,-0.332864 -0.77554,-0.552485 h -0.11324 c -0.33287,-0.219622 -0.44268,-0.775538 -0.6623,-0.665728 l -0.22305,-0.662295 c -0.10981,0 -0.21962,-0.10981 -0.6623,-0.10981 l -0.10981,0.10981 -0.21962,-0.21962 h -0.10981 l -0.10981,-0.219622 h -0.22305 c -0.99859,-1.551075 -0.99859,-0.552485 -1.43784,-1.108401 l 0.10981,-0.552487 c -0.10981,-0.10981 -0.21962,-0.10981 -0.21962,0 -0.44267,-0.21962 -0.66572,-0.662294 -0.88535,-0.995159 -0.33286,0.10981 -1.32802,-0.99859 -1.99375,-1.660884 l -0.22305,0.10981 v -0.21962 l -0.10981,-0.10981 h -0.33286 l -0.33287,-0.44611 0.10981,-0.10638 -0.66229,-0.11324 c 0.21962,-0.33286 -1.55108,-1.21478 -0.66573,-1.21478 l -0.55248,-0.10981 v -0.21962 c -0.11325,0 -0.55592,0.10981 -0.88535,-0.10981 v -0.33287 l -0.10981,-0.4461 -0.33287,0.4461 c -0.21962,-0.66572 -0.55248,-1.1084 -0.88535,-1.33145 l -0.11324,-0.10981 c -0.44267,-0.33287 -0.88535,-0.44268 -1.21821,-1.1084 -0.21962,0 -0.44267,-0.33287 -0.66229,-0.55249 -0.22306,0 -0.44268,0 -0.66573,-0.10981 -0.10981,-0.10981 -0.99859,-1.33145 -0.88535,-1.55107 l -0.10981,-0.10981 -0.21962,0.21962 c -0.77554,-0.99516 -1.55108,-1.32803 -2.43643,-1.99375 l -0.44267,0.11324 c -0.10981,0 -0.21962,-0.3363 -0.21962,-0.66573 l -0.33287,0.21962 0.10981,-0.66229 c -0.21962,-0.10981 -0.33286,-0.33287 -0.55248,-0.55249 0,1.43784 -0.44611,-1.21821 -1.44127,-0.99859 l -0.21962,-0.66229 -0.44267,-0.44268 c 0.10981,0.10981 0,-0.10981 -0.21962,-0.21962 l -0.21963,-0.21962 -0.10981,-0.11324 v 0.55591 h -0.22305 c -0.10981,-0.44267 -0.10981,-0.99859 -0.66229,-0.77897 l -0.44268,-0.66229 -0.10981,0.21962 -0.22305,-0.55249 h 0.10981 c 0.22305,-0.21962 -0.10981,-0.55248 -0.33287,-0.55248 -0.77553,-0.11324 -0.99859,-0.66573 -1.66088,-0.99859 l -0.33286,0.21962 v -0.55249 c -0.55249,0 -2.43643,-2.2168 -2.65605,-2.10356 v -0.10981 l -0.22306,-0.21962 c -0.21962,0.10981 -0.55248,0.10981 -0.88534,-0.33286 -0.10981,-0.11324 -0.44268,-0.6623 -0.21962,-0.77897 h -0.55592 v -0.21962 l -0.33286,-0.6623 -0.11325,-0.10981 c -0.44267,0.10981 -1.21821,-0.66573 -2.10356,-1.55108 v 0.22306 c -0.44267,-0.33287 -1.10497,-1.77413 -1.66088,-1.66089 l -0.21963,-0.21962 -0.35345,-0.13726 -0.10981,-0.44268 -0.21962,-0.10981 c -0.10981,0.10981 -0.21962,-0.10981 -0.21962,-0.44267 l -0.10981,-0.21962 h -0.10981 v 0.21962 h -0.33287 v -0.10981 c 0,-0.10981 0.22306,0 0,-0.33287 -0.33286,-0.44267 -0.77554,-0.33286 -0.99516,0.10981 -0.33286,-0.33286 -0.22305,-1.33145 -0.77553,-1.55107 0,0 -1.44127,-0.10981 -1.1084,-0.77554 l -0.22306,-0.33286 -0.10981,-0.10981 -0.44267,-0.10981 -0.10981,-0.66573 -0.44268,-0.44268 c 0.10981,0.10981 -0.21962,0.6623 -0.44267,0.21963 -0.21962,-0.21963 0.10981,-0.44268 0.10981,-0.44268 l -0.21962,-0.22305 -0.10981,0.44267 h -0.11325 l -0.44267,-0.77553 0.10981,-0.11325 -0.44268,0.11325 -0.33286,-0.55592 -0.21962,0.11324 -0.22305,-0.66573 0.11324,0.10981 0.10981,-0.10981 a 7.5872314,7.5872314 0 0 1 -1.1084,-0.88535 l -1.32802,-0.44267 v -0.55249 c -0.44268,-0.33286 -0.88878,-0.66229 -1.21822,-0.77553 -0.10981,-0.22306 -0.21962,-0.44268 -0.44267,-0.55592 h -0.21962 c -0.21962,-0.10981 -0.33286,-0.44267 -0.44267,-0.44267 -0.10982,-0.21962 -0.10982,-0.33287 -0.21963,-0.55249 l -0.10981,0.33287 -0.11324,-0.33287 c -0.21962,-0.10981 -0.33286,0.21962 -0.44267,0.10981 -0.21963,-0.21962 -0.55249,-0.44267 -0.77554,-0.77554 -0.77554,-0.22305 -0.88535,-1.66088 -1.66089,-1.55107 -0.21962,-0.77554 -1.33145,-0.88535 -1.43783,-1.66089 a 22.174893,22.174893 0 0 0 -1.99375,-1.66088 h -0.44268 l -0.11324,-0.77554 -0.21962,0.10981 -0.10981,-0.21962 -0.12697,0.10981 v -0.77211 l -0.33286,0.44267 -0.21962,-0.99859 c 0.21962,1.10841 -1.77413,-0.44267 -1.77413,-0.66572 l 0.33286,-0.10981 c -0.21962,-0.10981 -0.33286,0 -0.44267,0 -0.10982,0.10981 -0.33287,0 -0.44268,-0.10981 l -0.11324,-0.55249 h -0.10981 l -0.10981,0.44267 c -0.33287,0.10982 -0.33287,-0.66572 -0.33287,-0.99859 l 0.10982,-0.21962 -0.21963,-0.22305 v 0.33286 l -0.22305,-0.22305 c -0.33286,-0.22305 -0.33286,-0.66573 -0.33286,-0.99859 -0.33287,0.55592 -1.10841,-1.21821 -1.66089,-0.88535 0,-0.10981 -0.21962,-0.33286 -0.44267,-0.55592 -0.99859,1.55108 -1.77413,4.43361 -2.65605,6.20431 v 0.88535 c -0.88535,0.44267 -0.22305,0.99859 -0.66573,1.66088 l -0.21962,-0.21962 -0.22305,0.44267 c 0.22305,0.21963 -1.10497,1.99376 -0.99516,2.10357 l -0.44267,0.55591 0.55591,-0.11324 c -0.66572,1.77413 -1.44126,3.43159 -2.10356,5.20571 0.21962,0.77554 -0.55248,1.10841 -0.55248,1.88394 a 23.231821,23.231821 0 0 1 -1.44127,2.8791 l -1.1084,2.54967 -0.33286,0.44267 0.22305,0.11324 c -0.88535,0.6623 -0.66573,0.6623 -0.66573,1.66089 l -0.44267,0.44268 0.21962,0.99515 c -0.99859,0.10982 -0.10981,1.33146 -0.88535,1.66089 l -0.10981,-0.21962 -0.33286,0.21962 c 0,0.21962 -0.33287,1.33146 -0.33287,1.66089 l -0.33286,0.77553 c -1.32802,2.54624 -2.54624,6.97641 -3.10215,7.41909 -0.21962,0.22305 0,0.77897 -0.10981,1.1084 l -0.33287,0.6623 c 0,0.22305 0,0.33286 0.10981,0.55591 l 0.21963,-0.10981 c -0.10982,0.33287 -0.66573,0.44268 -0.66573,0.77554 l 0.33286,0.10981 -0.44267,0.21962 c -0.10981,0.55249 -0.33287,0.99859 -0.55249,1.55108 0.44268,0.44267 -1.43783,1.43783 -0.77554,1.55107 -0.10981,0.21963 -0.55248,1.32803 -0.66229,1.32803 -0.44268,0.77897 -0.77554,1.44126 -0.55592,2.216799 -0.66572,0.10981 -0.77554,1.551075 -0.99859,1.993749 0,-0.10981 -0.33286,0.332865 -0.66573,0.442675 v 0.109812 h 0.21963 l -0.21963,0.10981 c 0,0.555916 -0.88534,3.325204 -1.21478,3.325204 l -0.11324,0.552485 c -0.21962,-0.332862 -0.44267,0.219622 0.11324,0 l -0.44267,0.446106 0.10981,0.219622 -0.44267,0.662295 0.21962,0.109812 h -0.33287 l -0.10981,0.332862 -0.21962,0.552485 h 0.10981 l -0.10981,0.446106 c -0.10981,0 -0.55248,1.328023 -0.55248,0.662297 0,0.21962 -0.22306,0.775538 -0.33287,0.995158 l -0.10981,0.10981 h -0.22305 v 0.555919 l 0.11324,-0.113244 0.10981,0.113244 -0.33286,0.885346 -0.22305,-0.10981 v 0.332865 c -0.21963,0.662294 -0.88535,1.1084 -0.99516,1.774129 0,0.332861 0.21962,0.662294 -0.10981,0.995158 -0.77554,0.888781 -2.32662,4.543418 -2.8791,5.871441 v -8.970161 c 0.33286,-0.332865 0.66572,-1.108401 1.1084,-1.883939 -0.21962,0.219622 -0.44268,0.442674 -0.55249,0.10981 -0.21962,-0.662295 0.44268,-0.885349 0.55249,-0.885349 l -0.10981,-0.10981 v -0.332864 c 0.10981,-0.223052 0.21962,-0.778968 0.44267,-0.888781 0.77554,-0.442672 0.10981,-0.662294 0.44268,-1.1084 0.10981,-0.21962 0.33286,0.223054 0.21962,0.113241 -0.10981,-0.336293 0.77554,-3.435014 1.32802,-4.210552 l 0.10981,0.10981 v -0.446106 l 0.21962,0.113244 0.10981,-0.336296 0.10981,-0.332864 0.11325,-0.442675 0.10981,-0.10981 0.10981,-0.552484 0.22305,-0.10981 v -0.109813 c -0.10981,-0.10981 -0.44267,-0.10981 -0.10981,-0.223052 l 0.10981,0.113242 h 0.10981 l 0.22305,-0.336296 h -0.10981 v -0.21962 l -0.10981,-0.219623 0.22306,-0.662294 0.21962,0.21962 0.10981,-0.21962 v -0.442673 l 0.33286,-0.21962 0.10981,-0.3363 -0.10981,-0.55248 h 0.44268 l 0.33286,-0.99516 c -0.11324,-0.10981 -0.44267,-0.21962 0,-0.33286 V -103.53 l 0.33286,-0.44268 0.33287,0.10981 v -1.1084 c 0.21962,0.22306 0.21962,0.22306 0.33286,-0.10638 v -0.11324 c 0.55249,0.11324 -0.21962,0.3363 -0.10981,0.55592 h 0.10981 l 0.21962,-0.44268 c 0,-0.11324 0,-0.22305 0.10981,-0.4461 -0.33286,0.77897 -0.10981,-0.6623 0,-1.10497 l 0.10981,-0.21962 0.21962,0.33286 0.33287,-0.21962 c 0.10981,-0.10981 0,-0.33287 0,-0.44268 l -0.11324,-0.11324 v 0.3363 h -0.10638 v -0.21962 h -0.10981 v -0.21962 h 0.21962 c 0,-0.22306 -0.10981,-0.9986 0.33286,-0.77898 l 0.10981,-0.55248 h 0.21962 l -0.10981,-0.33286 h 0.21962 c 0.11325,-0.21962 -0.10981,-0.3363 -0.10981,-0.55592 l 0.33287,-0.55248 0.21962,0.10981 -0.10981,-0.10981 c 0.21962,0.10981 0.33286,-0.10982 0.33286,-0.55249 l 0.21962,-1.88394 0.21962,-0.21962 c 0.22306,0.10981 0.11325,0.55248 0.22306,0.33286 0.21962,-0.44267 0,-0.10981 0.21962,-0.44267 0.11324,-0.21962 -0.10981,-0.33287 -0.10981,-0.33287 v -0.21962 l 0.10981,-0.10981 -0.10981,0.21962 h 0.44267 c 0,-0.33286 -0.10981,-0.10981 -0.33286,-0.33286 h -0.10981 l 0.22305,-0.11324 0.10981,-0.10638 0.10981,0.33286 c 0.11324,0 -0.21962,-0.99859 0,-1.21821 l 0.22305,0.21962 c 0,0 0.21963,-0.10981 0.55249,-0.21962 0.55248,-0.99516 0.21962,-2.32661 1.1084,-2.43642 l 0.10981,-0.10981 c -0.10981,-0.21963 -0.33286,-0.21963 -0.44267,-0.44268 l 0.22305,-0.55591 -0.10981,-0.10982 c 0.21962,0 0.99859,-1.55107 1.43783,-2.76929 0.33287,-0.99859 0.55249,-1.88393 0.44268,-1.99374 0.21962,-0.10981 0.44267,-0.44268 0.66229,-0.88535 l 0.21962,-0.77554 0.10981,0.11324 c 0,-0.11324 0.10982,-0.33286 0.10982,-0.44267 v -0.10981 l 0.22305,-0.55249 -0.10981,-0.55592 c 0.44267,0.10981 0.66229,-0.44267 0.33286,-0.77553 0.10981,-0.10981 0.33287,-0.33287 0.55249,-0.6623 0.10981,-0.55248 0.33286,-1.88394 0.77553,-2.2168 0.55592,-0.44268 0,-0.66573 0.33287,-1.1084 l 0.21962,-0.22306 v -0.12353 l 0.21962,-0.10981 v -0.10981 l -0.21962,-0.21963 0.21962,-0.55248 -0.10981,-0.10981 c 0.44267,-0.10981 1.99375,-3.9875 2.2168,-4.54342 l 0.21962,-0.10981 0.21963,-0.77554 v -0.21962 h -0.10981 l 0.21962,-0.77554 0.44267,-0.44267 0.22305,-0.66573 v -0.44267 l 0.10981,0.10981 c 0.22306,-0.44267 0.33287,-0.77554 0.55592,-1.10497 -0.21962,-0.11324 -0.33286,-0.22305 0.10981,-0.22305 l -0.10981,-0.77554 0.44268,-0.44268 0.33286,0.21962 v -1.1084 l 0.21962,-0.21962 0.11324,0.33287 0.10981,-0.10981 0.10981,-0.66573 c -0.33286,0.99859 -0.10981,-1.10497 0.10981,-1.21821 l 0.21963,0.21962 0.44267,-0.21962 c 0.10981,-0.10982 0,-0.21963 -0.10981,-0.44268 l -0.11324,-0.10981 v 0.33286 h -0.10981 l 0.10981,-0.22305 h -0.10981 v -0.10981 l 0.22305,-0.10981 c 0,-0.21962 -0.22305,-0.88535 0.21962,-0.77554 l 0.10981,-0.55591 h 0.21962 v -0.33287 l 0.10981,0.10981 v -0.66572 l 0.33287,-0.55249 0.11324,0.10981 v -0.10981 c 0.10981,0 0.44267,-0.21962 0.33286,-0.55592 l -0.11324,0.11325 c -0.33286,-0.21963 -0.21962,-0.44268 -0.21962,-0.44268 0.55248,-0.21962 -0.11324,-0.77554 0.55248,-0.21962 l -0.10981,-0.10981 v -0.21962 c -0.10981,-0.22305 -0.22305,-0.55592 0,-0.77554 1.21822,-0.88535 0.88535,-2.2168 1.1084,-2.43642 l 0.10982,0.21962 0.21962,-0.66573 0.55591,0.55592 v -0.33287 l 0.21963,0.33287 0.10981,-0.10981 0.10981,0.10981 c 0.33286,-0.21962 1.1084,0.88535 1.55107,0.66229 l 0.33287,0.44268 0.22305,0.21962 0.44267,0.10981 c 0,0.10981 0,0.21962 0.21962,0.44267 h 0.33287 v 0.33287 c 0.44267,0.44267 0.88535,0.66229 0.55591,0.77553 l 0.44268,0.10982 v 0.33286 l 0.33286,-0.22305 0.77554,0.33286 -0.10981,0.33286 0.10981,0.10981 0.21962,0.22306 0.21962,-0.33287 c -0.10981,1.88051 1.55108,0.88535 1.33146,1.99375 l 0.55248,-0.10981 0.10981,0.66573 0.22306,-0.10981 v 0.88535 l 0.55248,-0.33287 0.10981,0.88535 c 0,-0.44267 0.66573,0.10981 0.77554,-0.33286 l 0.33286,0.44267 h 0.33287 a 2.6766353,2.6766353 0 0 1 0.22305,0.99859 l 0.55249,0.10981 0.33286,0.55592 0.77554,0.44268 v 0.44267 h 0.44267 c 0,0.21962 -0.33286,0.55248 0,0.6623 l 0.55592,0.10981 c -0.55592,0.44267 0.66229,0.66572 0.99516,0.66572 l 0.21962,0.6623 c 0.33286,0.22305 0.88535,0.55592 1.1084,0.11324 l 0.21962,0.77554 c 0.33287,0.21962 0.55592,0.66573 0.77554,0.99859 0.10981,-0.33286 0,-0.88535 -0.21962,-1.1084 l 0.55248,0.33286 c 0,0.33287 0.44268,0.66573 0.99859,1.44127 l 0.55249,0.10981 0.10981,0.77554 0.55248,0.44267 c -0.10981,-0.10981 0.10981,-0.77554 0.55592,-0.21962 l 0.11324,0.21962 0.10981,0.10981 0.22306,-0.10981 0.10981,0.33286 0.66229,0.66573 h 0.10981 c 0.33287,-0.10981 0.66573,0.44267 0.77554,0.6623 v 0.44267 c 0.44268,0.22305 0.88535,0.66573 1.32802,0.77554 l 0.21962,0.21962 c 0.33287,0.21962 0.88535,0.33286 1.21822,0.77554 v 0.66229 h 0.44267 l 0.10981,0.11325 c 0.33287,0.33286 0.55592,0.66229 0.88535,0.99516 0.21962,0.10981 0.44268,0.21962 0.77554,0.44267 0.44267,0.21962 0.44267,0.77554 0.77554,1.21821 l 0.22305,-0.10981 v -0.21962 l 0.10981,0.21962 0.10981,0.21962 c 0.33286,0 0.77554,-0.10981 1.21821,0.44268 0.10981,0.22305 -0.10981,0.77553 0.21963,0.88534 h 0.66572 c -0.22305,0.33287 0.33287,0.77554 0.88535,0.88535 l 0.10981,0.33287 0.21962,0.33286 0.10981,0.11324 0.10981,0.21962 v -0.10981 l 0.44268,0.21963 h -0.10981 l 0.10981,0.55591 0.22305,-0.33286 c 0,0.10981 1.43784,1.43783 2.99234,2.8791 l 0.33287,0.10981 h 0.44267 l 0.10981,0.77553 0.22305,0.10982 h 0.10981 l 0.10981,0.22305 0.11325,-0.10981 v 0.21962 l 0.21962,0.22305 v -0.11324 l 0.33286,0.11324 c 0.21962,0.21962 0.88535,0.99516 0.77554,0.6623 l 0.55592,0.10981 c 0,0.21962 0.55248,0.99516 0.88534,1.21478 -0.11324,0 -0.11324,0.11324 0,0.11324 0.21963,0.10638 0.33287,-0.33629 0.55249,-0.21962 0.10981,0.10638 0.10981,0.55249 0.21962,0.77554 v -0.10981 l 0.21962,-0.21962 c 0.21962,0.10981 0.44268,0.55248 0.33287,0.77554 l 0.33286,0.55248 0.33286,0.10981 h 0.33287 l 0.10981,0.77897 c 0.10981,0.10981 0.33286,0.21962 0.55248,0.33286 0.10981,-0.21962 0.33287,-0.33286 0.55592,0 0,0.10981 0,0.21962 -0.10981,0.33287 l 0.33286,0.21962 v -0.33287 h 0.21962 l 0.44268,0.99516 -0.10981,0.11325 0.55248,-0.11325 0.33287,0.66573 0.33286,-0.10981 0.22305,0.6623 h -0.10981 l -0.11324,0.21962 0.22305,0.21962 0.21962,0.21962 0.44268,-0.10981 c 0.55248,0.33286 0.66229,0.66573 1.55107,0.88878 v 0.33286 l 0.44268,0.33287 c 0,0.21962 0.10981,0.66229 0.33286,0.88534 l 1.21821,0.44611 c -0.10981,0.6623 0.77554,0.6623 0.77554,0.55249 v 0.10981 h 0.33286 v 0.10981 c 0.21963,0 0.33287,0.44267 0.10982,0.33286 l 0.10981,0.33286 c 0.44267,0.9986 1.21821,-0.66229 1.99375,1.77413 h 0.77554 v 0.55249 h 0.33286 l -0.33286,0.66573 h 0.10981 l 0.66572,-0.33287 c 0.21962,0.33287 0.21962,0.77554 0.33287,1.10497 h 0.44267 l 0.10981,0.44268 a 1.8530552,1.8530552 0 0 1 0.66573,-0.33287 v 0.55249 l 0.21962,0.10981 0.10981,0.22305 0.21962,0.21962 0.10981,-0.21962 0.11325,0.10638 0.44267,0.3363 -0.10981,0.10981 v 0.10981 h 0.44267 l -0.10981,-0.21962 0.10981,0.21962 0.21962,0.55248 0.10981,0.10981 c 0.33287,0.10981 0.55592,0.21962 0.66573,0.55592 0.44268,0 0.55592,0.21962 0.55592,0.44267 h 0.55248 v 0.33287 l 0.33287,0.55248 0.10981,-0.10981 v 0.21962 l 0.22305,-0.10981 v 0.99859 l 0.21962,-0.66572 0.44268,0.21962 h -0.22305 l 0.22305,0.99859 c 0.10981,-0.44611 0.66229,0 0.77554,-0.33286 l 0.33286,0.44267 h 0.33286 c 0.99859,1.547643 0.99859,0.552484 1.44127,1.104968 l 0.10981,0.665727 c 0,-0.223052 0.33286,-0.332862 0.55592,-0.10981 0.21962,0.442674 0.66572,1.437833 0.88534,2.103561 l 0.10981,-0.113244 0.33287,-0.442672 0.21962,0.778968 h 0.33286 v -0.10981 0.10981 l 0.33287,0.662297 0.21962,0.10981 -0.10981,-0.10981 h 0.10981 a 1.8976657,1.8976657 0 0 1 0.44267,0.552485 l -0.10981,0.10981 c 0.22305,0.332864 0.44268,0.442674 0.55592,0.332864 0.33286,-0.10981 0.44267,0.555916 0.55248,0.223052 v 0.332864 h 0.55249 l -0.21962,0.219623 0.10981,0.21962 0.10981,0.10981 h 0.22305 l -0.10981,0.219622 v 0.21962 c 0.10981,0.219623 0.55592,0.219623 0.66229,0 l 0.11325,0.332865 0.10981,0.10981 h 0.33286 c 0.10981,0.336296 0.10981,0.77897 0.21962,1.108403 l 0.10981,0.21962 0.21963,0.10981 0.44267,-0.21962 v 0.10981 h 0.33286 c 0,0.10981 0,0.332864 0.11324,0.552484 h 0.44268 l -0.21962,0.442675 0.33286,0.446106 0.10981,0.10981 0.44268,0.442674 v 4.210555 c -1.44127,-1.441264 -2.99235,-2.769287 -4.54342,-3.987501 l -0.21962,-0.662297 c 0.10981,0.442675 -0.33286,0.219623 -0.55249,0 -0.22305,-0.10981 -0.99859,-1.660884 -1.21821,-1.993749 -0.0721,0.02059 -0.18187,-0.09265 -0.40493,-0.202462 z"
       inkscape:export-xdpi="97"
       inkscape:export-ydpi="97" />
    <path
       style="clip-rule:evenodd;fill:#005981;fill-rule:evenodd;stroke-width:3.43158364"
       inkscape:connector-curvature="0"
       id="path16"
       d="m -545.12223,-133.20634 c -1.21478,1.66089 -0.77554,4.53999 -2.76929,5.31552 -0.21962,-0.88534 0.88534,-1.33145 0.55591,-1.99374 0.6623,-0.66573 0.10981,-1.99376 1.21822,-2.21681 -0.21962,-0.77554 0.44267,-0.99859 0.33286,-1.66089 0.55592,-0.22305 0.44267,0.33287 0.6623,0.55592 z m -2.76586,6.31068 v 0.77554 c -0.21962,0 -0.55249,0.10981 -0.55249,-0.10981 -0.22305,-0.44267 0.32944,-2.10699 0.55249,-0.66573 z m -0.66573,1.33146 c 0.21962,0.33286 -0.10981,0.55248 -0.33286,0.77554 0.11324,0.10981 0.22305,0.10981 0.22305,0.33286 -0.10981,0.44267 -0.44267,0.21962 -0.77554,0.33286 0.10981,-0.77896 0.21963,-1.5545 0.88535,-1.44126 z m -7.08965,17.94032 c -1.1084,0.10981 -0.10981,1.33145 -0.88535,1.66088 l -0.44267,-0.66229 c 1.10497,-0.21962 -0.33287,-2.2168 1.10497,-1.99375 z m -2.21337,4.4336 c -0.66573,0.55249 0,1.21479 -0.55592,1.65746 -0.33286,0.88878 -1.10497,1.660885 -0.99516,2.772719 -1.1084,-0.555918 0.21962,-1.331449 0.10981,-2.216799 0.21962,-0.77554 0.77554,-1.54765 0.88535,-2.21338 z m -8.75054,23.036224 c -0.21962,0.332865 -0.77554,0.219623 -1.10497,0.219623 -0.44267,-0.775539 0.6623,-1.104971 0.55249,-1.770697 0.44267,0.223051 0.77553,0.88878 0.55248,1.551074 z m -1.44126,1.660888 c 0.22305,2.103559 -1.88051,3.211962 -1.43784,5.425334 -0.21962,0.336293 -0.55248,0.446106 -0.99859,0.446106 -0.10981,-1.993752 1.1084,-3.544827 1.43783,-5.428766 0.22306,-0.329432 0.55592,-0.442674 0.9986,-0.442674 z m -2.54624,7.642135 c 0,0.219623 -0.10981,0.336296 -0.22305,0.446106 l -1.10497,-0.223052 c -0.44611,-0.99859 1.32802,-1.108403 1.32802,-0.223054 z m 4.98609,-12.291931 c -0.10981,0.775537 -0.44267,1.104969 -1.44126,0.995159 -0.33287,-0.10981 0.10981,-0.552484 0.22305,-0.775538 0.21962,-0.109811 0.32943,0.10981 0.32943,0.219622 0.33286,-0.439243 0.33286,-0.995161 0.88878,-0.439243 z m 20.93266,-52.280176 c 0,0.55248 -0.10981,0.99859 -0.55248,1.21821 -0.10981,0.10981 -0.22306,0 -0.33287,-0.10981 0.21962,-0.44611 -0.003,-1.44126 0.88535,-1.1084 z m -9.96875,24.92016 c 0,0.21962 -0.10981,0.33286 -0.21962,0.44267 h -0.44267 v -0.55248 c 0.21962,-0.10981 0.55248,-0.10981 0.66229,0.10981 z m -0.44267,0.99859 c 0,0.21962 0.11324,0.55248 -0.10981,0.6623 -0.44268,0 -0.44268,-0.55592 -0.44268,-0.77897 0.21962,0.003 0.44268,-0.10638 0.55249,0.11667 z m -13.07091,29.569957 c -0.21962,0.10981 -0.44267,-0.109813 -0.55248,-0.219623 -0.11324,-0.21962 0.21962,-0.662294 0.55248,-0.552484 z"
       inkscape:export-xdpi="97"
       inkscape:export-ydpi="97" />
    <path
       style="clip-rule:evenodd;fill:#005981;fill-rule:evenodd;stroke-width:3.43158364"
       inkscape:connector-curvature="0"
       id="path18"
       d="m -559.63097,-98.983155 c 0.11324,0.223054 -0.10981,0.332864 -0.10981,0.446106 h -0.44268 v -0.555916 c 0.22306,-0.0034 0.44268,-0.113242 0.55249,0.10981 z m -0.32943,0.99859 c 0,0.219623 0.10981,0.552485 -0.21962,0.662298 -0.44268,0.10981 -0.33287,-0.442675 -0.33287,-0.775539 0.10638,0 0.43925,-0.10981 0.55249,0.113241 z"
       inkscape:export-xdpi="97"
       inkscape:export-ydpi="97" />
  </g>
</svg>
